<ttFont>
<head>
    <!-- Most of this table will be recalculated by the compiler -->
    <tableVersion value="1.0"/>
    <fontRevision value="1.0"/>
    <checkSumAdjustment value="0x31ab5f25"/>
    <magicNumber value="0x5f0f3cf5"/>
    <flags value="00000000 00000011"/>
    <unitsPerEm value="2048"/>
    <created value="Thu Aug 15 19:17:16 2019"/>
    <modified value="Fri Aug 16 02:18:59 2019"/>
    <xMin value="-440"/>
    <yMin value="-544"/>
    <xMax value="3237"/>
    <yMax value="1984"/>
<macStyle value="00000000 00000010"/>
    <lowestRecPPEM value="3"/>
    <fontDirectionHint value="2"/>
    <indexToLocFormat value="0"/>
    <glyphDataFormat value="0"/>
  </head>
          <CharString index="0">
            147 122 99 182 return
          </CharString>
          <CharString index="1">
            58 vhcurveto
            -2 -6 -13 -69 -6 vvcurveto
            -134 -21 56 -63 110 hhcurveto
            return
          </CharString>
          <CharString index="2">
            -217 -46 80 -129 192 hhcurveto
            156 return
          </CharString>
          <CharString index="3">
            rmoveto
            -221 109 -141 161 return
          </CharString>
          <CharString index="4">
            49 -16 11 -19 -12 -55 return
          </CharString>
          <CharString index="5">
            104 109 21 callsubr
            -28 -41 -13 -34 hhcurveto
            -47 -22 30 69 14 hvcurveto
            169 787 -400 -50 -8 -39 53 -14 rlineto
            return
          </CharString>
          <CharString index="6">
            107 107 21 callsubr
            -12 callsubr
            34 callsubr
            endchar
          </CharString>
          <CharString index="7">
            115 callsubr
            134 callsubr
            153 callsubr
            endchar
          </CharString>
          <CharString index="8">
            rmoveto
            341 214 265 313 258 117 callsubr
            70 callsubr
            hvcurveto
            3 57 rmoveto
            -99 -54 91 184 1 hvcurveto
            44 callsubr
            endchar
          </CharString>
          <CharString index="9">
            143 105 191 69 hvcurveto
            -2 -7 -17 139 callsubr
            return
          </CharString>
          <CharString index="10">
            rmoveto
            -33 callsubr
            41 callsubr
            endchar
          </CharString>
          <CharString index="11">
            rmoveto
            -1017 hlineto
            -69 callsubr
            -82 callsubr
            1071 0 101 -59 callsubr
            -29 callsubr
            endchar
          </CharString>
          <CharString index="12">
            rmoveto
            -401 -46 -9 -42 55 -14 rlineto
            49 -16 10 -19 return
          </CharString>
          <CharString index="13">
            rmoveto
            152 133 71 93 64 hvcurveto
            9 46 rlineto
            -55 -52 -32 callsubr
            39 callsubr
            endchar
          </CharString>
          <CharString index="14">
            -26 callsubr
            endchar
          </CharString>
          <CharString index="15">
            rmoveto
            41 callgsubr
            return
          </CharString>
          <CharString index="16">
            rmoveto
            340 201 222 344 78 hvcurveto
            141 620 41 179 23 38 124 20 rlinecurve
            9 43 -372 0 -9 -43 rlineto
            204 callsubr
            endchar
          </CharString>
          <CharString index="17">
            rmoveto
            233 1098 20 93 23 20 119 17 rlinecurve
            8 43 -555 0 -10 -43 return
          </CharString>
          <CharString index="18">
            -2 callsubr
            endchar
          </CharString>
          <CharString index="19">
            rmoveto
            -68 -54 -52 -65 -62 return
          </CharString>
          <CharString index="20">
            -11 -55 -125 42 callsubr
            endchar
          </CharString>
          <CharString index="21">
            1813 rmoveto
            -192 return
          </CharString>
          <CharString index="22">
            1098 rmoveto
            275 196 return
          </CharString>
          <CharString index="23">
            rmoveto
            515 hlineto
            29 136 rlineto
            -515 hlineto
            endchar
          </CharString>
          <CharString index="24">
            1152 rmoveto
            79 63 61 77 73 return
          </CharString>
          <CharString index="25">
            -118 -17 rlinecurve
            -9 -43 return
          </CharString>
          <CharString index="26">
            rmoveto
            -357 -47 -8 -42 48 -10 52 -15 13 -17 6 -56 rlinecurve
            104 -905 -120 -115 -196 -148 -131 -89 rlinecurve
            -12 259 vlineto
            80 121 80 106 84 107 62 75 67 83 56 72 275 362 129 249 -1 148 rrcurveto
            86 -1 -60 55 -77 hhcurveto
            -76 -60 -56 -77 1 hvcurveto
            -74 2 58 -56 73 hhcurveto
            18 17 3 6 15 hvcurveto
            -41 -160 -117 -196 -185 -250 rrcurveto
            endchar
          </CharString>
          <CharString index="27">
            1558 rmoveto
            67 54 53 64 63 -49 49 return
          </CharString>
          <CharString index="28">
            183 -196 51 0 -128 367 return
          </CharString>
          <CharString index="29">
            1485 rmoveto
            -275 -196 return
          </CharString>
          <CharString index="30">
            rmoveto
            181 -531 -104 -493 -19 -89 -25 -35 callgsubr
            10 43 -129 18 -17 21 19 89 rlinecurve
            213 callsubr
            endchar
          </CharString>
          <CharString index="31">
            69 callsubr
            55 0 -8 callsubr
            return
          </CharString>
          <CharString index="32">
            rmoveto
            -68 -53 -52 -65 -62 48 -49 64 67 return
          </CharString>
          <CharString index="33">
            -156 0 -280 -367 rlineto
            return
          </CharString>
          <CharString index="34">
            59 58 72 69 -53 53 -71 -74 return
          </CharString>
          <CharString index="35">
            -172 -803 267 0 return
          </CharString>
          <CharString index="36">
            114 538 596 0 -115 -538 -19 -93 -24 -21 -114 -16 rlinecurve
            -9 -43 199 callsubr
            -21 -92 -23 -22 -82 callsubr
            return
          </CharString>
          <CharString index="37">
            rmoveto
            74 58 55 69 hvcurveto
            66 -1 -53 51 -70 hhcurveto
            -73 -59 -55 -70 hvcurveto
            -65 1 53 -51 70 hhcurveto
            endchar
          </CharString>
          <CharString index="38">
            -9 -43 110 -17 15 -20 -20 -93 rlinecurve
            -234 -1098 -19 -93 -23 -20 return
          </CharString>
          <CharString index="39">
            1145 rmoveto
            83 66 65 80 77 -59 60 -30 callgsubr
            return
          </CharString>
          <CharString index="40">
            -395 -46 -10 -42 57 -86 callgsubr
            return
          </CharString>
          <CharString index="41">
            1813 rmoveto
            -193 -281 48 0 return
          </CharString>
          <CharString index="42">
            -183 196 -51 0 128 -366 return
          </CharString>
          <CharString index="43">
            156 0 280 366 rlineto
            return
          </CharString>
          <CharString index="44">
            28 callsubr
            404 hmoveto
            return
          </CharString>
          <CharString index="45">
            1608 rmoveto
            500 hlineto
            return
          </CharString>
          <CharString index="46">
            28 130 rlineto
            -500 hlineto
            return
          </CharString>
          <CharString index="47">
            102 405 rlineto
            -39 hlineto
            return
          </CharString>
          <CharString index="48">
            405 rlineto
            -39 hlineto
            -109 -262 -107 -72 -281 -12 rrcurveto
            -202 -9 return
          </CharString>
          <CharString index="49">
            55 -14 50 -16 11 -19 -13 -55 rlinecurve
            -276 -1298 266 0 return
          </CharString>
          <CharString index="50">
            1197 rmoveto
            554 hlineto
            32 151 rlineto
            -554 hlineto
            return
          </CharString>
          <CharString index="51">
            -28 7 15 -38 hvcurveto
            -30 12 rlineto
            15 -40 -41 11 return
          </CharString>
          <CharString index="52">
            1464 rmoveto
            -225 -367 56 0 return
          </CharString>
          <CharString index="53">
            130 611 rlineto
            155 callsubr
            return
          </CharString>
          <CharString index="54">
            -281 48 0 24 callsubr
            return
          </CharString>
          <CharString index="55">
            -281 47 0 -7 callsubr
            return
          </CharString>
          <CharString index="56">
            55 52 66 62 -49 48 -64 hvcurveto
            endchar
          </CharString>
          <CharString index="57">
            -7 -39 rlineto
            2 4 19 3 10 hhcurveto
            return
          </CharString>
          <CharString index="58">
            -321 48 159 callsubr
            return
          </CharString>
          <CharString index="59">
            146 174 -146 46 0 return
          </CharString>
          <CharString index="60">
            1460 rmoveto
            34 157 return
          </CharString>
          <CharString index="61">
            -592 -208 -9 -44 rlineto
            return
          </CharString>
          <CharString index="62">
            rmoveto
            298 84 263 -84 return
          </CharString>
          <CharString index="63">
            rmoveto
            271 231 123 201 141 -91 97 -208 40 hvcurveto
            -170 32 rlineto
            -91 17 -29 31 37 vvcurveto
            37 30 33 67 14 vhcurveto
            34 -6 36 -3 39 -1 rrcurveto
            281 -1 165 163 200 vvcurveto
            82 -30 77 -65 56 vhcurveto
            234 -25 17 83 -318 -14 rlineto
            29 -58 -76 17 -94 hhcurveto
            -279 -167 -156 -202 -129 78 -114 156 -45 hvcurveto
            -175 -28 -81 -77 -97 vvcurveto
            -80 54 -63 107 -31 vhcurveto
            -211 -25 -120 -76 -109 vvcurveto
            -141 194 -87 269 vhcurveto
            -16 1045 rmoveto
            170 70 197 124 89 45 -81 -121 -172 -71 -196 -124 -89 -44 81 122 vhcurveto
            -244 -799 rmoveto
            87 59 64 119 29 vhcurveto
            166 -31 rlineto
            150 -29 50 -51 -78 vvcurveto
            -108 -115 -75 -162 -159 -108 81 111 vhcurveto
            endchar
          </CharString>
          <CharString index="64">
            740 1444 -31 callsubr
            -13 37 37 164 callsubr
            42 123 18 19 callgsubr
            return
          </CharString>
          <CharString index="65">
            rmoveto
            455 226 385 325 199 122 -130 -286 7 vhcurveto
            39 -2 64 351 rlineto
            67 -91 -180 63 -213 hhcurveto
            -468 -339 -323 -492 -4 hvcurveto
            return
          </CharString>
          <CharString index="66">
            rmoveto
            -401 -46 -9 -42 56 -86 callgsubr
            -161 -756 -57 -267 -53 -132 -178 -87 rlinecurve
            13 -39 324 86 return
          </CharString>
          <CharString index="67">
            127 597 163 callsubr
            -120 -569 rlineto
            -214 -45 86 -119 173 hhcurveto
            return
          </CharString>
          <CharString index="68">
            1068 hmoveto
            48 callsubr
            87 callsubr
            return
          </CharString>
          <CharString index="69">
            726 61 callsubr
            84 callsubr
            return
          </CharString>
          <CharString index="70">
            -56 57 -76 -79 -64 -62 -77 -72 58 -57 75 hvcurveto
            return
          </CharString>
          <CharString index="71">
            15 25 29 38 hhcurveto
            27 22 -11 -23 return
          </CharString>
          <CharString index="72">
            rmoveto
            215 11 169 146 return
          </CharString>
          <CharString index="73">
            rmoveto
            -441 -3 326 -232 339 hhcurveto
            167 193 45 83 113 hvcurveto
            88 410 18 86 23 24 108 16 rlinecurve
            9 43 -519 0 -9 -43 rlineto
            120 -17 11 -23 -18 -86 -89 -429 rcurveline
            -31 -39 -74 -17 -73 hhcurveto
            -223 -154 197 327 455 226 385 327 201 123 -130 -286 8 hvcurveto
            39 -2 63 351 rlineto
            67 -91 -181 63 -215 hhcurveto
            -469 -342 -323 -492 -3 hvcurveto
            endchar
          </CharString>
          <CharString index="74">
            -154 1200 -169 0 -652 -1173 -104 -187 -38 -32 -101 -16 rlinecurve
            -9 -43 386 0 9 43 -133 21 -17 37 92 175 rlinecurve
            120 228 441 0 28 -251 return
          </CharString>
          <CharString index="75">
            -85 -38 -84 hhcurveto
            -141 -104 104 226 hvcurveto
            4 0 3 3 vvcurveto
            59 17 rlineto
            340 98 157 91 154 vvcurveto
            126 -113 78 -178 -302 -236 -266 -341 return
          </CharString>
          <CharString index="76">
            rmoveto
            -400 hlineto
            -9 -43 107 -17 24 -56 -24 -110 rlinecurve
            -203 -925 -42 -189 -27 -42 -122 -18 rlinecurve
            -10 -44 375 0 9 44 -127 19 return
          </CharString>
          <CharString index="77">
            1299 1536 1444 rmoveto
            -1161 hlineto
            50 callsubr
            112 callsubr
            135 callsubr
            102 callsubr
            return
          </CharString>
          <CharString index="78">
            141 664 202 -5 125 -4 21 -50 -22 callgsubr
            55 -58 13 -242 rlinecurve
            39 hlineto
            return
          </CharString>
          <CharString index="79">
            -30 hvcurveto
            -27 20 rlineto
            27 -38 -37 17 -46 hhcurveto
            -80 -62 -56 -183 -23 hvcurveto
            43 hlineto
            81 return
          </CharString>
          <CharString index="80">
            1150 rmoveto
            95 73 68 223 28 hvcurveto
            -48 hlineto
            -102 -20 -30 -38 -46 hhcurveto
            -33 return
          </CharString>
          <CharString index="81">
            -94 -437 rcurveline
            -155 -39 -94 -111 -111 hhcurveto
            -98 -27 74 124 26 hvcurveto
            return
          </CharString>
          <CharString index="82">
            rmoveto
            295 99 253 -99 9 45 -212 209 -36 0 -299 -209 rlineto
            return
          </CharString>
          <CharString index="83">
            rmoveto
            295 99 252 -99 10 45 -212 209 -36 0 -299 -209 rlineto
            return
          </CharString>
          <CharString index="84">
            126 callsubr
            130 70 107 callsubr
            226 callsubr
            endchar
          </CharString>
          <CharString index="85">
            rmoveto
            -358 -84 callgsubr
            193 callsubr
            endchar
          </CharString>
          <CharString index="86">
            68 104 104 -79 60 11 callsubr
            15 25 4 return
          </CharString>
          <CharString index="87">
            1532 rmoveto
            244 146 173 -146 return
          </CharString>
          <CharString index="88">
            74 -73 callsubr
            -60 28 callsubr
            return
          </CharString>
          <CharString index="89">
            -26 hvcurveto
            -9 -39 rlineto
            -51 36 66 -36 80 hhcurveto
            endchar
          </CharString>
          <CharString index="90">
            1582 823 38 callsubr
            return
          </CharString>
          <CharString index="91">
            hvcurveto
            27 -20 rlineto
            -26 37 37 -18 47 hhcurveto
            return
          </CharString>
          <CharString index="92">
            -452 rmoveto
            141 89 73 104 105 return
          </CharString>
          <CharString index="93">
            154 141 61 292 rlinecurve
            endchar
          </CharString>
          <CharString index="94">
            61 49 49 61 hvcurveto
            58 1 -44 45 return
          </CharString>
          <CharString index="95">
            -27 -42 -13 -34 hhcurveto
            -46 -22 30 69 return
          </CharString>
          <CharString index="96">
            1849 rmoveto
            -83 -68 -38 -62 return
          </CharString>
          <CharString index="97">
            1829 -52 callgsubr
            return
          </CharString>
          <CharString index="98">
            -42 -13 -33 hhcurveto
            -47 -22 30 69 return
          </CharString>
          <CharString index="99">
            460 359 rlineto
            8 vlineto
            return
          </CharString>
          <CharString index="100">
            411 276 rlineto
            5 vlineto
            return
          </CharString>
          <CharString index="101">
            288 -275 rlineto
            41 hlineto
            return
          </CharString>
          <CharString index="102">
            11 -35 35 -53 hhcurveto
            -8 hlineto
            return
          </CharString>
          <CharString index="103">
            rmoveto
            118 -1200 158 0 587 1160 98 -1160 163 0 601 1167 102 197 43 28 100 16 rlinecurve
            9 43 -380 0 -9 -43 125 -17 12 -40 -86 -180 rlinecurve
            -422 -880 -61 905 -12 165 18 29 118 18 rlinecurve
            9 43 -548 0 -9 -43 120 -20 12 -51 -75 -158 rlinecurve
            -423 -887 -67 906 -11 148 24 45 125 17 rlinecurve
            9 43 -573 0 -10 -43 84 -14 35 -29 16 -165 rlinecurve
            endchar
          </CharString>
          <CharString index="104">
            rmoveto
            116 544 113 -1 265 -716 361 0 9 41 -58 23 -35 38 -80 213 rlinecurve
            -226 613 293 261 156 138 77 52 107 22 rlinecurve
            9 43 -412 0 -9 -43 212 callsubr
            endchar
          </CharString>
          <CharString index="105">
            111 -15 15 -22 -20 -93 rlinecurve
            -234 -1098 -20 -93 -23 -20 -117 -17 rlinecurve
            -9 -43 555 0 9 43 -110 17 -15 20 20 93 rlinecurve
            return
          </CharString>
          <CharString index="106">
            rmoveto
            151 136 72 92 62 hvcurveto
            9 46 rlineto
            149 callsubr
            -273 177 -143 209 hvcurveto
            endchar
          </CharString>
          <CharString index="107">
            rmoveto
            -221 110 -141 161 -107 callsubr
            57 vhcurveto
            -1 -6 -13 -69 -6 vvcurveto
            -134 -21 return
          </CharString>
          <CharString index="108">
            rmoveto
            73 58 55 69 hvcurveto
            66 -1 -52 51 -71 hhcurveto
            -73 -59 -55 -70 hvcurveto
            -65 1 53 -51 71 hhcurveto
            endchar
          </CharString>
          <CharString index="109">
            -94 rlinecurve
            -212 70 callgsubr
            383 148 214 167 71 334 rlinecurve
            endchar
          </CharString>
          <CharString index="110">
            rmoveto
            216 1015 20 93 23 21 117 16 rlinecurve
            10 43 -555 0 -10 -43 return
          </CharString>
          <CharString index="111">
            -448 -4 314 -225 345 4 callgsubr
          </CharString>
          <CharString index="112">
            1577 rmoveto
            79 1 63 55 22 185 rrcurveto
            return
          </CharString>
          <CharString index="113">
            1162 618 996 -92 callsubr
            return
          </CharString>
          <CharString index="114">
            68 callsubr
            -171 146 -50 0 return
          </CharString>
          <CharString index="115">
            -236 -5 hlineto
            211 -362 rlineto
            50 hlineto
            return
          </CharString>
          <CharString index="116">
            659 511 173 -90 callsubr
            return
          </CharString>
          <CharString index="117">
            -73 -37 callgsubr
            106 callgsubr
            return
          </CharString>
          <CharString index="118">
            -88 -72 -60 -29 -49 -37 hvcurveto
            -8 -36 rlineto
            5 return
          </CharString>
          <CharString index="119">
            hvcurveto
            -8 -39 rlineto
            -51 35 66 -36 80 hhcurveto
            endchar
          </CharString>
          <CharString index="120">
            674 436 -17 98 callsubr
            return
          </CharString>
          <CharString index="121">
            -43 hlineto
            -94 -18 -78 -57 -137 hhcurveto
            -107 return
          </CharString>
          <CharString index="122">
            174 343 -104 callsubr
            return
          </CharString>
          <CharString index="123">
            56 0 459 359 rlineto
            8 vlineto
            return
          </CharString>
          <CharString index="124">
            -62 -50 -49 -61 -57 44 -46 59 hvcurveto
            return
          </CharString>
          <CharString index="125">
            rmoveto
            142 91 68 104 104 -78 60 return
          </CharString>
          <CharString index="126">
            1811 rmoveto
            -244 -6 hlineto
            return
          </CharString>
          <CharString index="127">
            1473 rmoveto
            -95 -77 -44 -77 return
          </CharString>
          <CharString index="128">
            50 69 49 hvcurveto
            9 45 rlineto
            -25 return
          </CharString>
          <CharString index="129">
            49 -49 63 -104 callgsubr
          </CharString>
          <CharString index="130">
            8 38 -225 177 -37 0 return
          </CharString>
          <CharString index="131">
            410 276 rlineto
            5 vlineto
            return
          </CharString>
          <CharString index="132">
            55 69 -1 hvcurveto
            66 -53 51 return
          </CharString>
          <CharString index="133">
            50 49 61 58 -44 45 -58 return
          </CharString>
          <CharString index="134">
            -53 -49 -35 -47 -11 hvcurveto
            -48 return
          </CharString>
          <CharString index="135">
            -58 -73 -67 54 -54 71 hvcurveto
            return
          </CharString>
          <CharString index="136">
            rmoveto
            -151 -185 -52 -34 -105 -17 rrcurveto
            -9 -43 392 0 9 43 -129 22 -1 38 122 164 rlinecurve
            282 373 155 -424 40 -107 -12 -42 -123 -23 rlinecurve
            -9 -43 577 0 9 43 -80 25 -31 27 -49 136 rlinecurve
            -197 538 328 398 149 182 51 34 105 17 rlinecurve
            10 43 -392 0 -9 -43 129 -22 1 -38 -122 -164 rlinecurve
            -269 -356 -149 408 -43 115 18 36 120 21 rlinecurve
            9 43 -582 0 -9 -43 rlineto
            87 -23 30 -29 49 -136 190 -522 rcurveline
            endchar
          </CharString>
          <CharString index="137">
            336 hlineto
            8 41 rlineto
            -61 21 -35 46 -72 199 -138 390 rcurveline
            212 56 153 122 207 vvcurveto
            228 -189 134 -357 vhcurveto
            -520 hlineto
            -9 -43 111 -16 15 -20 -19 -93 rlinecurve
            -235 -1100 -19 -93 -23 -20 -118 -16 rlinecurve
            -10 -43 551 0 9 43 rlineto
            -105 16 -14 20 20 94 102 485 rcurveline
            117 hlineto
            21 20 1 1 20 hvcurveto
            338 428 rmoveto
            -219 -149 -147 -266 -11 vhcurveto
            -90 -3 146 685 82 -3 rlineto
            176 -7 101 -115 -180 vvcurveto
            return
          </CharString>
          <CharString index="138">
            rmoveto
            -460 -99 258 -179 310 hhcurveto
            339 204 223 343 76 hvcurveto
            193 872 rlineto
            -4 20 24 -2 25 hhcurveto
            147 1 103 71 121 vvcurveto
            87 -55 74 -76 32 vhcurveto
            -41 hlineto
            9 -16 4 -28 -29 vvcurveto
            -157 -112 -122 -203 vhcurveto
            -66 hlineto
            -9 -43 rlineto
            126 -22 10 -37 -33 -163 -128 -626 rcurveline
            -299 -61 -173 -170 123 callsubr
            -5 callgsubr
            endchar
          </CharString>
          <CharString index="139">
            9 43 rlineto
            -127 15 -17 27 18 88 87 405 rcurveline
            138 hlineto
            379 318 147 316 229 -167 174 -394 hvcurveto
            -515 hlineto
            -9 -43 rlineto
            111 -16 16 -22 -20 -92 -233 -1098 rcurveline
            -21 -92 -23 -22 -119 -16 -9 -43 rcurveline
            720 1393 rmoveto
            77 -2 rlineto
            190 -9 96 -126 -184 vvcurveto
            -258 -165 -172 -271 -11 vhcurveto
            -89 -3 rlineto
            endchar
          </CharString>
          <CharString index="140">
            rmoveto
            -427 hlineto
            -9 -43 105 -19 21 -41 -30 -120 rlinecurve
            -230 -937 -45 -180 -30 -41 -123 -20 rlinecurve
            -9 -43 375 0 9 43 -125 20 -11 38 41 183 rlinecurve
            211 966 181 -1250 131 0 171 331 515 935 -197 -1097 -16 -88 -25 -20 -119 -18 rlinecurve
            -9 -43 554 0 9 43 -19 callgsubr
            endchar
          </CharString>
          <CharString index="141">
            14 hvcurveto
            166 775 -149 0 -120 -104 rlineto
            61 -22 -74 61 -133 hhcurveto
            -307 -203 -312 -347 hvcurveto
            273 -28 rmoveto
            255 1 101 351 206 hhcurveto
            70 47 -36 -44 13 hvcurveto
            66 callsubr
            -85 hhcurveto
            -78 -45 61 157 hvcurveto
            return
          </CharString>
          <CharString index="142">
            rmoveto
            -402 -46 -8 -42 56 -14 rlineto
            48 -15 10 -20 -11 -55 -101 -476 rcurveline
            -217 -45 79 -129 192 hhcurveto
            156 143 105 191 69 hvcurveto
            -1 -7 -17 -80 -6 vvcurveto
            -134 -21 55 -63 191 callsubr
            endchar
          </CharString>
          <CharString index="143">
            -114 -267 -124 -66 -305 -13 rrcurveto
            -237 -9 1000 1353 8 41 -1006 0 -93 -371 rlineto
            39 hlineto
            108 231 89 65 269 13 rrcurveto
            252 12 -999 -1353 -8 -41 rlineto
            return
          </CharString>
          <CharString index="144">
            -13 37 37 164 callsubr
            42 123 18 19 callgsubr
            endchar
          </CharString>
          <CharString index="145">
            rmoveto
            383 -291 238 -444 vhcurveto
            -488 -81 callgsubr
            -20 -20 -93 -234 -1098 rcurveline
            -20 -93 73 callsubr
            507 hlineto
            576 447 322 501 hvcurveto
            return
          </CharString>
          <CharString index="146">
            -270 175 -144 206 vhcurveto
            149 966 rmoveto
            66 26 -40 -69 -142 -111 -134 -185 -60 hvcurveto
            -51 -16 rlineto
            236 14 96 225 145 hhcurveto
            return
          </CharString>
          <CharString index="147">
            1134 173 343 0 callsubr
            63 callsubr
            50 hvcurveto
            9 45 rlineto
            -25 -28 -9 callsubr
            156 callsubr
            return
          </CharString>
          <CharString index="148">
            15 -146 -30 -46 -130 -17 rlinecurve
            -9 -44 586 0 -36 callgsubr
            -738 315 rmoveto
            333 635 70 -635 rlineto
            return
          </CharString>
          <CharString index="149">
            -584 rcurveline
            -163 -34 57 -72 125 hhcurveto
            107 107 50 69 51 hvcurveto
            8 45 rlineto
            -25 -12 callsubr
            15 hvcurveto
            return
          </CharString>
          <CharString index="150">
            rmoveto
            74 58 25 callsubr
            -70 -74 -59 -33 callgsubr
          </CharString>
          <CharString index="151">
            267 2 96 365 183 hhcurveto
            99 54 -90 -185 -1 hvcurveto
            -266 -2 -96 -366 -183 hhcurveto
            return
          </CharString>
          <CharString index="152">
            rmoveto
            255 177 171 -177 47 0 -121 330 -145 0 -258 -330 rlineto
            endchar
          </CharString>
          <CharString index="153">
            1131 rmoveto
            194 111 141 204 8 hvcurveto
            -47 hlineto
            -107 -21 0 callgsubr
            return
          </CharString>
          <CharString index="154">
            rmoveto
            -390 -1 261 -260 384 hhcurveto
            71 callsubr
            186 callsubr
            endchar
          </CharString>
          <CharString index="155">
            109 431 rlineto
            -40 hlineto
            -113 -268 -119 -93 -240 -12 rrcurveto
            -178 -8 return
          </CharString>
          <CharString index="156">
            1280 rmoveto
            -111 110 -65 126 169 110 84 115 111 return
          </CharString>
          <CharString index="157">
            -92 -371 rlineto
            40 hlineto
            94 223 90 78 248 17 rrcurveto
            46 3 return
          </CharString>
          <CharString index="158">
            -5 hlineto
            286 -362 rlineto
            53 hlineto
            273 367 rmoveto
            return
          </CharString>
          <CharString index="159">
            1573 rmoveto
            177 99 124 178 5 hvcurveto
            return
          </CharString>
          <CharString index="160">
            217 47 -90 111 -181 -29 callgsubr
            return
          </CharString>
          <CharString index="161">
            49 -49 64 67 54 52 66 62 -49 48 -63 hvcurveto
            endchar
          </CharString>
          <CharString index="162">
            hlineto
            -61 -19 -101 -40 -127 hhcurveto
            -126 -85 40 61 return
          </CharString>
          <CharString index="163">
            rmoveto
            70 callsubr
            196 callsubr
            endchar
          </CharString>
          <CharString index="164">
            -57 -111 -22 hvcurveto
            50 hlineto
            48 11 32 19 return
          </CharString>
          <CharString index="165">
            1592 rmoveto
            -82 -67 -40 -46 -42 hvcurveto
            return
          </CharString>
          <CharString index="166">
            56 53 41 56 12 hvcurveto
            56 12 -35 41 return
          </CharString>
          <CharString index="167">
            rmoveto
            561 hlineto
            22 103 rlineto
            -561 hlineto
            return
          </CharString>
          <CharString index="168">
            1482 rmoveto
            -400 -38 -9 -42 return
          </CharString>
          <CharString index="169">
            146 -49 0 129 callsubr
            return
          </CharString>
          <CharString index="170">
            56 -63 110 hhcurveto
            107 107 50 69 return
          </CharString>
          <CharString index="171">
            17 rlinecurve
            9 43 -553 0 -9 -43 return
          </CharString>
          <CharString index="172">
            -31 53 129 252 80 245 return
          </CharString>
          <CharString index="173">
            -103 -486 rlineto
            -163 -41 -86 -95 return
          </CharString>
          <CharString index="174">
            rmoveto
            222 -110 140 -161 return
          </CharString>
          <CharString index="175">
            1829 rmoveto
            -241 -146 return
          </CharString>
          <CharString index="176">
            1464 rmoveto
            -224 -367 return
          </CharString>
          <CharString index="177">
            -258 167 -186 252 return
          </CharString>
          <CharString index="178">
            460 322 376 457 return
          </CharString>
          <CharString index="179">
            24 hhcurveto
            53 138 callsubr
            return
          </CharString>
          <CharString index="180">
            -22 -20 -118 -17 -9 -43 rcurveline
            return
          </CharString>
          <CharString index="181">
            -54 -53 -66 -61 49 -49 64 hvcurveto
            return
          </CharString>
          <CharString index="182">
            -64 -62 -77 -72 57 -57 75 hvcurveto
            return
          </CharString>
          <CharString index="183">
            rmoveto
            -70 51 -54 75 84 58 53 188 101 vhcurveto
            75 136 43 -134 rlineto
            -167 53 61 -75 121 hhcurveto
            103 81 52 70 38 hvcurveto
            9 45 rlineto
            -23 -21 -32 -14 -32 hhcurveto
            -51 -39 36 123 -39 hvcurveto
            -94 295 98 163 33 57 28 42 24 31 rlinecurve
            -62 7 51 -47 64 hhcurveto
            70 55 56 71 70 -51 54 -74 -85 -60 -54 -187 -98 hvcurveto
            -78 -143 -119 377 -338 -46 -8 -42 51 -10 53 -13 15 -17 19 -60 rlinecurve
            126 -395 -96 -158 -33 -57 -28 -42 -24 -31 rlinecurve
            62 -7 -50 47 -65 hhcurveto
            -70 -55 -56 -71 hvcurveto
            endchar
          </CharString>
          <CharString index="184">
            rmoveto
            296 250 166 278 156 -73 120 -171 120 hvcurveto
            -109 81 rlineto
            -127 90 -49 77 101 vvcurveto
            143 105 94 160 182 110 -136 -263 9 vhcurveto
            39 hlineto
            55 349 rlineto
            61 -76 -147 51 -187 hhcurveto
            -319 -205 -170 -253 -157 80 -114 162 -114 hvcurveto
            110 -81 rlineto
            130 -91 46 -84 -111 vvcurveto
            -160 -129 -92 -157 -186 -148 120 278 -1 vhcurveto
            -39 hlineto
            -58 -357 rlineto
            -57 87 187 -45 173 hhcurveto
            return
          </CharString>
          <CharString index="185">
            rmoveto
            272 245 245 390 71 hvcurveto
            246 43 -79 140 -138 hhcurveto
            -99 -72 -91 -123 11 hvcurveto
            165 -34 61 -138 -35 -183 rrcurveto
            -203 -39 -107 -127 -152 hhcurveto
            -136 -53 89 160 33 hvcurveto
            13 61 64 266 11 50 rrcurveto
            187 39 -65 79 -154 hhcurveto
            -88 -84 -29 -38 -48 hvcurveto
            -9 -42 rlineto
            10 17 19 4 21 hhcurveto
            68 31 -42 -118 -25 hvcurveto
            -14 -67 -66 -281 -12 -57 rrcurveto
            -213 -45 95 -141 241 hhcurveto
            endchar
          </CharString>
          <CharString index="186">
            rmoveto
            -172 -803 266 0 131 609 rlineto
            160 38 99 118 103 hhcurveto
            89 27 -74 -106 -22 hvcurveto
            -151 -707 265 0 129 605 rlineto
            162 39 97 120 104 hhcurveto
            88 28 -74 -110 -23 hvcurveto
            -104 -484 rlineto
            -163 -35 57 -72 126 hhcurveto
            106 109 21 callsubr
            -27 -43 -13 -33 hhcurveto
            -47 -22 30 69 15 hvcurveto
            215 callsubr
            endchar
          </CharString>
          <CharString index="187">
            rmoveto
            -54 64 126 -42 131 hhcurveto
            245 164 133 182 hvcurveto
            1 122 -53 83 -115 78 -84 58 rcurveline
            -82 55 -34 49 69 vvcurveto
            83 53 54 100 141 63 -125 -150 1 vhcurveto
            39 hlineto
            50 255 rlineto
            41 -58 -104 34 -132 hhcurveto
            -244 -150 -121 -178 -113 59 -86 113 -76 hvcurveto
            83 -57 rlineto
            85 -59 28 -53 -74 vvcurveto
            -96 -72 -52 -97 -135 -98 106 199 -2 vhcurveto
            -38 hlineto
            return
          </CharString>
          <CharString index="188">
            1651 934 -23 rmoveto
            418 350 334 474 372 -291 311 -387 -427 -341 -334 -474 -373 282 -310 396 hvcurveto
            -1 41 rmoveto
            -365 -264 294 348 450 325 317 395 356 274 -294 -348 -451 -334 -316 -387 hvcurveto
            return
          </CharString>
          <CharString index="189">
            rmoveto
            173 -142 141 -269 18 vhcurveto
            233 16 248 90 1 234 rrcurveto
            197 2 -187 129 -361 hhcurveto
            -510 -81 callgsubr
            -19 -20 -94 -234 -1098 rcurveline
            -20 -93 73 callsubr
            198 callsubr
            endchar
          </CharString>
          <CharString index="190">
            rmoveto
            -138 -703 rlineto
            -195 -39 75 -105 170 hhcurveto
            131 112 70 68 63 hvcurveto
            9 42 rlineto
            -32 -37 -57 -10 -50 hhcurveto
            -97 -48 51 148 34 hvcurveto
            27 113 105 425 35 128 rrcurveto
            endchar
          </CharString>
          <CharString index="191">
            56 -14 rlineto
            -103 callsubr
            -230 -1079 rcurveline
            -163 -35 57 -72 125 hhcurveto
            107 108 50 69 50 hvcurveto
            8 45 rlineto
            -25 -27 -9 callsubr
            14 hvcurveto
            return
          </CharString>
          <CharString index="192">
            rmoveto
            171 133 79 126 20 hvcurveto
            -49 hlineto
            -52 -18 -102 -34 -130 hhcurveto
            -130 -87 34 52 5 hvcurveto
            -50 hlineto
            -126 -34 100 -79 171 hhcurveto
            235 -1289 -97 callsubr
          </CharString>
          <CharString index="193">
            1464 772 -22 rmoveto
            340 201 222 344 78 hvcurveto
            141 620 41 179 23 38 124 20 rlinecurve
            9 43 -372 0 -9 -43 rlineto
            204 callsubr
            return
          </CharString>
          <CharString index="194">
            259 1221 20 93 24 20 122 17 rlinecurve
            9 43 -560 0 -9 -43 rlineto
            109 -16 15 -25 -22 -105 -231 -1082 rcurveline
            -19 -92 -22 -21 -119 -17 -9 -43 rcurveline
            return
          </CharString>
          <CharString index="195">
            rmoveto
            55 53 41 55 -88 callgsubr
            65 callgsubr
            11 hvcurveto
            57 13 -35 41 -56 hhcurveto
            119 callsubr
            endchar
          </CharString>
          <CharString index="196">
            692 1445 rmoveto
            -61 hlineto
            -248 -95 -6 -31 107 18 5 1 3 -3 -1 -5 rlinecurve
            -110 -519 -11 -53 -64 callgsubr
            -21 13 12 53 rlinecurve
            return
          </CharString>
          <CharString index="197">
            rmoveto
            171 134 79 126 19 hvcurveto
            -49 hlineto
            -52 -17 -103 -34 -130 hhcurveto
            -129 -88 34 52 5 hvcurveto
            -50 hlineto
            -126 -34 101 -79 170 hhcurveto
            endchar
          </CharString>
          <CharString index="198">
            1462 rmoveto
            -93 -370 63 0 274 364 rlineto
            6 vlineto
            -505 -329 rmoveto
            52 callgsubr
            566 hmoveto
            52 callgsubr
            return
          </CharString>
          <CharString index="199">
            -44 hvcurveto
            -9 -39 rlineto
            26 31 43 16 48 hhcurveto
            69 38 -32 -52 -57 -53 -59 -102 -54 hvcurveto
            54 hlineto
            182 53 91 76 96 vvcurveto
            86 -72 61 return
          </CharString>
          <CharString index="200">
            557 693 57 callgsubr
            -179 hhcurveto
            -244 -116 -236 -202 -1 hvcurveto
            -169 -2 88 -157 175 hhcurveto
            return
          </CharString>
          <CharString index="201">
            hhcurveto
            -61 -50 -49 -61 -57 44 -46 59 hvcurveto
            310 hmoveto
            61 26 callsubr
            -61 -50 -49 -61 -1 hvcurveto
            -57 45 -46 58 vhcurveto
            return
          </CharString>
          <CharString index="202">
            rmoveto
            100 75 137 callsubr
            -48 hhcurveto
            -29 -29 7 12 -39 hvcurveto
            -31 -93 callgsubr
            -77 57 callsubr
            49 hhcurveto
            return
          </CharString>
          <CharString index="203">
            rmoveto
            167 133 93 148 25 hvcurveto
            -48 55 callsubr
            6 hvcurveto
            -47 hlineto
            -148 -39 94 -93 167 hhcurveto
            endchar
          </CharString>
          <CharString index="204">
            -47 hhcurveto
            -97 -77 -31 callgsubr
            23 48 hhcurveto
            28 28 -9 -14 37 hvcurveto
            30 -11 rlineto
            -15 41 40 -12 return
          </CharString>
          <CharString index="205">
            rmoveto
            114 114 51 84 50 hvcurveto
            8 45 rlineto
            -33 -31 -48 -22 -57 hhcurveto
            -89 -40 58 133 28 hvcurveto
            return
          </CharString>
          <CharString index="206">
            1174 628 995 rmoveto
            -67 callsubr
            -72 callsubr
            147 callsubr
            return
          </CharString>
          <CharString index="207">
            hvcurveto
            -55 -11 34 -100 callgsubr
            -88 callgsubr
            -9 hlineto
            -55 -54 -41 -57 -12 hvcurveto
            -55 return
          </CharString>
          <CharString index="208">
            1558 rmoveto
            67 53 53 64 63 -48 49 -64 -67 -55 -53 -66 -61 49 -49 65 hvcurveto
            return
          </CharString>
          <CharString index="209">
            89 rlinecurve
            260 1223 45 -3 235 -16 62 -68 3 -234 rlinecurve
            40 hlineto
            return
          </CharString>
          <CharString index="210">
            -46 -50 -91 -47 hvcurveto
            47 hlineto
            158 45 80 65 81 vvcurveto
            73 -63 51 -92 vhcurveto
            return
          </CharString>
          <CharString index="211">
            1454 rmoveto
            -194 -111 -141 -205 -7 hvcurveto
            46 hlineto
            108 return
          </CharString>
          <CharString index="212">
            -47 hhcurveto
            -96 -78 -66 -131 -26 hvcurveto
            48 hlineto
            56 13 32 22 48 hhcurveto
            28 return
          </CharString>
          <CharString index="213">
            rmoveto
            254 128 callsubr
            -144 0 -259 -330 rlineto
            endchar
          </CharString>
          <CharString index="214">
            -24 93 hhcurveto
            135 131 87 184 89 hvcurveto
            -30 25 rlineto
            -77 return
          </CharString>
          <CharString index="215">
            rmoveto
            88 68 61 200 25 hvcurveto
            -45 hlineto
            -91 -18 -28 -34 -43 hhcurveto
            return
          </CharString>
          <CharString index="216">
            hlineto
            -56 -54 -41 -56 -11 hvcurveto
            -56 -12 35 -41 56 hhcurveto
            332 hmoveto
            return
          </CharString>
          <CharString index="217">
            1462 rmoveto
            -269 -7 hlineto
            305 -360 rlineto
            50 hlineto
            return
          </CharString>
          <CharString index="218">
            1462 rmoveto
            -268 -7 hlineto
            305 -360 rlineto
            49 hlineto
            return
          </CharString>
          <CharString index="219">
            -260 -1223 -19 -89 -26 -22 -136 -17 rlinecurve
            -9 -43 return
          </CharString>
          <CharString index="220">
            310 hmoveto
            62 49 49 61 58 -44 45 -58 -61 -50 -49 -61 return
          </CharString>
          <CharString index="221">
            0 583 -47 callsubr
            -591 -208 -9 -44 rlineto
            return
          </CharString>
          <CharString index="222">
            rmoveto
            461 322 377 457 391 -260 260 return
          </CharString>
          <CharString index="223">
            1410 rmoveto
            547 hlineto
            26 120 rlineto
            -547 hlineto
            return
          </CharString>
          <CharString index="224">
            -168 185 -251 -343 -212 -265 -312 return
          </CharString>
          <CharString index="225">
            7 38 -224 177 -37 0 -299 -177 rlineto
            endchar
          </CharString>
          <CharString index="226">
            -9 hlineto
            -55 -54 -41 -57 -12 hvcurveto
            -55 -12 36 -41 56 hhcurveto
            return
          </CharString>
          <CharString index="227">
            -25 15 28 -37 hvcurveto
            -33 25 -72 callgsubr
            100 20 return
          </CharString>
          <CharString index="228">
            rmoveto
            -119 -370 66 0 310 364 rlineto
            6 vlineto
            return
          </CharString>
          <CharString index="229">
            1876 rmoveto
            -177 -99 -125 -178 -5 hvcurveto
            return
          </CharString>
          <CharString index="230">
            -223 hhcurveto
            -221 -143 146 356 76 hvcurveto
            return
          </CharString>
          <CharString index="231">
            48 -49 64 67 55 52 66 62 -49 48 -63 hvcurveto
            endchar
          </CharString>
          <CharString index="232">
            13 25 -34 hvcurveto
            -31 23 rlineto
            30 -42 -40 20 -52 hhcurveto
            return
          </CharString>
          <CharString index="233">
            rmoveto
            52 -51 114 151 1 0 57 -38 rlineto
            -88 return
          </CharString>
          <CharString index="234">
            553 0 10 43 -106 16 -17 21 20 93 rlinecurve
            return
          </CharString>
          <CharString index="235">
            177 171 -177 48 0 -122 330 return
          </CharString>
          <CharString index="236">
            127 -279 145 0 241 279 rlineto
            return
          </CharString>
          <CharString index="237">
            1 63 55 22 185 rrcurveto
            -43 hlineto
            -81 -16 -24 return
          </CharString>
          <CharString index="238">
            -43 hlineto
            -81 -16 -24 -30 -38 hhcurveto
            -27 -22 11 22 return
          </CharString>
          <CharString index="239">
            1462 rmoveto
            -246 51 callsubr
            return
          </CharString>
          <CharString index="240">
            1144 rmoveto
            160 143 88 190 return
          </CharString>
          <CharString index="241">
            -381 -462 -321 -376 -457 -2 return
          </CharString>
          <CharString index="242">
            598 0 9 43 -130 18 -17 21 19 return
          </CharString>
          <CharString index="243">
            249 -275 rlineto
            42 -80 callgsubr
            return
          </CharString>
          <CharString index="244">
            57 111 23 hvcurveto
            -49 hlineto
            -48 -11 -33 -19 return
          </CharString>
          <CharString index="245">
            41 -25 -47 -48 -42 -27 -63 -49 -40 20 22 return
          </CharString>
          <CharString index="246">
            -83 -6 vvcurveto
            -134 -20 55 -63 112 hhcurveto
            return
          </CharString>
          <CharString index="247">
            -84 -115 vhcurveto
            167 -34 rmoveto
            98 50 89 return
          </CharString>
          <CharString index="248">
            rmoveto
            548 hlineto
            25 121 rlineto
            -547 hlineto
            return
          </CharString>
          <CharString index="249">
            rmoveto
            527 -95 9 44 -502 208 rlineto
            return
          </CharString>
          <CharString index="250">
            rmoveto
            -67 55 -51 67 68 56 53 66 59 -42 47 -54 10 vhcurveto
            22 42 53 14 58 hhcurveto
            197 38 -151 -172 -28 hvcurveto
            -11 -67 -164 -19 rlineto
            -311 -36 -151 -109 -177 vvcurveto
            -129 108 -93 162 160 126 87 233 51 vhcurveto
            -211 26 158 -110 178 hhcurveto
            152 128 69 93 67 hvcurveto
            9 46 rlineto
            -50 -49 -78 -42 -89 hhcurveto
            -168 -79 133 219 17 0 16 1 16 hvcurveto
            64 5 375 35 131 106 2 142 rlinecurve
            142 2 -134 75 -170 hhcurveto
            -124 -117 -48 -92 -96 hvcurveto
            92 -60 -104 48 -143 hhcurveto
            -212 -150 -96 -125 hvcurveto
            999 165 rmoveto
            80 27 -71 -73 -4 hvcurveto
            -5 -110 -73 -119 -228 -25 -56 -6 rcurveline
            221 23 102 183 134 hhcurveto
            -866 -707 rmoveto
            121 87 100 188 27 vhcurveto
            83 11 -17 -105 rlineto
            -202 -37 -81 -91 -98 hhcurveto
            -72 -53 46 93 hvcurveto
            endchar
          </CharString>
          <CharString index="251">
            rmoveto
            -955 hlineto
            -822 -1177 -125 -178 -47 -30 -101 -16 rlinecurve
            -9 -43 394 0 9 43 -134 20 -8 41 110 162 rlinecurve
            244 363 420 0 -89 -447 -20 -101 -17 -21 -139 -17 rlinecurve
            -9 -43 1066 0 103 405 rlineto
            -38 hlineto
            -107 -255 -107 -78 -268 -13 rrcurveto
            -202 -9 129 662 190 -4 123 -5 22 -49 -3 -159 rlinecurve
            38 hlineto
            96 474 rlineto
            -37 hlineto
            -58 -150 -43 -44 -125 -5 rrcurveto
            -192 -4 123 628 183 -10 249 -12 43 -58 15 -241 rlinecurve
            38 hlineto
            -873 316 rmoveto
            61 hlineto
            -140 -697 rlineto
            -390 hlineto
            endchar
          </CharString>
          <CharString index="252">
            rmoveto
            102 76 51 69 37 hvcurveto
            9 45 rlineto
            -22 -20 -27 -13 -29 hhcurveto
            -50 -37 40 135 -47 hvcurveto
            -131 386 130 103 151 115 71 34 94 20 rlinecurve
            8 37 -398 0 -7 -37 119 -15 12 -37 -112 -97 rlinecurve
            -354 -306 211 990 -400 -38 -9 -42 -58 callsubr
            93 435 89 71 86 -260 rlineto
            -177 55 67 -85 118 hhcurveto
            return
          </CharString>
          <CharString index="253">
            59 269 -396 -46 -9 -42 55 -14 50 -16 10 -19 -12 -55 rlinecurve
            87 callgsubr
            538 0 9 18 callgsubr
            204 93 callgsubr
            -207 -69 -48 36 44 -13 vhcurveto
            104 487 rlineto
            163 40 86 95 86 hhcurveto
            77 45 -62 -156 hvcurveto
            endchar
          </CharString>
          <CharString index="254">
            129 607 rlineto
            162 40 104 118 109 hhcurveto
            95 29 -69 -115 -25 hvcurveto
            -102 59 callgsubr
            49 hvcurveto
            9 45 rlineto
            -25 -26 -44 -13 -33 hhcurveto
            -46 -22 30 69 15 hvcurveto
            99 465 rlineto
            216 47 -91 112 -181 hhcurveto
            -164 -141 -106 -196 -69 hvcurveto
            return
          </CharString>
          <CharString index="255">
            1358 513 173 rmoveto
            116 544 113 -1 265 -716 361 0 9 41 -58 23 -35 38 -80 213 rlinecurve
            -226 613 293 261 156 138 77 52 107 22 rlinecurve
            9 43 -412 0 -9 -43 212 callsubr
            return
          </CharString>
          <CharString index="256">
            -55 -52 -88 -38 -81 hhcurveto
            -144 -104 109 218 265 117 247 199 46 40 -14 -23 31 hvcurveto
            -4 -4 0 -4 hhcurveto
            -69 -56 -54 -68 -69 54 -54 69 71 57 55 73 120 -101 100 -186 -1 hvcurveto
            -300 -235 -253 -352 return
          </CharString>
          <CharString index="257">
            rmoveto
            -393 -46 -9 -42 55 -14 50 -16 10 -19 -12 -55 rlinecurve
            -171 -803 266 0 132 638 rlineto
            91 59 110 65 116 hhcurveto
            42 33 -7 -8 21 hvcurveto
            12 19 13 37 40 vvcurveto
            72 -33 50 -70 -93 -72 -83 -236 -133 vhcurveto
            return
          </CharString>
          <CharString index="258">
            -209 -693 rmoveto
            76 hlineto
            1240 1444 rlineto
            -76 hlineto
            -1031 -709 rmoveto
            37 callgsubr
            794 -748 rmoveto
            -78 callgsubr
            72 callgsubr
            -2 88 -157 175 hhcurveto
            return
          </CharString>
          <CharString index="259">
            15 hvcurveto
            270 1273 -399 -38 -9 -42 55 -14 rlineto
            -103 callsubr
            -84 -398 rcurveline
            52 -25 -69 50 -120 hhcurveto
            -307 -204 -312 -347 hvcurveto
            return
          </CharString>
          <CharString index="260">
            hvcurveto
            -391 -1 261 -261 383 hhcurveto
            -23 62 rmoveto
            -192 -122 158 309 411 197 483 304 191 123 -157 -310 -89 callgsubr
            hvcurveto
            return
          </CharString>
          <CharString index="261">
            rmoveto
            171 109 75 94 70 hvcurveto
            10 46 rlineto
            -72 -71 -100 -38 -108 hhcurveto
            -105 -72 50 84 88 41 53 133 53 hvcurveto
            57 24 rlineto
            167 63 110 77 170 vvcurveto
            164 return
          </CharString>
          <CharString index="262">
            166 42 112 110 99 hhcurveto
            95 30 -69 -115 -25 hvcurveto
            -103 59 callgsubr
            50 hvcurveto
            9 45 rlineto
            -25 -27 -42 -13 -34 hhcurveto
            -47 -22 30 69 15 hvcurveto
            99 465 rlineto
            return
          </CharString>
          <CharString index="263">
            152 callsubr
            274 -28 228 callsubr
            66 callsubr
            -86 hhcurveto
            -77 -45 61 157 hvcurveto
            return
          </CharString>
          <CharString index="264">
            12 52 -261 0 41 185 -271 -20 -35 -165 -146 0 -11 -52 146 0 -263 -1238 266 0 130 611 rlineto
            return
          </CharString>
          <CharString index="265">
            -137 hhcurveto
            -58 -47 16 27 -34 hvcurveto
            -2 8 8 -1 8 hhcurveto
            62 52 54 66 71 -54 51 -67 -76 -51 -58 -74 -118 97 -83 144 hvcurveto
            return
          </CharString>
          <CharString index="266">
            rmoveto
            -391 -225 -405 -471 -21 vhcurveto
            -80 -4 285 1344 71 -4 rlineto
            285 -15 135 -222 -282 vvcurveto
            return
          </CharString>
          <CharString index="267">
            -48 hhcurveto
            -96 -77 -31 callgsubr
            22 48 hhcurveto
            28 28 -7 -15 37 hvcurveto
            30 -11 rlineto
            -15 40 41 -12 48 hhcurveto
            endchar
          </CharString>
          <CharString index="268">
            192 vvcurveto
            110 -63 68 -89 -95 -59 -82 -95 -4 vhcurveto
            81 -14 55 -42 -77 vvcurveto
            -95 -93 -69 -107 -11 vhcurveto
            return
          </CharString>
          <CharString index="269">
            -10 hvcurveto
            -47 -11 35 -35 53 hhcurveto
            316 hmoveto
            52 50 -76 callgsubr
            -11 hvcurveto
            -47 -9 34 -35 53 hhcurveto
            return
          </CharString>
          <CharString index="270">
            240 -11 17 79 -245 -15 51 247 -276 -40 -41 -199 -131 -32 -8 -40 123 0 return
          </CharString>
          <CharString index="271">
            194 rlinecurve
            184 943 571 -1237 169 0 255 1161 40 180 25 return
          </CharString>
          <CharString index="272">
            -110 65 -126 -168 -111 140 callsubr
            61 45 25 -34 -63 -98 -49 -88 return
          </CharString>
          <CharString index="273">
            454 1271 rmoveto
            -234 -1098 rlineto
            -20 -95 -24 -19 -116 -16 -9 -43 rcurveline
            return
          </CharString>
          <CharString index="274">
            18 27 34 44 hhcurveto
            29 25 -13 -26 34 hvcurveto
            31 -22 rlineto
            -30 41 41 -20 51 hhcurveto
            endchar
          </CharString>
          <CharString index="275">
            0 -9 -2 -7 hvcurveto
            43 hlineto
            11 28 6 32 31 vvcurveto
            118 -1 -91 94 -141 hhcurveto
            return
          </CharString>
          <CharString index="276">
            hvcurveto
            -33 25 -72 callgsubr
            100 20 -101 callgsubr
            -94 callgsubr
            return
          </CharString>
          <CharString index="277">
            161 107 0 24 114 -108 0 99 464 -95 0 -512 -531 return
          </CharString>
          <CharString index="278">
            43 rmoveto
            -54 65 callsubr
            -105 callgsubr
            -1 -79 -236 -104 hhcurveto
            return
          </CharString>
          <CharString index="279">
            43 hlineto
            94 18 78 57 137 hhcurveto
            107 73 -52 -74 -9 168 callsubr
            return
          </CharString>
          <CharString index="280">
            34 43 hhcurveto
            30 24 -13 -26 35 hvcurveto
            30 -22 rlineto
            -30 42 41 -20 51 hhcurveto
            endchar
          </CharString>
          <CharString index="281">
            31 -28 -42 -9 hvcurveto
            -9 -42 -39 -30 -71 -18 rrcurveto
            32 -28 138 25 78 44 return
          </CharString>
          <CharString index="282">
            182 -196 52 0 -129 367 -155 0 -280 -367 rlineto
            return
          </CharString>
          <CharString index="283">
            -36 rlineto
            16 24 43 13 44 hhcurveto
            62 31 -28 -42 -9 hvcurveto
            -9 -42 -39 -30 return
          </CharString>
          <CharString index="284">
            1500 rmoveto
            -120 -370 66 0 311 364 rlineto
            6 vlineto
            return
          </CharString>
          <CharString index="285">
            1129 1165 640 67 callsubr
            192 callsubr
            return
          </CharString>
          <CharString index="286">
            174 -51 149 -92 110 hvcurveto
            163 161 -39 38 -160 -158 rlineto
            113 -113 -160 64 -190 hhcurveto
            -462 -321 -376 -457 -1 hvcurveto
            -175 52 -148 91 -111 vhcurveto
            -161 -160 38 -38 160 158 rlineto
            -113 113 160 -64 191 hhcurveto
            -337 528 rmoveto
            411 197 483 303 143 105 -87 -175 43 vhcurveto
            -782 -772 rlineto
            -6 43 -3 46 51 vvcurveto
            313 -467 rmoveto
            -143 -105 88 175 -43 hvcurveto
            782 772 rlineto
            6 -43 4 -47 -51 vvcurveto
            -89 callgsubr
            vhcurveto
            endchar
          </CharString>
          <CharString index="287">
            rmoveto
            -256 -28 123 -166 213 hhcurveto
            152 114 105 163 62 hvcurveto
            -167 115 -101 163 283 194 274 327 30 vhcurveto
            265 26 -107 155 -142 hhcurveto
            -103 -68 -92 -125 14 hvcurveto
            167 -32 101 -136 -16 -206 rrcurveto
            -178 -13 -107 -141 -136 hhcurveto
            -138 -76 111 295 65 hvcurveto
            49 227 -241 0 -58 -280 rlineto
            -265 -57 -56 -88 -102 hhcurveto
            -108 -52 108 203 21 hvcurveto
            23 250 105 221 162 89 rrcurveto
            -20 31 -325 -60 -201 -248 -28 -283 rlinecurve
            endchar
          </CharString>
          <CharString index="288">
            rmoveto
            147 114 90 181 110 hvcurveto
            -200 14 59 -65 125 hhcurveto
            88 86 51 49 41 hvcurveto
            9 42 rlineto
            -13 -16 -34 -12 -28 hhcurveto
            -79 -34 25 225 -30 hvcurveto
            -16 121 306 509 rlineto
            -266 hlineto
            -15 -54 -43 -127 -42 -115 rrcurveto
            211 -31 -78 103 -181 hhcurveto
            -270 -201 -236 -336 -30 hvcurveto
            -279 -31 111 -170 215 hhcurveto
            -11 494 rmoveto
            309 29 87 155 120 hhcurveto
            100 20 -110 -329 18 hvcurveto
            4 -143 rlineto
            -187 -84 -80 -75 -90 hhcurveto
            -106 -47 119 261 29 hvcurveto
            endchar
          </CharString>
          <CharString index="289">
            rmoveto
            225 180 92 142 98 hvcurveto
            8 45 rlineto
            -79 -73 -138 -57 -140 hhcurveto
            -143 -85 58 102 6 hvcurveto
            109 4 103 55 215 hhcurveto
            74 hlineto
            -12 177 rlineto
            -65 hlineto
            -208 -59 66 92 8 hvcurveto
            97 7 84 64 166 hhcurveto
            93 72 -18 -32 47 hvcurveto
            -1 -1 0 -1 hhcurveto
            -62 -46 -52 -61 -59 44 -52 72 62 52 49 70 108 -80 106 -282 -311 -157 -127 -157 -10 hvcurveto
            -10 -119 78 -95 168 -24 -207 -16 -124 -90 -9 -136 rrcurveto
            -158 -13 135 -100 236 hhcurveto
            endchar
          </CharString>
          <CharString index="290">
            rmoveto
            339 212 266 312 110 -30 97 -55 75 hvcurveto
            115 112 -36 37 -113 -109 rlineto
            75 -72 -102 45 -123 hhcurveto
            -340 -210 -267 -311 -112 31 -98 56 -75 hvcurveto
            -110 -107 37 -37 107 104 rlineto
            -74 72 101 -43 121 hhcurveto
            -151 334 rmoveto
            268 1 98 362 184 hhcurveto
            87 53 -69 -140 12 hvcurveto
            -435 -425 rlineto
            4 0 0 0 vhcurveto
            154 -278 rmoveto
            -86 -53 67 137 -12 hvcurveto
            434 424 rlineto
            -266 -1 -97 -362 -185 hhcurveto
            endchar
          </CharString>
          <CharString index="291">
            391 -260 260 -382 -462 -321 -376 -457 -1 hvcurveto
            -372 236 -254 354 -23 vhcurveto
            -138 -88 -76 -103 -102 vvcurveto
            -96 80 -69 112 83 67 42 64 31 vhcurveto
            8 43 rlineto
            -17 -17 -25 -12 -28 hhcurveto
            -65 -43 69 98 59 20 60 42 50 hvcurveto
            1 1 0 1 hhcurveto
            -24 61 rmoveto
            -191 -122 157 310 411 197 483 303 191 123 -156 -311 -89 callgsubr
            hvcurveto
            endchar
          </CharString>
          <CharString index="292">
            rmoveto
            -18 -99 -123 -31 -9 -40 120 0 -162 -967 rlineto
            -244 -41 -62 -81 -112 hhcurveto
            -4 -4 0 1 -4 hvcurveto
            45 14 34 42 52 vvcurveto
            65 -51 51 -62 -63 -52 -50 -67 -98 81 -75 123 214 181 153 511 88 vhcurveto
            121 705 223 -12 18 81 -233 -14 31 177 rlineto
            220 37 64 78 95 hhcurveto
            10 8 -1 -1 9 hvcurveto
            -45 -15 -33 -43 -52 vvcurveto
            -64 52 -51 62 65 53 52 66 101 -94 75 -152 -199 -156 -141 -298 -55 vhcurveto
            endchar
          </CharString>
          <CharString index="293">
            277 -133 207 -206 100 hvcurveto
            -7 38 44 -4 48 hhcurveto
            177 147 72 138 89 -57 77 -79 34 hvcurveto
            -41 hlineto
            8 -16 5 -28 -29 vvcurveto
            -153 -111 -128 -187 vhcurveto
            -102 -67 22 -126 hhcurveto
            -461 -321 -376 -458 -2 hvcurveto
            307 -122 rmoveto
            411 197 483 303 191 123 -156 -311 -89 callgsubr
            -192 -121 157 310 vhcurveto
            return
          </CharString>
          <CharString index="294">
            282 hlineto
            129 638 rlineto
            161 37 93 86 105 hhcurveto
            97 50 -73 -160 -32 hvcurveto
            -41 -197 -136 -619 -69 -296 rrcurveto
            283 hlineto
            23 106 183 894 25 123 rrcurveto
            228 46 -99 111 -192 hhcurveto
            -183 -123 -119 -145 -51 hvcurveto
            187 32 -74 70 -130 hhcurveto
            -85 -82 -30 -32 -49 hvcurveto
            -9 -41 rlineto
            7 17 20 3 24 hhcurveto
            69 35 -41 -122 -24 hvcurveto
            -31 -158 -85 -363 -55 -218 rrcurveto
            endchar
          </CharString>
          <CharString index="295">
            rmoveto
            -84 64 -65 98 173 120 122 319 223 vhcurveto
            542 780 103 147 46 38 113 19 rlinecurve
            9 43 -389 0 -9 -43 142 -15 -3 -39 -92 -142 rlinecurve
            -417 -636 -166 668 -33 127 4 20 156 17 rlinecurve
            9 43 -610 0 -9 -43 105 -20 25 -23 33 -117 rlinecurve
            276 -960 -82 -113 -75 -80 -86 -36 rlinecurve
            15 22 9 26 29 vvcurveto
            82 -63 64 -81 -84 -66 -67 -83 vhcurveto
            endchar
          </CharString>
          <CharString index="296">
            677 1255 rmoveto
            2 -116 -151 -31 -103 -11 -7 -35 rcurveline
            1 11 15 2 19 hhcurveto
            99 67 -58 -88 hvcurveto
            -106 2 68 callgsubr
            39 -31 32 -41 -42 -31 -32 -40 -87 104 -59 116 164 151 89 152 -1 vhcurveto
            -1 90 -67 74 -116 21 108 13 121 55 -1 109 rrcurveto
            106 -107 54 -105 -115 -111 -59 -129 -44 vhcurveto
            25 -10 rlineto
            72 38 55 32 69 hhcurveto
            76 48 -46 -61 1 hvcurveto
            return
          </CharString>
          <CharString index="297">
            rmoveto
            -271 hlineto
            -6 -31 60 -10 11 -23 -16 -63 rlinecurve
            -111 -454 -25 -94 -15 -22 -67 -10 rlinecurve
            -7 -31 210 0 7 31 -66 10 -8 19 22 97 rlinecurve
            99 460 94 -617 94 0 110 223 1 0 233 408 -95 -535 -8 -45 -14 -10 -65 -9 rlinecurve
            -6 -32 332 0 7 32 -60 8 -8 10 8 46 rlinecurve
            97 546 8 43 14 12 64 10 rlinecurve
            6 31 -280 0 -269 -511 rlineto
            return
          </CharString>
          <CharString index="298">
            111 hhcurveto
            101 112 48 61 52 hvcurveto
            10 45 rlineto
            -25 -31 -44 -12 -32 hhcurveto
            -45 -24 29 69 15 hvcurveto
            160 752 rlineto
            -1 13 13 -1 14 hhcurveto
            116 98 62 115 84 -55 71 -87 33 hvcurveto
            -39 hlineto
            9 -16 6 -31 -32 vvcurveto
            -145 -105 -101 -265 -32 vhcurveto
            -108 -13 -9 -40 53 -13 rlineto
            49 -17 11 -19 -12 -55 -93 -437 rcurveline
            -155 -39 -94 -112 -111 hhcurveto
            -99 -27 75 124 27 hvcurveto
            return
          </CharString>
          <CharString index="299">
            -143 -119 -94 -176 -58 vhcurveto
            163 750 -399 -38 -10 -42 56 -14 50 -16 10 -19 -12 -55 rlinecurve
            -276 -1298 149 0 121 103 rlineto
            -61 22 73 -61 133 hhcurveto
            307 204 93 callgsubr
            -206 -70 -48 36 44 -13 vhcurveto
            104 487 rlineto
            163 41 86 95 85 hhcurveto
            77 45 -62 -156 hvcurveto
            return
          </CharString>
          <CharString index="300">
            13 -17 5 -54 73 -818 rcurveline
            157 hlineto
            173 242 124 233 54 170 49 -645 rcurveline
            155 hlineto
            291 340 229 352 173 vvcurveto
            89 -59 55 -78 -76 -60 -55 -77 -74 57 -56 73 16 14 2 4 14 vhcurveto
            -53 -182 -135 -213 -154 -192 rrcurveto
            -59 835 -249 -39 10 -120 rlineto
            -1 hlineto
            2 -180 -130 -256 -127 -219 rrcurveto
            return
          </CharString>
          <CharString index="301">
            rmoveto
            95 85 52 71 37 hvcurveto
            9 45 rlineto
            -22 -27 -26 -11 -30 hhcurveto
            -48 -33 29 89 -44 hvcurveto
            -201 409 104 101 56 57 39 41 32 29 rlinecurve
            -70 52 -56 73 69 57 56 71 69 -50 58 -79 -86 -54 -57 -147 -138 vhcurveto
            -278 -302 107 499 -402 -46 -9 -42 56 -86 callgsubr
            -72 callsubr
            105 491 154 -305 rlineto
            -151 68 58 -51 107 hhcurveto
            endchar
          </CharString>
          <CharString index="302">
            553 hlineto
            9 43 -105 16 -18 20 19 94 rlinecurve
            9 42 802 906 -202 -948 -19 -95 -23 -19 -116 -16 rlinecurve
            -9 -43 553 0 9 43 -107 16 -18 19 20 -40 callgsubr
            115 16 rlinecurve
            9 43 -553 0 -9 -43 108 -16 16 -19 -20 -95 rlinecurve
            -10 -44 -801 -905 201 949 20 94 25 19 114 64 callsubr
            26 callgsubr
            endchar
          </CharString>
          <CharString index="303">
            341 214 264 312 175 -80 142 -137 74 vhcurveto
            -12 46 57 -9 55 hhcurveto
            183 125 71 129 85 -55 73 -85 33 hvcurveto
            -38 hlineto
            8 -16 6 -31 -32 vvcurveto
            -139 -102 -116 -178 vhcurveto
            -72 -60 19 -87 hhcurveto
            -343 -217 -257 -321 hvcurveto
            270 -112 rmoveto
            44 callsubr
            -99 -54 91 184 1 hvcurveto
            return
          </CharString>
          <CharString index="304">
            rmoveto
            86 72 44 62 35 hvcurveto
            9 43 rlineto
            -17 -19 -26 -11 -29 hhcurveto
            -64 -44 65 95 61 22 65 35 50 hvcurveto
            326 13 204 260 305 vvcurveto
            258 117 callsubr
            -248 153 -180 234 -15 vhcurveto
            -132 -87 -73 -102 -101 vvcurveto
            -97 75 -71 110 vhcurveto
            55 514 rmoveto
            -99 -54 91 184 1 hvcurveto
            44 callsubr
            endchar
          </CharString>
          <CharString index="305">
            519 hlineto
            478 295 170 276 hvcurveto
            -226 677 rmoveto
            -184 -124 -145 -221 -2 vhcurveto
            -132 -1 129 603 82 -3 rlineto
            175 -7 91 -101 -160 vvcurveto
            -86 -674 rmoveto
            -209 -142 -175 -323 -12 vhcurveto
            -82 -3 146 691 131 -2 rlineto
            170 -5 100 -117 -168 vvcurveto
            return
          </CharString>
          <CharString index="306">
            553 0 9 43 -109 16 -17 22 20 93 rlinecurve
            233 1096 20 93 25 22 117 16 rlinecurve
            9 43 -554 0 -9 -43 107 -16 16 -20 -20 -94 rlinecurve
            -107 -504 -596 0 107 504 20 93 25 21 113 16 rlinecurve
            9 43 -553 0 -9 -43 110 -17 16 -21 -20 -93 rlinecurve
            -233 -1096 return
          </CharString>
          <CharString index="307">
            155 -1200 168 0 649 1167 108 193 37 32 101 16 rlinecurve
            9 43 -385 0 -9 -43 131 -21 19 -38 -95 -180 rlinecurve
            -483 -919 -104 948 -15 146 30 46 130 17 rlinecurve
            9 44 -586 0 -9 -44 85 -13 34 -30 21 -164 rlinecurve
            return
          </CharString>
          <CharString index="308">
            rmoveto
            344 204 267 311 257 -170 186 -250 -344 -205 -268 -309 -257 171 -187 250 hvcurveto
            57 vmoveto
            -100 -52 91 186 1 hvcurveto
            273 1 102 357 176 hhcurveto
            100 52 -90 -186 -1 hvcurveto
            -273 -1 -103 -358 -175 hhcurveto
            endchar
          </CharString>
          <CharString index="309">
            -3 -423 280 -225 322 -23 rrcurveto
            -132 -146 -50 callsubr
            -95 callgsubr
            -47 18 27 -28 hvcurveto
            -9 -41 rlineto
            -60 38 69 -42 91 hhcurveto
            141 89 73 104 105 -81 66 -117 hvcurveto
            -3 -4 0 -3 hhcurveto
            74 82 rlineto
            1 0 0 1 4 callgsubr
          </CharString>
          <CharString index="310">
            1334 1344 446 rmoveto
            173 -142 141 -269 18 vhcurveto
            233 16 248 90 1 234 rrcurveto
            197 2 -187 129 -361 hhcurveto
            -510 -81 callgsubr
            -19 -20 -94 -234 -1098 rcurveline
            -20 -93 73 callsubr
            198 callsubr
            return
          </CharString>
          <CharString index="311">
            127 -22 10 -37 -34 -178 -122 -610 rcurveline
            -299 -60 -173 -171 123 callsubr
            144 679 21 96 25 21 117 19 rlinecurve
            9 43 -549 0 -8 -43 rlineto
            100 -18 16 -22 -20 -96 -138 -648 rcurveline
            -460 -97 258 -179 309 hhcurveto
            return
          </CharString>
          <CharString index="312">
            -131 18 -19 21 19 89 rlinecurve
            114 533 184 -4 118 -5 22 -49 -3 -160 rlinecurve
            36 hlineto
            101 473 rlineto
            -37 hlineto
            -59 -150 -43 -45 -123 -5 rrcurveto
            -186 -4 135 639 169 -8 237 -12 59 -61 11 -240 rlinecurve
            40 hlineto
            endchar
          </CharString>
          <CharString index="313">
            -46 -54 -30 -60 hhcurveto
            -74 -58 24 69 -117 hvcurveto
            -92 56 576 622 9 43 -705 0 -92 -320 rlineto
            39 hlineto
            96 40 29 17 97 hhcurveto
            345 hlineto
            -1437 -462 228 callsubr
            66 callsubr
            -86 hhcurveto
            -77 -45 61 157 hvcurveto
            endchar
          </CharString>
          <CharString index="314">
            rmoveto
            -1007 hlineto
            -9 -43 108 -17 16 -19 -19 -94 rlinecurve
            -234 -1098 -19 -93 -23 -20 -117 -17 rlinecurve
            -10 -43 582 0 9 43 -132 19 -20 20 20 89 rlinecurve
            259 1223 175 -8 271 -11 50 -58 3 -224 rlinecurve
            38 hlineto
            endchar
          </CharString>
          <CharString index="315">
            1335 481 rmoveto
            237 -208 98 callgsubr
            26 21 125 17 rlinecurve
            9 43 -565 0 -9 -43 rlineto
            109 -17 16 -19 -19 -94 -234 -1098 rcurveline
            -20 -93 73 callsubr
            564 hlineto
            442 278 192 289 hvcurveto
            return
          </CharString>
          <CharString index="316">
            1150 rmoveto
            94 74 68 223 28 hvcurveto
            -48 hlineto
            -102 -21 -29 -38 -47 hhcurveto
            -33 -25 15 28 -37 hvcurveto
            -32 25 rlineto
            33 -45 -43 22 -56 hhcurveto
            -94 -74 -68 -220 -28 hvcurveto
            49 hlineto
            100 20 -101 callgsubr
            32 -25 rlineto
            -33 45 44 -23 55 hhcurveto
            endchar
          </CharString>
          <CharString index="317">
            -274 -33 -126 -595 rlineto
            -155 -39 -99 -117 -109 hhcurveto
            -93 -21 76 120 25 hvcurveto
            150 704 -274 -32 -126 -602 rlineto
            -152 -40 -98 -114 -109 hhcurveto
            -92 -21 77 119 25 hvcurveto
            148 704 -400 return
          </CharString>
          <CharString index="318">
            0 411 1391 rmoveto
            98 -96 callgsubr
            -14 -32 -22 -48 hhcurveto
            -28 -28 7 15 -37 hvcurveto
            -30 12 rlineto
            15 -40 -41 11 -48 hhcurveto
            -97 -76 -31 callgsubr
            23 47 hhcurveto
            29 28 -9 -14 37 hvcurveto
            30 -11 rlineto
            -15 40 41 -12 47 hhcurveto
            return
          </CharString>
          <CharString index="319">
            127 -17 -2 -53 -123 -121 rlinecurve
            -448 -438 -113 -2 107 501 19 93 24 21 111 16 rlinecurve
            9 43 -549 0 -69 callsubr
            -118 -17 rlinecurve
            -8 -43 549 0 9 43 -105 16 -15 21 20 93 rlinecurve
            return
          </CharString>
          <CharString index="320">
            105 497 387 502 138 182 39 32 100 17 rlinecurve
            9 43 -371 0 -9 -43 124 -17 7 -41 -120 -170 rlinecurve
            -319 -448 -145 476 -44 140 19 103 callgsubr
            29 -27 55 -164 rlinecurve
            return
          </CharString>
          <CharString index="321">
            106 -16 18 -20 -20 -94 rlinecurve
            -259 -1214 -510 0 259 1215 20 94 22 20 114 15 rlinecurve
            9 43 -547 0 -9 -43 105 -15 16 -20 -20 -94 rlinecurve
            -258 -1215 -509 0 258 1214 return
          </CharString>
          <CharString index="322">
            101 467 rlineto
            216 46 -92 110 -176 hhcurveto
            -152 -144 -108 -200 -62 hvcurveto
            3 10 6 23 2 vvcurveto
            170 26 -84 103 -170 hhcurveto
            -157 -136 -103 -199 -66 hvcurveto
            63 295 -67 callsubr
            return
          </CharString>
          <CharString index="323">
            -12 -55 -83 -392 rcurveline
            -298 -63 157 -3 callgsubr
            -60 -282 rmoveto
            49 230 rlineto
            8 28 37 6 37 hhcurveto
            125 64 -73 -135 -163 -85 -157 -130 -124 -37 114 170 36 hvcurveto
            endchar
          </CharString>
          <CharString index="324">
            12 -17 5 -54 77 -818 rcurveline
            157 hlineto
            322 367 214 332 169 vvcurveto
            86 -61 55 -77 -76 -59 -55 -77 -74 58 -56 74 15 15 2 4 14 vhcurveto
            -54 -175 -134 -203 -169 -209 rrcurveto
            return
          </CharString>
          <CharString index="325">
            111 77 103 -3 hvcurveto
            100 -3 -111 59 -126 hhcurveto
            -169 -109 -77 -103 3 hvcurveto
            167 -30 rmoveto
            87 -2 47 78 62 hhcurveto
            44 27 -29 -55 2 hvcurveto
            -87 2 -48 -78 -61 hhcurveto
            -45 -26 29 55 -2 hvcurveto
            endchar
          </CharString>
          <CharString index="326">
            -471 rmoveto
            83 73 36 54 50 hvcurveto
            9 43 rlineto
            -18 -27 -32 -10 -32 hhcurveto
            -62 -39 31 68 79 52 92 156 92 hvcurveto
            63 37 -48 0 -77 -39 rlineto
            -256 -136 -80 -84 -100 vvcurveto
            -87 70 -58 97 vhcurveto
            endchar
          </CharString>
          <CharString index="327">
            -91 -371 rlineto
            40 hlineto
            98 227 80 74 224 16 rrcurveto
            61 4 -260 -1223 -19 -89 -24 -22 -136 -17 rlinecurve
            -9 -43 596 0 9 43 rlineto
            -129 19 -18 20 19 89 115 540 rcurveline
            return
          </CharString>
          <CharString index="328">
            rrcurveto
            212 11 135 85 144 hhcurveto
            52 49 -13 -22 38 hvcurveto
            -59 -3 -50 -44 -66 vvcurveto
            -63 48 -54 69 65 52 52 67 117 -127 96 -198 -252 -238 -144 -291 -15 vhcurveto
            return
          </CharString>
          <CharString index="329">
            0 -9 -43 rlineto
            140 -17 34 -48 -29 -133 -37 -161 -32 -129 -51 -179 -78 -298 -67 -217 -92 -109 rrcurveto
            1 7 1 7 7 vvcurveto
            88 -63 61 -83 -90 -61 -69 -83 return
          </CharString>
          <CharString index="330">
            534 1450 rmoveto
            -73 -1 -47 -45 -9 -103 -8 -75 3 -95 4 -99 rrcurveto
            8 -191 36 0 74 169 rlineto
            59 135 56 118 73 vvcurveto
            68 1 -39 46 -65 hhcurveto
            return
          </CharString>
          <CharString index="331">
            -103 -487 rcurveline
            -206 -44 68 -129 189 hhcurveto
            143 146 89 196 77 hvcurveto
            -184 -26 73 -101 176 hhcurveto
            145 150 97 205 74 hvcurveto
            -1 -7 return
          </CharString>
          <CharString index="332">
            712 1468 rmoveto
            -214 -12 -170 -145 -193 vvcurveto
            -109 64 -68 89 95 59 81 96 3 vhcurveto
            -80 13 -55 43 76 vvcurveto
            95 93 70 107 11 vhcurveto
            return
          </CharString>
          <CharString index="333">
            -47 -53 -30 -60 hhcurveto
            -75 -58 24 69 -116 hvcurveto
            -92 56 576 622 8 43 -704 0 -92 -320 rlineto
            38 hlineto
            96 41 29 17 97 hhcurveto
            345 hlineto
            return
          </CharString>
          <CharString index="334">
            -31 hvcurveto
            -26 20 rlineto
            27 -38 -37 17 -47 hhcurveto
            -79 -62 -56 -183 -23 hvcurveto
            43 hlineto
            81 -36 callsubr
            30 hvcurveto
            27 -20 rlineto
            -26 38 36 -18 47 hhcurveto
            return
          </CharString>
          <CharString index="335">
            rmoveto
            255 101 351 207 69 48 -36 -44 13 vhcurveto
            return
          </CharString>
        <CharString name=".notdef">
          2048 55 -494 rmoveto
          88 hlineto
          519 2444 rlineto
          -88 hlineto
          -108 -2444 rmoveto
          87 hlineto
          519 2444 rlineto
          -87 hlineto
          -110 -67 callgsubr
          -109 -67 callgsubr
          -109 -67 callgsubr
          endchar
        </CharString>
        <CharString name=".null">
          0 endchar
        </CharString>
        <CharString name="A">
          1345 1220 251 -97 callsubr
        </CharString>
        <CharString name="AE">
          1887 2050 1444 144 callsubr
        </CharString>
        <CharString name="AEacute">
          1887 1587 -66 callsubr
          -7 callsubr
          197 -369 144 callsubr
        </CharString>
        <CharString name="AEmacron">
          1887 1248 1608 rmoveto
          499 hlineto
          -61 callsubr
          775 -294 144 callsubr
        </CharString>
        <CharString name="Aacute">
          1345 1089 -66 callsubr
          24 callsubr
          -134 -1562 -97 callsubr
        </CharString>
        <CharString name="Abreve">
          1345 1021 52 callsubr
          14 callsubr
          10 callsubr
          199 -1322 -97 callsubr
        </CharString>
        <CharString name="Abreveacute">
          1345 1331 1849 rmoveto
          28 134 -598 -177 -8 -37 rlineto
          232 -229 85 callsubr
        </CharString>
        <CharString name="Abrevecyrillic">
          1345 985 -61 callgsubr
          8 callgsubr
          57 49 48 61 67 -50 49 -62 -70 -48 -53 -69 -102 84 -85 142 hvcurveto
          235 -1338 -97 callsubr
        </CharString>
        <CharString name="Abrevedotbelow">
          1345 1021 52 callsubr
          14 callsubr
          10 callsubr
          199 -1322 rmoveto
          -33 callsubr
          41 callsubr
          -331 -738 -88 callsubr
          22 callsubr
        </CharString>
        <CharString name="Abrevegrave">
          1345 771 1849 rmoveto
          543 -80 8 37 -523 177 rlineto
          186 -443 85 callsubr
        </CharString>
        <CharString name="Abrevehookabove">
          1345 1059 1972 rmoveto
          -84 -68 -35 -38 -41 hvcurveto
          -6 -31 rlineto
          13 24 44 12 44 hhcurveto
          64 33 -24 -36 -8 hvcurveto
          -7 -36 -39 -26 -72 -15 rrcurveto
          33 -24 141 22 79 36 15 71 rlinecurve
          69 14 -71 42 -95 hhcurveto
          -74 -432 85 callsubr
        </CharString>
        <CharString name="Abrevetilde">
          1345 1159 1799 rmoveto
          99 75 58 110 23 hvcurveto
          -49 hlineto
          -47 -11 -32 -19 -49 hhcurveto
          -29 -29 7 11 -38 hvcurveto
          -32 11 rlineto
          12 -42 -43 11 -48 hhcurveto
          -99 -76 -58 -111 -23 hvcurveto
          50 hlineto
          48 12 31 19 49 hhcurveto
          29 29 -6 -13 38 hvcurveto
          32 -9 rlineto
          -14 42 42 -10 49 hhcurveto
          -174 -259 85 callsubr
        </CharString>
        <CharString name="Acaron">
          1345 1254 -10 callsubr
          -85 -1578 -97 callsubr
        </CharString>
        <CharString name="Acircumflex">
          1345 779 -20 callsubr
          46 0 -127 -41 callgsubr
          490 -1281 -97 callsubr
        </CharString>
        <CharString name="Acircumflexacute">
          1345 1326 -8 callgsubr
          -298 -177 rlineto
          515 -1289 -97 callsubr
        </CharString>
        <CharString name="Acircumflexdotbelow">
          1345 779 -20 callsubr
          46 0 -127 -41 callgsubr
          490 -1281 rmoveto
          -33 callsubr
          41 callsubr
          -331 -738 -88 callsubr
          22 callsubr
        </CharString>
        <CharString name="Acircumflexgrave">
          1345 766 1828 rmoveto
          544 -81 7 38 -523 177 rlineto
          -98 -460 -45 callsubr
          23 callsubr
          -298 -177 rlineto
          515 -1289 -97 callsubr
        </CharString>
        <CharString name="Acircumflexhookabove">
          1345 1305 -42 callgsubr
          -7 -30 rlineto
          14 24 43 11 42 hhcurveto
          61 32 -25 -35 -8 hvcurveto
          -8 -36 -38 -26 -68 -15 rrcurveto
          32 -23 99 callgsubr
          -609 -417 -45 callsubr
          23 callsubr
          -298 -177 rlineto
          515 -1289 -97 callsubr
        </CharString>
        <CharString name="Acircumflextilde">
          1345 1154 1778 rmoveto
          100 75 57 111 23 hvcurveto
          -49 hlineto
          -47 -11 -33 -20 -48 hhcurveto
          -29 -30 7 12 -38 hvcurveto
          -31 10 rlineto
          13 -43 -42 10 -48 hhcurveto
          -100 -76 57 callsubr
          49 hhcurveto
          -15 callgsubr
          -298 -177 rlineto
          515 -1289 -97 callsubr
        </CharString>
        <CharString name="Acyrillic">
          1345 1220 251 -97 callsubr
        </CharString>
        <CharString name="Adblgrave">
          1345 815 -90 callgsubr
          248 -275 rlineto
          43 -80 callgsubr
          71 -1279 -97 callsubr
        </CharString>
        <CharString name="Adieresis">
          1345 854 1566 rmoveto
          61 49 49 61 hvcurveto
          58 1 -45 45 -58 94 callsubr
          56 -1315 -97 callsubr
        </CharString>
        <CharString name="Adieresismacron">
          1345 765 1824 60 callsubr
          43 callgsubr
          -52 -50 -35 -47 -11 hvcurveto
          -48 -10 34 -34 54 hhcurveto
          316 hmoveto
          53 49 34 48 76 callgsubr
          -9 34 -34 54 hhcurveto
          86 -1309 -97 callsubr
        </CharString>
        <CharString name="Adotaccent">
          1345 1009 1558 -62 callgsubr
          211 -1307 -97 callsubr
        </CharString>
        <CharString name="Adotbelow">
          1345 1220 251 rmoveto
          -33 callsubr
          41 callsubr
          -331 -738 -88 callsubr
          22 callsubr
        </CharString>
        <CharString name="Adotmacron">
          1345 760 1801 -27 callgsubr
          228 -348 rmoveto
          56 42 36 51 hvcurveto
          49 -1 -46 37 -56 hhcurveto
          -55 -42 -37 -49 1 hvcurveto
          -51 45 -36 56 vhcurveto
          211 -1305 -97 callsubr
        </CharString>
        <CharString name="Agrave">
          1345 980 -57 callgsubr
          154 -1279 -97 callsubr
        </CharString>
        <CharString name="Ahookabove">
          1345 1046 -11 callsubr
          -34 callgsubr
          -44 -49 103 callsubr
          174 -1598 -97 callsubr
        </CharString>
        <CharString name="Ainvertedbreve">
          1345 1026 122 callsubr
          42 hlineto
          94 19 -38 callgsubr
          168 callsubr
          194 -1625 -97 callsubr
        </CharString>
        <CharString name="Alphagreek">
          1345 1220 251 -97 callsubr
        </CharString>
        <CharString name="Alphatonosgreek">
          1345 1220 251 rmoveto
          -33 callsubr
          15 -146 -30 -46 -130 -17 rlinecurve
          -9 -44 586 0 -36 callgsubr
          -764 1193 -63 callgsubr
          -231 -878 rmoveto
          333 635 70 -635 rlineto
          endchar
        </CharString>
        <CharString name="Amacron">
          1345 749 -62 callsubr
          -61 callsubr
          443 -1487 -97 callsubr
        </CharString>
        <CharString name="Aogonek">
          1345 1013 -476 rmoveto
          83 67 42 64 31 hvcurveto
          35 callgsubr
          259 hlineto
          -36 callgsubr
          -33 callsubr
          rlineto
          15 -146 -30 -46 -130 -17 -9 -44 rcurveline
          278 hlineto
          -143 -92 -79 -110 -109 vvcurveto
          -96 80 -69 112 vhcurveto
          -531 1042 rmoveto
          333 635 70 -635 rlineto
          endchar
        </CharString>
        <CharString name="Aring">
          1345 791 1712 rmoveto
          -100 99 -59 114 151 100 callgsubr
          151 -30 rmoveto
          88 44 79 55 41 22 -30 -56 -87 -44 -79 -55 -40 -23 29 56 vhcurveto
          278 -1431 -97 callsubr
        </CharString>
        <CharString name="Aringacute">
          1345 1327 1832 rmoveto
          28 135 -598 -178 -7 -37 rlineto
          258 -219 rmoveto
          131 96 36 57 11 hvcurveto
          56 12 -78 37 -133 hhcurveto
          -49 hlineto
          -131 -96 -37 -56 -12 hvcurveto
          -57 -12 80 -36 131 hhcurveto
          47 33 rmoveto
          -29 hlineto
          -44 -20 24 36 8 hvcurveto
          35 7 31 25 43 hhcurveto
          30 hlineto
          44 19 -25 -35 -7 hvcurveto
          -36 -7 -30 -24 -45 hhcurveto
          215 -1315 -97 callsubr
        </CharString>
        <CharString name="Aringbelow">
          1345 1220 251 rmoveto
          -33 callsubr
          41 callsubr
          -594 -862 rmoveto
          -100 2 112 -59 126 hhcurveto
          168 110 77 103 -3 hvcurveto
          100 -2 -112 59 -126 hhcurveto
          -168 -110 -77 -103 3 hvcurveto
          167 -30 rmoveto
          87 -2 48 78 61 hhcurveto
          45 27 -29 -55 1 hvcurveto
          -87 2 -48 -78 -60 hhcurveto
          -46 -26 29 55 -2 hvcurveto
          endchar
        </CharString>
        <CharString name="Atilde">
          1345 1109 5 callsubr
          131 callsubr
          -28 callsubr
          15 25 29 38 hhcurveto
          28 21 -11 -23 31 -16 callsubr
          111 -1326 -97 callsubr
        </CharString>
        <CharString name="B">
          1334 1344 446 82 callsubr
        </CharString>
        <CharString name="Bdotaccent">
          1334 944 -80 callsubr
          -63 -91 callgsubr
          400 -1112 82 callsubr
        </CharString>
        <CharString name="Bdotbelow">
          203 callsubr
          -437 -621 -88 callsubr
          22 callsubr
        </CharString>
        <CharString name="Becyrillic">
          1314 1341 460 rmoveto
          229 -205 135 -340 vhcurveto
          -141 hlineto
          120 569 198 -7 282 -11 53 -59 4 -223 rlinecurve
          39 hlineto
          59 351 -1053 0 -9 -43 rlineto
          115 -18 16 -18 -20 -94 -233 -1098 rcurveline
          -19 -93 -25 -19 -122 -18 -9 -43 rcurveline
          570 hlineto
          423 297 174 286 hvcurveto
          -305 17 rmoveto
          -243 -163 -169 -292 -11 vhcurveto
          -92 -3 154 719 99 -2 rlineto
          186 -4 108 -97 -190 vvcurveto
          endchar
        </CharString>
        <CharString name="Betagreek">
          1334 1344 446 82 callsubr
        </CharString>
        <CharString name="Blinebelow">
          203 callsubr
          -713 -801 -84 callsubr
        </CharString>
        <CharString name="C">
          1378 553 563 -42 callsubr
          4 callsubr
        </CharString>
        <CharString name="Cacute">
          1378 1230 -86 callsubr
          -52 callsubr
          -943 -1250 -42 callsubr
          4 callsubr
        </CharString>
        <CharString name="Ccaron">
          1378 1395 7 callsubr
          -55 callgsubr
          -893 -1266 -42 callsubr
          4 callsubr
        </CharString>
        <CharString name="Ccedilla">
          1378 553 563 -42 callsubr
          202 callsubr
        </CharString>
        <CharString name="Ccedillaacute">
          1378 1230 -86 callsubr
          -52 callsubr
          -943 -1250 -42 callsubr
          202 callsubr
        </CharString>
        <CharString name="Ccircumflex">
          1378 920 1532 rmoveto
          244 -48 callsubr
          -128 280 -142 0 -243 -280 rlineto
          -318 -969 -42 callsubr
          4 callsubr
        </CharString>
        <CharString name="Cdotaccent">
          1378 1151 -80 callsubr
          -63 -68 74 callsubr
          -598 -995 -42 callsubr
          4 callsubr
        </CharString>
        <CharString name="Checyrillic">
          1509 1072 171 rmoveto
          -19 -91 -27 -21 -133 -16 rrcurveto
          -9 -43 573 0 10 43 -108 16 -17 19 20 -40 callgsubr
          116 16 rlinecurve
          9 43 -553 0 -10 -43 rlineto
          107 -16 17 -19 -20 -95 -118 -557 rcurveline
          -30 -82 -84 -22 -106 hhcurveto
          -200 -83 120 233 50 hvcurveto
          54 257 21 93 23 21 112 15 rlinecurve
          9 43 -550 0 -9 -43 rlineto
          109 -16 15 -19 -19 -94 -49 -234 rcurveline
          -304 -65 167 -149 329 hhcurveto
          144 101 30 43 101 hvcurveto
          endchar
        </CharString>
        <CharString name="Chigreek">
          1301 317 279 29 callsubr
        </CharString>
        <CharString name="D">
          1515 -17 callsubr
          -49 callsubr
          endchar
        </CharString>
        <CharString name="Dbar">
          1515 204 714 rmoveto
          132 hlineto
          -115 -541 rlineto
          -20 -93 73 callsubr
          507 hlineto
          576 447 322 501 383 -291 238 -444 hvcurveto
          -488 -81 callgsubr
          -20 -20 -93 -107 -505 rcurveline
          -134 hlineto
          1047 105 rmoveto
          -391 -225 -405 -471 -21 vhcurveto
          -80 -3 141 663 249 0 11 52 -249 0 133 628 71 -3 rlineto
          285 -16 135 -222 -282 vvcurveto
          endchar
        </CharString>
        <CharString name="Dcaron">
          1515 1265 -10 callsubr
          266 -1006 38 callsubr
          -49 callsubr
          endchar
        </CharString>
        <CharString name="Dcircumflexbelow">
          1515 -17 callsubr
          -49 callsubr
          -893 -1320 106 callsubr
        </CharString>
        <CharString name="Dcommaaccent">
          1515 -17 callsubr
          -49 callsubr
          -674 -1323 rmoveto
          142 91 -21 callsubr
          25 hhcurveto
          52 138 callsubr
          -18 callsubr
        </CharString>
        <CharString name="Ddotaccent">
          1515 1020 -80 callsubr
          -63 -68 74 callsubr
          562 -735 38 callsubr
          -49 callsubr
          endchar
        </CharString>
        <CharString name="Ddotbelow">
          1515 -17 callsubr
          -49 callsubr
          -644 -1043 -75 callsubr
          54 52 66 62 -49 48 -63 hvcurveto
          endchar
        </CharString>
        <CharString name="Decyrillic">
          1438 638 980 rmoveto
          25 91 56 250 16 65 rrcurveto
          498 hlineto
          -284 -1328 rlineto
          -692 hlineto
          132 131 133 285 116 506 rrcurveto
          791 -922 rmoveto
          -190 hlineto
          258 1213 20 94 25 19 116 17 rlinecurve
          9 43 -1177 0 -9 -43 rlineto
          143 -18 33 -47 -32 -145 -14 -62 -24 -97 -14 -51 -114 -491 -137 -305 -150 -127 rrcurveto
          -133 hlineto
          -90 -388 rlineto
          46 hlineto
          256 126 52 74 236 hhcurveto
          626 hlineto
          228 37 -62 -268 14 hvcurveto
          46 hlineto
          endchar
        </CharString>
        <CharString name="Deltagreek">
          1310 59 hmoveto
          1137 hlineto
          8 42 -189 1407 -163 0 -784 -1407 rlineto
          78 14 rmoveto
          619 1131 130 -1131 rlineto
          endchar
        </CharString>
        <CharString name="Djecyrillic">
          1708 1708 429 rmoveto
          257 -169 140 -281 -130 -97 -21 -35 -88 vhcurveto
          133 624 69 -4 229 -16 60 -64 6 -237 rlinecurve
          39 hlineto
          62 371 -1167 0 220 callsubr
          24 71 72 13 88 hhcurveto
          171 90 -96 -189 -323 -159 -320 -294 -160 hvcurveto
          14 -38 rlineto
          430 129 295 307 371 vvcurveto
          endchar
        </CharString>
        <CharString name="Dlinebelow">
          1515 -17 callsubr
          -49 callsubr
          -920 -1223 -50 callgsubr
        </CharString>
        <CharString name="Dzecyrillic">
          1128 580 -22 77 callsubr
          endchar
        </CharString>
        <CharString name="Dzhecyrillic">
          1533 166 callsubr
          501 hlineto
          120 17 -40 -289 -15 hvcurveto
          46 hlineto
          289 107 34 40 119 hhcurveto
          502 hlineto
          9 43 -109 17 -17 19 20 94 rlinecurve
          233 1098 20 94 24 19 118 64 callsubr
          104 -16 18 -20 -20 -94 rlinecurve
          -259 -1214 -585 0 258 1214 19 95 24 29 callgsubr
        </CharString>
        <CharString name="E">
          1203 1388 1444 -96 callsubr
        </CharString>
        <CharString name="Eacute">
          1203 1046 -66 callsubr
          24 callsubr
          77 -369 -96 callsubr
        </CharString>
        <CharString name="Ebreve">
          1203 978 52 callsubr
          14 callsubr
          10 callsubr
          410 -129 -96 callsubr
        </CharString>
        <CharString name="Ecaron">
          1203 1211 -10 callsubr
          126 -385 -96 callsubr
        </CharString>
        <CharString name="Ecedilla">
          1203 552 -452 38 callgsubr
          2 8 472 0 101 -59 callsubr
          -29 callsubr
          62 371 -1017 0 -69 callsubr
          -82 callsubr
          548 0 -150 -166 -50 callsubr
          -95 callgsubr
          -68 callgsubr
        </CharString>
        <CharString name="Ecedillabreve">
          1203 978 52 callsubr
          14 callsubr
          10 callsubr
          -426 -2025 38 callgsubr
          2 8 472 0 101 -59 callsubr
          -29 callsubr
          62 371 -1017 0 -69 callsubr
          -82 callsubr
          548 0 -150 -166 -50 callsubr
          -95 callgsubr
          -68 callgsubr
        </CharString>
        <CharString name="Ecircumflex">
          1203 736 -20 callsubr
          47 0 -128 -41 callgsubr
          701 -88 -96 callsubr
        </CharString>
        <CharString name="Ecircumflexacute">
          1203 1282 1828 -43 callgsubr
          -52 -245 rmoveto
          298 84 262 -84 8 38 -225 177 -36 0 -299 -177 rlineto
          727 -96 -96 callsubr
        </CharString>
        <CharString name="Ecircumflexbelow">
          1203 1388 1444 rmoveto
          -1017 hlineto
          -69 callsubr
          -82 callsubr
          1071 0 101 -59 callsubr
          -29 callsubr
          -1008 -1522 rmoveto
          254 128 callsubr
          -145 0 -258 -330 rlineto
          endchar
        </CharString>
        <CharString name="Ecircumflexdotbelow">
          1203 736 -20 callsubr
          47 0 -128 -41 callgsubr
          701 -88 rmoveto
          -1017 hlineto
          -69 callsubr
          -82 callsubr
          1071 0 101 -59 callsubr
          -29 callsubr
          -759 -1245 -88 callsubr
          54 callsubr
        </CharString>
        <CharString name="Ecircumflexgrave">
          1203 722 1828 rmoveto
          544 81 callgsubr
          262 -84 8 38 -225 177 -36 0 -299 -177 rlineto
          727 -96 -96 callsubr
        </CharString>
        <CharString name="Ecircumflexhookabove">
          1203 1261 -42 callgsubr
          7 callgsubr
          99 callgsubr
          -608 -417 rmoveto
          298 84 262 -84 8 38 -225 177 -36 0 -299 -177 rlineto
          727 -96 -96 callsubr
        </CharString>
        <CharString name="Ecircumflextilde">
          1203 1110 1778 rmoveto
          100 76 53 callgsubr
          -39 hvcurveto
          -31 10 rlineto
          13 -42 -42 10 -49 hhcurveto
          -99 -76 -57 -111 67 callgsubr
          30 -10 rlineto
          -13 43 42 -10 48 hhcurveto
          -457 -276 rmoveto
          298 84 262 -84 8 38 -225 177 -36 0 -299 -177 rlineto
          727 -96 -96 callsubr
        </CharString>
        <CharString name="Ecyrillic">
          1388 557 563 rmoveto
          50 2 48 5 48 vhcurveto
          624 -13 17 82 -633 -13 rlineto
          361 56 204 277 275 hhcurveto
          199 122 -130 -286 8 hvcurveto
          39 -2 64 351 rlineto
          67 -91 -180 63 -214 hhcurveto
          -468 -339 -323 -492 -4 hvcurveto
          -448 -3 314 -225 345 hhcurveto
          175 149 37 63 92 hvcurveto
          76 359 -40 -1 rlineto
          -238 -90 -160 73 callgsubr
        </CharString>
        <CharString name="Edblgrave">
          1203 772 -90 callgsubr
          136 callsubr
          282 -86 -96 callsubr
        </CharString>
        <CharString name="Edieresis">
          1203 811 1566 rmoveto
          -13 callsubr
          -58 hhcurveto
          17 callsubr
          113 callsubr
          -1 hvcurveto
          -57 45 -46 58 vhcurveto
          267 -122 -96 callsubr
        </CharString>
        <CharString name="Edotaccent">
          1203 966 1558 -62 callgsubr
          422 -114 -96 callsubr
        </CharString>
        <CharString name="Edotbelow">
          1203 1388 1444 rmoveto
          -1017 hlineto
          -69 callsubr
          -82 callsubr
          1071 0 101 -59 callsubr
          -29 callsubr
          -759 -1245 -88 callsubr
          54 callsubr
        </CharString>
        <CharString name="Efcyrillic">
          1892 195 669 rmoveto
          -272 240 -163 410 -21 vhcurveto
          -14 -67 -19 -87 -23 -23 -123 -14 rlinecurve
          -9 -43 559 0 9 43 rlineto
          -114 16 -18 21 19 87 13 66 rcurveline
          572 17 297 218 328 vvcurveto
          272 -242 164 -412 20 vhcurveto
          15 67 18 87 24 23 122 14 rlinecurve
          9 43 -560 0 -9 -43 rlineto
          116 -16 17 -21 -19 -87 -14 -66 rcurveline
          -569 -19 -295 -218 -326 vvcurveto
          318 -16 rmoveto
          294 178 200 356 28 vhcurveto
          -190 -904 rlineto
          -238 31 -106 150 201 vvcurveto
          1163 138 rmoveto
          -295 -179 -200 -360 -28 vhcurveto
          191 905 rlineto
          240 -30 108 -150 -202 vvcurveto
          endchar
        </CharString>
        <CharString name="Egrave">
          1203 937 1811 rmoveto
          -243 -6 hlineto
          -6 callsubr
          365 -86 -96 callsubr
        </CharString>
        <CharString name="Ehookabove">
          1203 1003 -11 callsubr
          -92 callgsubr
          43 hhcurveto
          61 34 -27 -44 -49 103 callsubr
          385 -405 -96 callsubr
        </CharString>
        <CharString name="Einvertedbreve">
          1203 983 122 callsubr
          172 callsubr
          405 -432 -96 callsubr
        </CharString>
        <CharString name="Elcyrillic">
          1449 199 -23 rmoveto
          207 101 254 504 132 hvcurveto
          60 216 51 206 50 231 rrcurveto
          471 hlineto
          -258 -1215 -20 -95 -23 -19 -115 -16 rlinecurve
          -9 -43 553 0 9 43 -108 16 -19 19 21 -40 callgsubr
          116 16 rlinecurve
          9 43 -1150 222 callsubr
          -87 61 -64 99 vhcurveto
          endchar
        </CharString>
        <CharString name="Emacron">
          1203 706 -62 callsubr
          -61 callsubr
          654 -294 -96 callsubr
        </CharString>
        <CharString name="Emacronacute">
          1203 1287 1849 rmoveto
          29 135 -599 -178 -7 -37 rlineto
          -38 -178 -27 callgsubr
          695 -250 -96 callsubr
        </CharString>
        <CharString name="Emacrongrave">
          1203 727 -49 callgsubr
          178 rlineto
          -83 -393 -27 callgsubr
          695 -250 -96 callsubr
        </CharString>
        <CharString name="Emcyrillic">
          1760 813 1444 33 callsubr
        </CharString>
        <CharString name="Encyrillic">
          1544 511 173 rmoveto
          -71 callsubr
          127 callsubr
          endchar
        </CharString>
        <CharString name="Eogonek">
          1203 890 -476 rmoveto
          84 68 42 64 29 hvcurveto
          9 43 rlineto
          -17 -17 -24 -12 -29 hhcurveto
          -65 -43 71 102 64 23 65 46 54 hvcurveto
          164 hlineto
          101 -59 callsubr
          141 664 202 -5 125 -4 21 -50 -22 callgsubr
          56 -58 12 -242 rlinecurve
          39 hlineto
          62 371 -1017 0 -9 -43 rlineto
          110 -17 15 -20 -20 -93 -234 -1098 rcurveline
          -19 -93 -23 -20 -118 -17 -9 -43 rcurveline
          857 hlineto
          -142 -92 -80 -110 -109 vvcurveto
          -96 80 -69 111 vhcurveto
          endchar
        </CharString>
        <CharString name="Epsilongreek">
          1203 1388 1444 -96 callsubr
        </CharString>
        <CharString name="Epsilontonosgreek">
          1559 1745 1444 rmoveto
          -1017 hlineto
          -10 -43 111 -17 15 -20 -20 -93 rlinecurve
          -234 -1098 -19 -93 -23 -20 -82 callsubr
          1070 0 102 -59 callsubr
          140 664 203 -5 125 -4 21 -50 -3 -160 rlinecurve
          38 hlineto
          100 474 rlineto
          -38 hlineto
          -60 -151 -43 -45 -129 -5 rrcurveto
          -203 -4 133 630 187 -9 250 -12 55 -58 13 -242 rlinecurve
          39 hlineto
          -1327 371 -63 callgsubr
          endchar
        </CharString>
        <CharString name="Ercyrillic">
          1299 628 hmoveto
          32 callsubr
        </CharString>
        <CharString name="Ereversedcyrillic">
          1424 423 1360 rmoveto
          -80 -340 rlineto
          39 hlineto
          275 101 163 112 171 hhcurveto
          251 113 -249 -309 -29 -1 -29 -3 -30 hvcurveto
          -627 14 -17 -83 639 11 rlineto
          -348 -44 -195 -320 -310 hhcurveto
          -241 -100 181 198 -8 hvcurveto
          -39 hlineto
          -46 -320 rlineto
          -68 85 166 -49 190 hhcurveto
          511 354 343 466 403 -267 278 -404 -148 -154 -39 -68 -99 hvcurveto
          endchar
        </CharString>
        <CharString name="Escyrillic">
          1378 553 563 -42 callsubr
          4 callsubr
        </CharString>
        <CharString name="Etagreek">
          1544 511 173 rmoveto
          -71 callsubr
          127 callsubr
          endchar
        </CharString>
        <CharString name="Etatonosgreek">
          1913 880 63 callgsubr
          -24 -21 -114 -16 rlinecurve
          -9 -43 199 callsubr
          -20 -92 -24 -22 -82 callsubr
          127 callsubr
          -524 1271 -63 callgsubr
          endchar
        </CharString>
        <CharString name="Etilde">
          1203 1066 5 callsubr
          -42 hlineto
          -81 -17 -23 3 callgsubr
          43 hlineto
          81 16 25 29 37 hhcurveto
          28 22 -11 -23 30 -16 callsubr
          322 -133 -96 callsubr
        </CharString>
        <CharString name="Etildebelow">
          1203 1388 1444 rmoveto
          -1017 hlineto
          -69 callsubr
          -82 callsubr
          1071 0 101 -59 callsubr
          -29 callsubr
          -660 -1481 108 callsubr
          -30 -24 125 callsubr
          -87 -68 -61 -199 -25 hvcurveto
          45 hlineto
          90 167 callsubr
        </CharString>
        <CharString name="F">
          1138 1361 1444 rmoveto
          -988 hlineto
          -69 callsubr
          -47 callgsubr
          205 callsubr
        </CharString>
        <CharString name="Fdotaccent">
          1138 955 101 callsubr
          406 -114 rmoveto
          -988 hlineto
          -69 callsubr
          -47 callgsubr
          205 callsubr
        </CharString>
        <CharString name="G">
          1513 241 651 -34 callsubr
        </CharString>
        <CharString name="Gacute">
          1513 1226 -86 callsubr
          -52 callsubr
          -1251 -1162 -34 callsubr
        </CharString>
        <CharString name="Gammagreek">
          1134 1371 1444 rmoveto
          -1008 hlineto
          -9 -43 115 -18 17 -18 -85 callgsubr
          -93 -24 -19 -123 -18 rlinecurve
          -9 -43 591 0 9 43 -134 20 -20 19 20 89 rlinecurve
          259 1223 176 -8 264 -11 48 -58 3 -224 rlinecurve
          38 hlineto
          endchar
        </CharString>
        <CharString name="Gbreve">
          1513 1158 -66 callgsubr
          -106 -74 -37 callgsubr
          105 callgsubr
          -917 -922 -34 callsubr
        </CharString>
        <CharString name="Gcaron">
          1513 1391 7 callsubr
          129 callsubr
          -1201 -1178 -34 callsubr
        </CharString>
        <CharString name="Gcircumflex">
          1513 916 1532 rmoveto
          244 -48 callsubr
          -128 -41 callgsubr
          -626 -881 -34 callsubr
        </CharString>
        <CharString name="Gcommaaccent">
          1513 241 651 rmoveto
          -441 -3 326 -232 339 hhcurveto
          167 193 45 83 113 hvcurveto
          88 410 18 86 23 24 108 16 rlinecurve
          9 43 -519 0 -9 -43 rlineto
          120 -17 11 -23 -18 -86 -89 -429 rcurveline
          -31 -39 -74 -17 -73 hhcurveto
          -223 -154 197 327 455 226 385 327 201 123 -130 -286 8 hvcurveto
          39 -2 63 351 rlineto
          67 -91 -181 63 -215 hhcurveto
          -469 -342 -323 -492 -3 hvcurveto
          536 -1103 rmoveto
          141 92 -21 callsubr
          72 callsubr
          -18 callsubr
        </CharString>
        <CharString name="Gdotaccent">
          1513 1147 -80 callsubr
          -64 -67 74 callsubr
          -906 -907 -34 callsubr
        </CharString>
        <CharString name="Geacutecyrillic">
          1121 993 -66 callsubr
          24 callsubr
          109 -369 207 callsubr
        </CharString>
        <CharString name="Gecyrillic">
          1121 1367 1444 207 callsubr
        </CharString>
        <CharString name="Germandbls">
          1434 485 hmoveto
          295 1394 162 -7 rlineto
          214 -10 92 -95 -161 vvcurveto
          -160 -105 -103 -169 -26 vhcurveto
          -41 -188 rlineto
          171 -82 79 -112 -158 vvcurveto
          -155 -92 -101 -133 -125 -103 108 219 9 vhcurveto
          -40 hlineto
          -61 -299 rlineto
          -49 60 122 -37 140 hhcurveto
          251 222 162 268 199 -109 151 -181 83 hvcurveto
          198 13 166 100 188 vvcurveto
          188 -163 114 -309 vhcurveto
          -668 hlineto
          -10 -43 rlineto
          111 -17 18 -20 -20 -93 -234 -1098 rcurveline
          -18 -94 -24 -19 -119 -17 -9 -43 rcurveline
          endchar
        </CharString>
        <CharString name="Geupturncyrillic">
          1100 1333 1389 rmoveto
          95 400 rlineto
          -47 hlineto
          -276 -127 -70 -69 -233 hhcurveto
          -591 hlineto
          -9 -43 108 -17 16 -19 -85 callgsubr
          -93 -22 -20 -47 callgsubr
          rlineto
          -126 19 -25 20 19 89 259 1218 rcurveline
          endchar
        </CharString>
        <CharString name="Gmacron">
          1513 887 -62 callsubr
          27 130 rlineto
          -500 hlineto
          -673 -1087 -34 callsubr
        </CharString>
        <CharString name="H">
          1544 511 173 rmoveto
          -71 callsubr
          127 callsubr
          endchar
        </CharString>
        <CharString name="Hacyrillic">
          1301 317 279 29 callsubr
        </CharString>
        <CharString name="Hardsigncyrillic">
          1532 1600 481 rmoveto
          237 -209 98 callgsubr
          25 21 126 17 rlinecurve
          9 43 -813 0 -86 -349 rlineto
          40 hlineto
          102 238 58 46 224 12 rrcurveto
          33 1 -260 -1221 rlineto
          -19 -90 -24 -21 -127 -17 -9 -43 rcurveline
          574 hlineto
          442 279 192 289 hvcurveto
          -305 26 rmoveto
          -259 -166 -183 -291 -11 vhcurveto
          -91 -3 161 752 93 -3 rlineto
          190 -7 104 -98 -188 vvcurveto
          endchar
        </CharString>
        <CharString name="Hbar">
          1544 511 63 callgsubr
          -23 -21 -114 -16 rlinecurve
          -9 -43 551 0 9 43 -109 16 -16 20 20 94 rlinecurve
          187 880 133 0 11 51 -133 0 36 167 19 93 24 21 117 16 rlinecurve
          9 43 -551 0 -9 -43 106 -16 15 -20 -20 -94 rlinecurve
          -36 -167 -596 0 36 167 20 93 24 21 113 16 rlinecurve
          8 43 -550 0 -10 -43 111 -17 15 -20 -20 -93 rlinecurve
          -35 -167 -133 0 -12 -51 134 0 -188 -880 -20 -93 -23 -20 -117 -17 rlinecurve
          -9 -43 551 0 9 43 -105 16 -16 21 20 93 rlinecurve
          126 594 rmoveto
          61 286 595 0 -60 -286 rlineto
          endchar
        </CharString>
        <CharString name="Hbrevebelow">
          1544 511 173 rmoveto
          -71 callsubr
          127 callsubr
          196 -613 24 callgsubr
          -75 54 76 -1 hvcurveto
          9 1 9 2 7 vhcurveto
          56 callgsubr
        </CharString>
        <CharString name="Hcaron">
          1544 1367 68 callsubr
          -172 62 callsubr
          -907 -1656 rmoveto
          -71 callsubr
          127 callsubr
          endchar
        </CharString>
        <CharString name="Hcedilla">
          1544 236 -15 callsubr
          -80 66 -119 -3 -4 0 -1 -4 hvcurveto
          90 102 rlineto
          3 258 vlineto
          10 43 -106 16 -17 21 20 93 rlinecurve
          -71 callsubr
          240 0 -145 -166 -7 -39 rlineto
          2 5 19 3 9 hhcurveto
          61 38 -30 -48 -46 -38 -30 -60 -51 -46 104 callgsubr
        </CharString>
        <CharString name="Hcircumflex">
          1544 892 1532 rmoveto
          244 145 173 -145 47 0 -128 -41 callgsubr
          -332 -1359 rmoveto
          -71 callsubr
          127 callsubr
          endchar
        </CharString>
        <CharString name="Hdieresis">
          1544 967 1566 rmoveto
          61 49 49 60 1 hvcurveto
          58 -44 46 -58 -62 -50 -49 -61 -58 44 -45 59 vhcurveto
          310 hmoveto
          62 64 callgsubr
          58 hhcurveto
          -766 -1393 rmoveto
          -71 callsubr
          127 callsubr
          endchar
        </CharString>
        <CharString name="Hdotaccent">
          1544 1123 1558 rmoveto
          67 53 52 65 62 -48 49 -64 -67 -54 -52 -66 -62 48 -48 65 hvcurveto
          -612 -1385 rmoveto
          -71 callsubr
          127 callsubr
          endchar
        </CharString>
        <CharString name="Hdotbelow">
          1544 511 173 rmoveto
          -71 callsubr
          127 callsubr
          202 -345 -75 callsubr
          -51 callsubr
        </CharString>
        <CharString name="I">
          9 callsubr
          -89 callsubr
        </CharString>
        <CharString name="IAcyrillic">
          1382 366 989 rmoveto
          -162 109 -99 153 -38 vhcurveto
          -284 -348 -138 -166 -99 -105 -88 -30 rlinecurve
          -8 -41 361 0 522 649 rlineto
          10 10 -1 10 hhcurveto
          123 hlineto
          -101 -475 -20 -95 -25 -19 -114 -16 rlinecurve
          -8 -43 553 0 8 43 rlineto
          -108 16 -17 19 20 95 233 1098 rcurveline
          20 94 24 20 117 16 9 43 rcurveline
          -564 hlineto
          -449 -259 -171 -284 hvcurveto
          294 -11 rmoveto
          235 157 166 298 11 vhcurveto
          90 3 -147 -691 -109 2 rlineto
          -184 4 -105 98 172 vvcurveto
          endchar
        </CharString>
        <CharString name="IJ">
          1323 511 173 -90 callsubr
          -2 callsubr
          678 83 rmoveto
          216 1015 20 93 23 21 118 16 rlinecurve
          9 43 -555 0 -10 -43 111 -16 15 -20 -19 2 callsubr
        </CharString>
        <CharString name="IJacute">
          1323 763 1814 rmoveto
          -193 -53 callsubr
          385 -1 rmoveto
          -193 -281 48 0 -7 callsubr
          -1168 -1640 -90 callsubr
          -2 callsubr
          678 83 rmoveto
          216 1015 20 93 23 21 118 16 rlinecurve
          9 43 -555 0 -10 -43 111 -16 15 -20 -19 2 callsubr
        </CharString>
        <CharString name="IUcyrillic">
          2175 51 hmoveto
          553 hlineto
          9 43 rlineto
          -105 16 -18 20 19 94 114 536 rcurveline
          222 hlineto
          -2 -25 -1 -26 -27 vvcurveto
          -383 242 -269 373 454 335 361 474 382 -241 270 -374 -1 vhcurveto
          -410 -1 -313 -293 -57 -406 rrcurveto
          -216 hlineto
          107 506 20 94 25 19 114 64 callsubr
          26 callgsubr
          1399 -5 rmoveto
          -223 -83 225 255 396 167 492 310 222 83 -224 -256 -396 -167 -492 -309 hvcurveto
          endchar
        </CharString>
        <CharString name="Iacute">
          659 763 1814 rmoveto
          -193 -53 callsubr
          -517 -1641 -90 callsubr
          -89 callsubr
        </CharString>
        <CharString name="Ibreve">
          659 695 1574 rmoveto
          177 99 124 178 5 hvcurveto
          14 callsubr
          10 callsubr
          -184 -1401 -90 callsubr
          -89 callsubr
        </CharString>
        <CharString name="Icaron">
          659 928 1830 -52 callgsubr
          -468 -1657 -90 callsubr
          -89 callsubr
        </CharString>
        <CharString name="Icircumflex">
          659 453 1533 rmoveto
          244 146 173 -146 46 0 -127 -41 callgsubr
          107 -1360 -90 callsubr
          -89 callsubr
        </CharString>
        <CharString name="Icyrillic">
          9 callsubr
          -89 callsubr
        </CharString>
        <CharString name="Idblgrave">
          659 489 1811 rmoveto
          -209 -5 hlineto
          136 callsubr
          -312 -1358 -90 callsubr
          -89 callsubr
        </CharString>
        <CharString name="Idieresis">
          659 528 1567 rmoveto
          -13 callsubr
          -59 94 callsubr
          -327 -1394 -90 callsubr
          -89 callsubr
        </CharString>
        <CharString name="Idieresisacute">
          659 1004 1850 rmoveto
          29 134 -599 -177 -8 -38 rlineto
          81 -208 -82 callgsubr
          10 -34 35 -53 hhcurveto
          -8 hlineto
          -53 -50 -35 -47 -10 hvcurveto
          -48 -11 35 -20 callgsubr
          -296 -1388 -90 callsubr
          -89 callsubr
        </CharString>
        <CharString name="Idotaccent">
          659 683 1559 -62 callgsubr
          -172 -1386 -90 callsubr
          -89 callsubr
        </CharString>
        <CharString name="Idotbelow">
          9 callsubr
          -2 callsubr
          -235 -345 -88 callsubr
          54 callsubr
        </CharString>
        <CharString name="Iecyrillic">
          1203 1388 1444 -96 callsubr
        </CharString>
        <CharString name="Igrave">
          659 654 1812 rmoveto
          -243 -6 hlineto
          -6 callsubr
          -229 -1358 -90 callsubr
          -89 callsubr
        </CharString>
        <CharString name="Ihookabove">
          659 720 1850 rmoveto
          -83 -68 -38 -62 -92 callgsubr
          43 hhcurveto
          61 34 -27 -44 -49 103 callsubr
          -209 -1677 -90 callsubr
          -89 callsubr
        </CharString>
        <CharString name="Iicyrillic">
          1555 51 hmoveto
          195 callsubr
        </CharString>
        <CharString name="Iinvertedbreve">
          659 700 1877 rmoveto
          -177 -99 -125 -178 -5 hvcurveto
          43 hlineto
          94 18 -38 callgsubr
          168 callsubr
          -189 -1704 -90 callsubr
          -89 callsubr
        </CharString>
        <CharString name="Iishortcyrillic">
          1555 1110 -61 callgsubr
          -48 15 rlineto
          -153 -46 -117 -81 -131 hhcurveto
          -51 -41 13 21 -31 hvcurveto
          -1 4 4 0 4 hhcurveto
          57 50 48 61 67 -50 49 -63 -70 -47 -53 -69 -102 83 -85 143 hvcurveto
          -1059 -1589 rmoveto
          195 callsubr
        </CharString>
        <CharString name="Imacron">
          659 423 1609 rmoveto
          500 hlineto
          -61 callsubr
          60 -1566 -90 callsubr
          -89 callsubr
        </CharString>
        <CharString name="Iocyrillic">
          1203 811 1566 rmoveto
          -13 callsubr
          -58 hhcurveto
          17 callsubr
          113 callsubr
          -1 hvcurveto
          -57 45 -46 58 vhcurveto
          267 -122 -96 callsubr
        </CharString>
        <CharString name="Iogonek">
          9 callsubr
          rlineto
          111 -15 15 -22 -20 -93 -234 -1098 rcurveline
          -20 -93 -23 -20 -117 -17 -9 -43 rcurveline
          265 hlineto
          -144 -92 -78 -110 -109 vvcurveto
          -96 79 -69 111 84 67 42 64 31 vhcurveto
          35 callgsubr
          242 hlineto
          9 43 -110 17 -15 20 20 93 rlinecurve
          endchar
        </CharString>
        <CharString name="Iotadieresisgreek">
          659 528 1567 rmoveto
          -13 callsubr
          -59 94 callsubr
          -327 -1394 -90 callsubr
          -89 callsubr
        </CharString>
        <CharString name="Iotagreek">
          9 callsubr
          -89 callsubr
        </CharString>
        <CharString name="Iotatonosgreek">
          1033 885 173 -90 callsubr
          -2 callsubr
          -529 1271 -63 callgsubr
          endchar
        </CharString>
        <CharString name="Itilde">
          659 783 1578 rmoveto
          79 1 63 55 22 185 rrcurveto
          -42 hlineto
          -81 -17 -24 -30 -38 hhcurveto
          -27 -22 11 22 -28 callsubr
          16 24 29 38 hhcurveto
          28 21 -11 -23 31 -16 callsubr
          -272 -1405 -90 callsubr
          -89 callsubr
        </CharString>
        <CharString name="Itildebelow">
          9 callsubr
          -2 callsubr
          -136 -581 108 callsubr
          -30 -24 125 callsubr
          -87 -69 -83 callgsubr
          167 callsubr
        </CharString>
        <CharString name="J">
          663 530 256 3 callsubr
          111 -16 15 -20 -19 2 callsubr
        </CharString>
        <CharString name="Jacute">
          663 753 -86 callsubr
          -53 callsubr
          -489 -1557 3 callsubr
          111 -16 15 -20 -19 2 callsubr
        </CharString>
        <CharString name="Jcircumflex">
          663 444 1532 rmoveto
          243 -48 callsubr
          -56 callgsubr
          136 -1276 3 callsubr
          111 -16 15 -20 -19 2 callsubr
        </CharString>
        <CharString name="Jecyrillic">
          663 530 256 3 callsubr
          111 -16 15 -20 -19 2 callsubr
        </CharString>
        <CharString name="K">
          1358 513 173 -3 callsubr
        </CharString>
        <CharString name="Kaacutecyrillic">
          1358 1147 -86 callsubr
          -53 callsubr
          -900 -1640 -3 callsubr
        </CharString>
        <CharString name="Kacute">
          1358 1147 -86 callsubr
          -53 callsubr
          -900 -1640 -3 callsubr
        </CharString>
        <CharString name="Kacyrillic">
          1358 513 173 -3 callsubr
        </CharString>
        <CharString name="Kappagreek">
          1358 513 173 -3 callsubr
        </CharString>
        <CharString name="Kcaron">
          1358 1313 -10 callsubr
          -851 -1656 -3 callsubr
        </CharString>
        <CharString name="Kcommaaccent">
          148 callsubr
          145 -625 18 callsubr
          11 callsubr
          15 25 4 -44 callgsubr
          35 67 -36 79 hhcurveto
          endchar
        </CharString>
        <CharString name="Kdotbelow">
          148 callsubr
          176 -345 -88 callsubr
          48 -49 64 -104 callgsubr
        </CharString>
        <CharString name="Klinebelow">
          148 callsubr
          -100 -525 -84 callsubr
        </CharString>
        <CharString name="L">
          1148 -39 callsubr
          endchar
        </CharString>
        <CharString name="Lacute">
          1148 750 -86 callsubr
          -53 callsubr
          52 -1813 rmoveto
          48 callsubr
          87 callsubr
          endchar
        </CharString>
        <CharString name="Lambdagreek">
          1357 1221 238 rmoveto
          -153 1210 -166 0 -650 -1179 -101 -184 -35 -26 -106 -16 rlinecurve
          -9 -43 383 0 9 43 -138 21 -16 34 103 193 rlinecurve
          476 897 101 -949 13 -136 -21 -43 -134 -16 rlinecurve
          -10 -44 589 0 9 44 -91 13 -35 30 -18 151 rlinecurve
          endchar
        </CharString>
        <CharString name="Lcaron">
          1148 1051 1090 -58 callgsubr
          61 -1090 rmoveto
          48 callsubr
          87 callsubr
          endchar
        </CharString>
        <CharString name="Lcircumflexbelow">
          1148 -39 callsubr
          234 -449 rmoveto
          255 128 callsubr
          -145 0 -258 -330 rlineto
          endchar
        </CharString>
        <CharString name="Lcommaaccent">
          1148 -39 callsubr
          454 -452 rmoveto
          141 92 -21 callsubr
          72 callsubr
          -18 callsubr
        </CharString>
        <CharString name="Ldot">
          1148 -39 callsubr
          939 687 rmoveto
          79 63 62 76 73 -56 57 -76 -78 -64 -61 -78 -72 57 -57 75 hvcurveto
          endchar
        </CharString>
        <CharString name="Ldotbelow">
          1148 -39 callsubr
          484 -172 -88 callsubr
          22 callsubr
        </CharString>
        <CharString name="Ldotbelowmacron">
          1148 411 -62 callsubr
          -61 callsubr
          629 -1738 rmoveto
          48 callsubr
          87 callsubr
          484 -172 -88 callsubr
          22 callsubr
        </CharString>
        <CharString name="Ljecyrillic">
          2025 39 128 rmoveto
          -87 61 -64 99 207 101 254 504 132 vhcurveto
          60 216 51 206 50 231 rrcurveto
          435 hlineto
          -258 -1217 rlineto
          -19 -90 -25 -21 -132 -17 -9 -43 rcurveline
          580 hlineto
          442 279 192 289 237 -209 137 -335 hvcurveto
          -138 hlineto
          90 418 19 90 24 21 125 17 rlinecurve
          9 43 -1123 222 callsubr
          vhcurveto
          1750 379 rmoveto
          -259 -166 -183 -291 -11 vhcurveto
          -91 -3 159 750 95 -1 rlineto
          188 -4 106 -101 -188 vvcurveto
          endchar
        </CharString>
        <CharString name="Llinebelow">
          1148 -39 callsubr
          208 -352 -84 callsubr
        </CharString>
        <CharString name="Lslash">
          1148 193 660 rmoveto
          143 40 -113 -527 -19 -92 -22 -21 -119 -17 rlinecurve
          -9 -43 1014 0 48 callsubr
          156 734 338 93 12 56 -338 -93 91 431 20 93 24 20 122 17 rlinecurve
          9 43 -560 0 -9 -43 109 -16 15 -25 -22 -105 rlinecurve
          -106 -500 -142 -39 rlineto
          endchar
        </CharString>
        <CharString name="M">
          1760 813 1444 33 callsubr
        </CharString>
        <CharString name="Macute">
          1760 1316 -86 callsubr
          -52 callsubr
          -769 -369 33 callsubr
        </CharString>
        <CharString name="Mdotaccent">
          1760 1237 -80 callsubr
          -64 -67 74 callsubr
          -424 -114 33 callsubr
        </CharString>
        <CharString name="Mdotbelow">
          1760 813 1444 rmoveto
          -427 hlineto
          -9 -43 105 -19 21 -41 -30 -120 rlinecurve
          -230 -937 -45 -180 -30 -41 -123 -20 rlinecurve
          -9 -43 375 0 9 43 -125 20 -11 38 41 183 rlinecurve
          211 966 181 -1250 131 0 171 331 515 935 -197 -1097 -16 -88 -25 -20 -119 -18 rlinecurve
          -9 -43 554 0 9 43 -19 callgsubr
          -238 -513 -75 callsubr
          54 52 66 62 -48 48 -64 hvcurveto
          endchar
        </CharString>
        <CharString name="Mugreek">
          1760 813 1444 33 callsubr
        </CharString>
        <CharString name="N">
          1432 -43 callsubr
          endchar
        </CharString>
        <CharString name="Nacute">
          1432 1151 -66 callsubr
          24 callsubr
          -676 -369 -31 callsubr
          37 callsubr
        </CharString>
        <CharString name="Ncaron">
          1432 1316 -10 callsubr
          -627 -385 -31 callsubr
          37 callsubr
        </CharString>
        <CharString name="Ncircumflexbelow">
          1432 -43 callsubr
          -864 -780 106 callsubr
        </CharString>
        <CharString name="Ncommaaccent">
          1432 -43 callsubr
          -645 -783 -26 callgsubr
          -72 -60 107 callgsubr
          41 -25 -47 -48 -41 -27 -64 -49 -40 20 22 -18 callsubr
        </CharString>
        <CharString name="Ndotaccent">
          1432 1071 -80 callsubr
          -63 -91 callgsubr
          -331 -114 -31 callsubr
          37 callsubr
        </CharString>
        <CharString name="Ndotbelow">
          1432 -43 callsubr
          -615 -503 -75 callsubr
          -51 callsubr
        </CharString>
        <CharString name="Ngrave">
          1432 1042 -57 callgsubr
          -388 -86 -31 callsubr
          37 callsubr
        </CharString>
        <CharString name="Njecyrillic">
          2106 519 173 rmoveto
          124 581 540 0 -123 -581 rlineto
          -20 -93 -23 -20 -117 -17 -9 -43 rcurveline
          563 hlineto
          442 278 183 276 224 -209 129 -337 hvcurveto
          -143 hlineto
          98 461 19 90 25 21 125 17 rlinecurve
          9 43 -564 0 -9 -43 108 -17 17 -19 -20 -94 rlinecurve
          -97 -459 -541 0 98 459 20 93 24 20 115 64 callsubr
          108 -17 17 -19 -85 callgsubr
          -93 -24 -20 -116 -17 rlinecurve
          -9 -43 552 0 10 43 -106 16 -18 20 19 94 rlinecurve
          1351 310 rmoveto
          -245 -167 -173 -289 -11 vhcurveto
          -91 -3 151 707 100 -2 rlineto
          193 -4 103 -92 -177 vvcurveto
          endchar
        </CharString>
        <CharString name="Nlinebelow">
          1432 -43 callsubr
          -890 -683 rmoveto
          515 hlineto
          29 136 rlineto
          -516 hlineto
          endchar
        </CharString>
        <CharString name="Ntilde">
          1432 1171 5 callsubr
          131 callsubr
          -28 callsubr
          -36 callsubr
          31 -16 callsubr
          -431 -133 -31 callsubr
          37 callsubr
        </CharString>
        <CharString name="Nugreek">
          1432 -43 callsubr
          endchar
        </CharString>
        <CharString name="O">
          1594 880 -21 -100 callsubr
        </CharString>
        <CharString name="OE">
          1964 242 638 rmoveto
          -399 271 -260 383 vhcurveto
          123 62 21 127 hhcurveto
          688 hlineto
          102 405 rlineto
          -38 hlineto
          -106 -256 -108 -78 -268 -12 rrcurveto
          -203 -9 141 662 200 -4 124 -5 20 -49 -4 -160 rlinecurve
          37 hlineto
          101 475 rlineto
          -37 hlineto
          -59 -150 -43 -44 -127 -5 rrcurveto
          -201 -4 133 628 184 -9 249 -13 42 -58 13 -241 rlinecurve
          38 hlineto
          62 371 rlineto
          -712 hlineto
          -149 -71 22 -148 hhcurveto
          -484 -342 -360 -468 hvcurveto
          305 -103 rmoveto
          402 205 469 351 74 56 -13 -18 35 vhcurveto
          -281 -1322 rlineto
          -11 -27 -29 -4 -30 hhcurveto
          -227 -127 189 308 hvcurveto
          endchar
        </CharString>
        <CharString name="Oacute">
          1594 1173 -66 callsubr
          -7 callsubr
          -559 -1834 -100 callsubr
        </CharString>
        <CharString name="Obreve">
          1594 1105 -66 callgsubr
          -107 10 callsubr
          -225 -1594 -100 callsubr
        </CharString>
        <CharString name="Ocaron">
          1594 1338 68 callsubr
          -172 62 callsubr
          -509 -1850 -100 callsubr
        </CharString>
        <CharString name="Ocircumflex">
          1594 863 -20 callsubr
          47 0 -128 -41 callgsubr
          66 -1553 -100 callsubr
        </CharString>
        <CharString name="Ocircumflexacute">
          1594 1410 -8 callgsubr
          -299 -177 rlineto
          92 -1561 -100 callsubr
        </CharString>
        <CharString name="Ocircumflexdotbelow">
          1594 863 -20 callsubr
          47 0 -128 -41 callgsubr
          66 -1553 115 callsubr
          134 callsubr
          153 callsubr
          -62 -213 -75 callsubr
          -51 callsubr
        </CharString>
        <CharString name="Ocircumflexgrave">
          1594 850 1828 rmoveto
          543 -81 8 38 -523 177 rlineto
          -98 -460 -45 callsubr
          23 callsubr
          -299 -177 rlineto
          92 -1561 -100 callsubr
        </CharString>
        <CharString name="Ocircumflexhookabove">
          1594 1389 -42 callgsubr
          -7 -30 rlineto
          14 23 44 11 42 hhcurveto
          61 31 -25 -35 -7 hvcurveto
          -8 -36 -38 -26 -68 -15 rrcurveto
          32 -23 99 callgsubr
          -609 -417 -45 callsubr
          23 callsubr
          -299 -177 rlineto
          92 -1561 -100 callsubr
        </CharString>
        <CharString name="Ocircumflextilde">
          1594 1238 1778 rmoveto
          100 75 57 111 22 hvcurveto
          -49 hlineto
          -47 -11 -32 -20 -48 hhcurveto
          -29 -30 7 12 -38 hvcurveto
          -32 10 rlineto
          13 -42 -42 10 -48 hhcurveto
          -100 -76 -57 -111 -22 hvcurveto
          49 hlineto
          48 12 31 19 50 hhcurveto
          -15 callgsubr
          -299 -177 rlineto
          92 -1561 -100 callsubr
        </CharString>
        <CharString name="Ocyrillic">
          1594 880 -21 -100 callsubr
        </CharString>
        <CharString name="Odblgrave">
          1594 899 -90 callgsubr
          136 callsubr
          -353 -1551 -100 callsubr
        </CharString>
        <CharString name="Odieresis">
          1594 938 1566 rmoveto
          61 49 49 -77 callgsubr
          113 callsubr
          hvcurveto
          -57 -1 45 -46 58 hhcurveto
          -368 -1587 -100 callsubr
        </CharString>
        <CharString name="Odieresismacron">
          1594 849 1824 60 callsubr
          43 callgsubr
          27 callsubr
          -10 34 -34 54 hhcurveto
          316 hmoveto
          53 49 34 48 76 callgsubr
          -10 35 -34 54 hhcurveto
          -338 -1581 -100 callsubr
        </CharString>
        <CharString name="Odotaccent">
          1594 1094 101 callsubr
          -214 -1579 -100 callsubr
        </CharString>
        <CharString name="Odotaccentmacron">
          1594 844 1801 rmoveto
          561 hlineto
          21 103 rlineto
          -561 hlineto
          228 -348 rmoveto
          56 42 36 51 -1 hvcurveto
          49 -46 37 -56 -55 -42 -37 -49 1 vhcurveto
          -51 45 -36 56 vhcurveto
          -213 -1577 -100 callsubr
        </CharString>
        <CharString name="Odotbelow">
          1594 880 -21 115 callsubr
          134 callsubr
          153 callsubr
          -62 -213 -75 callsubr
          -51 callsubr
        </CharString>
        <CharString name="Ograve">
          1594 1065 19 callsubr
          -6 callsubr
          -270 -1551 -100 callsubr
        </CharString>
        <CharString name="Ohookabove">
          1594 1130 -11 callsubr
          -92 callgsubr
          43 hhcurveto
          61 34 -27 -44 -49 -46 -50 -91 -47 hvcurveto
          47 hlineto
          158 45 81 65 81 vvcurveto
          73 -64 51 -92 vhcurveto
          -250 -1870 -100 callsubr
        </CharString>
        <CharString name="Ohorn">
          1609 237 630 47 callsubr
        </CharString>
        <CharString name="Ohornacute">
          1609 1175 -66 callsubr
          -7 callsubr
          -1204 -1183 47 callsubr
        </CharString>
        <CharString name="Ohorndotbelow">
          1609 237 630 rmoveto
          -390 -1 261 -260 384 hhcurveto
          71 callsubr
          186 callsubr
          265 -680 -88 callsubr
          48 -49 64 -104 callgsubr
        </CharString>
        <CharString name="Ohorngrave">
          1609 1067 19 callsubr
          -6 callsubr
          -915 -900 47 callsubr
        </CharString>
        <CharString name="Ohornhookabove">
          1609 1132 -11 callsubr
          -38 hvcurveto
          -8 -33 rlineto
          21 28 38 14 43 hhcurveto
          61 34 -27 -44 -49 -46 -50 -90 -47 hvcurveto
          46 hlineto
          158 45 81 65 81 vvcurveto
          73 -64 51 -92 vhcurveto
          -895 -1219 47 callsubr
        </CharString>
        <CharString name="Ohorntilde">
          1609 1195 1577 rmoveto
          80 130 callsubr
          -30 -39 hhcurveto
          -26 -22 11 22 -31 hvcurveto
          -27 20 rlineto
          27 -37 -37 17 -47 hhcurveto
          -79 -63 -56 -183 -22 hvcurveto
          43 hlineto
          81 -36 callsubr
          30 -16 callsubr
          -958 -947 47 callsubr
        </CharString>
        <CharString name="Ohungarumlaut">
          1594 1001 1811 rmoveto
          -116 -280 45 0 287 277 rlineto
          4 vlineto
          109 -1 rmoveto
          -172 -280 48 0 353 277 rlineto
          4 vlineto
          -675 -1833 -100 callsubr
        </CharString>
        <CharString name="Oinvertedbreve">
          1594 1110 122 callsubr
          172 callsubr
          -230 -1897 -100 callsubr
        </CharString>
        <CharString name="Omacron">
          1594 833 -62 callsubr
          -61 callsubr
          19 -1759 -100 callsubr
        </CharString>
        <CharString name="Omacronacute">
          1594 1415 1849 rmoveto
          28 51 callgsubr
          59 -1715 -100 callsubr
        </CharString>
        <CharString name="Omacrongrave">
          1594 855 1849 rmoveto
          543 -80 8 37 -524 178 rlineto
          -83 -393 60 callsubr
          59 -1715 -100 callsubr
        </CharString>
        <CharString name="Omegagreek">
          1691 138 hmoveto
          600 hlineto
          57 273 rlineto
          -157 69 -88 157 12 258 13 34 callgsubr
          -11 -313 -153 -242 -270 -87 rrcurveto
          -57 -270 618 0 124 360 rlineto
          -34 hlineto
          -109 -162 -129 108 callgsubr
          10 301 10 318 -260 256 -423 1 -493 1 -311 -305 -11 -356 -11 -272 173 -224 322 -69 rrcurveto
          -16 -80 -386 2 -88 37 -39 162 rlinecurve
          -35 hlineto
          endchar
        </CharString>
        <CharString name="Omegatonosgreek">
          1874 321 hmoveto
          600 hlineto
          57 273 rlineto
          -157 69 -87 157 12 258 12 34 callgsubr
          -10 -313 -154 -242 -270 -87 rrcurveto
          -57 -270 618 0 125 360 rlineto
          -35 hlineto
          -108 -162 -130 108 callgsubr
          11 301 9 318 -260 256 -423 1 -492 1 -312 -305 -11 -356 -10 -272 172 -224 323 -69 rrcurveto
          -17 -80 -385 2 -89 37 -39 162 rlinecurve
          -35 hlineto
          2 1084 -63 callgsubr
          endchar
        </CharString>
        <CharString name="Omicrongreek">
          1594 880 -21 -100 callsubr
        </CharString>
        <CharString name="Omicrontonosgreek">
          1778 1065 -21 115 callsubr
          -382 -461 -322 -376 -457 -1 hvcurveto
          -391 -1 261 -261 383 hhcurveto
          -709 1465 -63 callgsubr
          428 -1403 rmoveto
          -191 -122 158 309 411 196 483 304 192 122 -157 -310 -89 callgsubr
          hvcurveto
          endchar
        </CharString>
        <CharString name="Oogonek">
          1594 881 -20 rmoveto
          71 callsubr
          184 callsubr
        </CharString>
        <CharString name="Oogonekmacron">
          1594 833 -62 callsubr
          -61 callsubr
          20 -1758 rmoveto
          71 callsubr
          184 callsubr
        </CharString>
        <CharString name="Oslash">
          1594 881 -20 rmoveto
          71 callsubr
          179 callsubr
        </CharString>
        <CharString name="Oslashacute">
          1594 1173 -66 callsubr
          -7 callsubr
          -558 -1833 rmoveto
          71 callsubr
          179 callsubr
        </CharString>
        <CharString name="Otilde">
          1594 1193 5 callsubr
          -42 hlineto
          -81 -16 -24 3 callgsubr
          44 hlineto
          81 -36 callsubr
          30 -16 callsubr
          -313 -1598 -100 callsubr
        </CharString>
        <CharString name="Otildeacute">
          1594 1415 1849 rmoveto
          28 134 -598 -177 -8 -38 rlineto
          356 -202 rmoveto
          99 76 137 callsubr
          -49 hhcurveto
          -29 -29 7 12 -38 hvcurveto
          -32 -93 callgsubr
          -76 57 callsubr
          48 hhcurveto
          29 29 -7 -12 38 hvcurveto
          32 -10 rlineto
          -13 43 41 -10 49 hhcurveto
          -313 -1587 -100 callsubr
        </CharString>
        <CharString name="Otildedieresis">
          1594 967 1793 rmoveto
          54 49 35 47 10 hvcurveto
          48 -5 callsubr
          -54 -49 -35 -48 -10 hvcurveto
          -47 -10 34 -35 53 hhcurveto
          316 hmoveto
          53 49 35 47 11 hvcurveto
          48 9 -33 35 -54 hhcurveto
          -8 hlineto
          -53 -50 -35 -48 -10 hvcurveto
          -47 -10 35 -35 53 hhcurveto
          -74 -227 rmoveto
          99 76 137 callsubr
          -49 hhcurveto
          -29 -29 7 12 -38 hvcurveto
          -32 -93 callgsubr
          -76 57 callsubr
          48 hhcurveto
          29 29 -7 -12 38 hvcurveto
          32 -10 rlineto
          -13 43 41 -10 49 hhcurveto
          -313 -1587 -100 callsubr
        </CharString>
        <CharString name="Otildemacron">
          1594 848 1824 rmoveto
          562 hlineto
          22 103 rlineto
          -561 hlineto
          322 -361 rmoveto
          99 76 137 callsubr
          -49 hhcurveto
          -29 -29 7 12 -38 hvcurveto
          -32 -93 callgsubr
          -76 57 callsubr
          48 hhcurveto
          29 29 -7 -12 38 hvcurveto
          32 -10 rlineto
          -13 43 41 -10 49 hhcurveto
          -313 -1587 -100 callsubr
        </CharString>
        <CharString name="P">
          1299 628 hmoveto
          32 callsubr
        </CharString>
        <CharString name="Pacute">
          1299 1035 -86 callsubr
          -280 48 0 410 275 rlineto
          5 vlineto
          -673 -1813 rmoveto
          32 callsubr
        </CharString>
        <CharString name="Pdotaccent">
          1299 956 1558 rmoveto
          67 54 53 65 62 -49 49 -63 -67 -55 -53 -65 -62 49 -49 64 hvcurveto
          -328 -1558 rmoveto
          32 callsubr
        </CharString>
        <CharString name="Pecyrillic">
          1536 1386 173 rmoveto
          234 1098 19 95 25 19 116 16 rlinecurve
          9 43 -1432 0 -9 -43 109 -17 17 -19 -85 callgsubr
          -94 -23 -19 -82 callsubr
          553 0 9 43 -105 16 -18 20 20 94 rlinecurve
          259 1215 586 0 -258 -1215 -20 -95 -24 -19 -115 -16 rlinecurve
          -9 -43 553 0 9 43 -107 16 -18 19 20 95 rlinecurve
          endchar
        </CharString>
        <CharString name="Phigreek">
          1851 232 704 rmoveto
          -25 -301 220 -182 408 -20 rrcurveto
          -7 -32 -19 -89 -25 -26 -116 -15 rlinecurve
          -8 -40 531 0 9 40 rlineto
          -111 16 -16 25 19 89 6 31 rcurveline
          473 11 327 191 25 342 24 302 -228 177 -400 20 rrcurveto
          6 31 19 89 26 26 115 15 rlinecurve
          8 40 -532 0 -7 -40 111 -16 15 -25 -19 -89 rlinecurve
          -6 -30 -462 -10 -335 -185 -26 -345 rlinecurve
          301 -16 rmoveto
          19 266 144 227 348 12 rrcurveto
          -198 -938 -240 26 -93 167 20 240 rlinecurve
          1090 69 rmoveto
          -20 -267 -142 -226 -352 -12 rrcurveto
          199 938 239 -27 94 -168 -18 -238 rlinecurve
          endchar
        </CharString>
        <CharString name="Pigreek">
          1559 1401 175 rmoveto
          233 1093 20 94 24 22 123 17 rlinecurve
          9 43 -1448 0 -10 -43 118 -18 13 -21 -20 -93 rlinecurve
          -233 -1096 -19 -91 -23 -21 -124 -19 rlinecurve
          -9 -43 565 0 9 43 -114 18 -15 22 20 91 rlinecurve
          258 1214 591 0 -256 -1212 -20 -93 -23 -21 -122 -18 rlinecurve
          -9 -43 564 0 9 43 -116 17 -14 22 19 93 rlinecurve
          endchar
        </CharString>
        <CharString name="Psigreek">
          1813 597 hmoveto
          584 hlineto
          9 43 rlineto
          -130 18 -18 23 19 89 76 356 rcurveline
          353 12 180 103 132 369 76 214 rcurveline
          46 128 37 30 91 7 9 44 rcurveline
          4 -29 -56 4 -52 hhcurveto
          -171 -88 -49 -192 -68 hvcurveto
          -77 -215 -104 -288 -83 -96 -185 -19 rlinecurve
          145 684 20 93 25 24 108 15 rlinecurve
          10 43 -524 0 -9 -43 rlineto
          102 -15 14 -24 -20 -93 -145 -684 rcurveline
          -178 18 -42 96 20 289 15 209 rcurveline
          192 13 -68 55 -174 hhcurveto
          -50 -59 -4 -4 -30 hvcurveto
          -9 -44 87 -7 28 -30 -9 -128 rlinecurve
          -15 -214 -26 -366 133 -106 352 -12 rlinecurve
          -75 -356 -19 -89 -28 -25 -135 -16 rlinecurve
          endchar
        </CharString>
        <CharString name="Q">
          1610 1278 -380 rmoveto
          100 94 30 50 67 hvcurveto
          8 40 rlineto
          -121 -12 -89 35 -155 136 -117 102 rcurveline
          360 86 238 333 393 vvcurveto
          391 -260 260 134 callsubr
          vhcurveto
          -333 188 -238 293 -64 vhcurveto
          174 -171 rlineto
          -159 163 102 -46 121 hhcurveto
          -421 421 rmoveto
          -192 -122 158 309 411 197 483 304 191 123 -157 -310 -89 callgsubr
          hvcurveto
          endchar
        </CharString>
        <CharString name="R">
          1354 1021 hmoveto
          30 callsubr
          endchar
        </CharString>
        <CharString name="Racute">
          1354 1037 -66 callsubr
          -7 callsubr
          -282 -1813 rmoveto
          30 callsubr
          endchar
        </CharString>
        <CharString name="Rcaron">
          1354 1202 68 callsubr
          -172 62 callsubr
          -232 -1829 rmoveto
          30 callsubr
          endchar
        </CharString>
        <CharString name="Rcommaaccent">
          1354 1021 hmoveto
          30 callsubr
          -459 -1540 18 callsubr
          11 callsubr
          14 26 4 -44 callgsubr
          35 66 -36 80 hhcurveto
          endchar
        </CharString>
        <CharString name="Rdblgrave">
          1354 763 -90 callgsubr
          136 callsubr
          -76 -1530 rmoveto
          30 callsubr
          endchar
        </CharString>
        <CharString name="Rdotaccent">
          1354 958 101 callsubr
          63 -1558 rmoveto
          30 callsubr
          endchar
        </CharString>
        <CharString name="Rdotbelow">
          1354 1021 hmoveto
          30 callsubr
          -428 -1260 -88 callsubr
          124 callsubr
        </CharString>
        <CharString name="Rdotbelowmacron">
          1354 697 -62 callsubr
          -61 callsubr
          296 -1738 rmoveto
          30 callsubr
          -428 -1260 -88 callsubr
          124 callsubr
        </CharString>
        <CharString name="Rhogreek">
          1299 628 hmoveto
          32 callsubr
        </CharString>
        <CharString name="Rinvertedbreve">
          1354 974 122 callsubr
          172 callsubr
          47 -1876 rmoveto
          30 callsubr
          endchar
        </CharString>
        <CharString name="Rlinebelow">
          1354 1021 hmoveto
          30 callsubr
          -704 -1440 -84 callsubr
        </CharString>
        <CharString name="S">
          1128 580 -22 77 callsubr
          endchar
        </CharString>
        <CharString name="Sacute">
          1128 981 -86 callsubr
          -52 callsubr
          -667 -1835 77 callsubr
          endchar
        </CharString>
        <CharString name="Sacutedotaccent">
          1128 944 1763 rmoveto
          56 42 36 49 hvcurveto
          50 -1 -46 37 -56 hhcurveto
          -55 -42 -37 -50 hvcurveto
          80 callgsubr
          -17 -1565 77 callsubr
          endchar
        </CharString>
        <CharString name="Scaron">
          1128 1146 7 callsubr
          129 callsubr
          -617 -1851 77 callsubr
          endchar
        </CharString>
        <CharString name="Scarondotaccent">
          1128 948 1783 rmoveto
          56 43 36 50 -1 hvcurveto
          50 -1 -45 36 -56 hhcurveto
          -55 55 callgsubr
          -269 84 -8 -38 231 -177 38 0 306 177 rlineto
          -625 -1750 77 callsubr
          endchar
        </CharString>
        <CharString name="Scedilla">
          1128 491 -15 callsubr
          -99 callgsubr
          74 82 rlineto
          293 2 246 166 276 vvcurveto
          156 -73 120 -171 120 vhcurveto
          -109 81 rlineto
          -127 90 -49 77 101 vvcurveto
          143 105 94 160 182 110 -136 -263 9 vhcurveto
          39 hlineto
          55 349 rlineto
          61 -76 -147 51 -187 hhcurveto
          -319 -205 -170 -253 -157 80 -114 162 -114 hvcurveto
          110 -81 rlineto
          130 -91 46 -84 -111 vvcurveto
          -160 -129 -92 -157 -186 -148 120 278 -1 vhcurveto
          -39 hlineto
          -58 -357 79 -52 161 -42 158 -7 rlinecurve
          -130 -145 -50 callsubr
          -102 callgsubr
          92 hhcurveto
          endchar
        </CharString>
        <CharString name="Schwa">
          1488 755 -22 rmoveto
          444 322 361 455 407 -245 265 -405 -167 -175 -39 -71 -102 hvcurveto
          -80 -356 rlineto
          39 hlineto
          272 111 183 132 184 hhcurveto
          245 103 -226 -311 -60 -3 -59 -6 -56 hvcurveto
          -958 hlineto
          -20 -55 -15 -73 -74 vvcurveto
          -245 128 -267 417 vhcurveto
          -275 420 rmoveto
          85 11 90 21 62 vhcurveto
          684 2 rlineto
          -355 -49 -164 -245 -227 hhcurveto
          -196 -80 161 200 hvcurveto
          endchar
        </CharString>
        <CharString name="Scircumflex">
          1128 671 1532 rmoveto
          244 -48 callsubr
          -128 -41 callgsubr
          -42 -1554 77 callsubr
          endchar
        </CharString>
        <CharString name="Scommaaccent">
          1128 580 -22 77 callsubr
          -106 -430 18 callsubr
          11 callsubr
          14 26 4 72 callsubr
          -27 12 callsubr
        </CharString>
        <CharString name="Sdotaccent">
          1128 902 -80 callsubr
          -64 -67 74 callsubr
          -322 -1580 77 callsubr
          endchar
        </CharString>
        <CharString name="Sdotbelow">
          1128 580 -22 77 callsubr
          -75 -150 -88 callsubr
          124 callsubr
        </CharString>
        <CharString name="Sdotbelowdotaccent">
          1128 902 -80 callsubr
          -64 -67 74 callsubr
          -322 -1580 77 callsubr
          -75 -150 -88 callsubr
          124 callsubr
        </CharString>
        <CharString name="Shacyrillic">
          2277 454 1271 rmoveto
          -234 -1098 -20 -95 -24 -19 -116 -16 rlinecurve
          -9 -43 2152 0 9 43 -108 17 -17 19 20 94 rlinecurve
          234 1098 19 -39 callgsubr
          214 callsubr
          19 95 24 29 callgsubr
        </CharString>
        <CharString name="Shchacyrillic">
          2281 166 callsubr
          1831 hlineto
          226 32 -61 -269 16 hvcurveto
          47 hlineto
          68 387 -189 0 259 1214 19 -39 callgsubr
          214 callsubr
          20 95 23 29 callgsubr
        </CharString>
        <CharString name="Sigmagreek">
          84 callgsubr
          -41 388 -721 -648 -640 -8 -42 1111 0 111 448 rlineto
          -44 hlineto
          -209 -97 -86 -37 -290 hhcurveto
          -446 hlineto
          637 622 3 17 -300 553 336 -8 290 -7 52 -60 4 -226 rlinecurve
          40 hlineto
          endchar
        </CharString>
        <CharString name="Softsigncyrillic">
          1267 208 callsubr
          -303 26 -13 callgsubr
        </CharString>
        <CharString name="T">
          -30 callsubr
          endchar
        </CharString>
        <CharString name="Taugreek">
          -30 callsubr
          endchar
        </CharString>
        <CharString name="Tbar">
          1299 376 714 rmoveto
          280 hlineto
          -115 -544 -19 -88 -26 -22 -136 -17 rlinecurve
          -9 -43 135 callsubr
          88 rlinecurve
          116 544 284 0 11 52 -284 0 133 628 45 -3 235 -17 62 -67 3 -234 rlinecurve
          40 hlineto
          61 371 -1161 0 50 callsubr
          -134 -628 rlineto
          -280 hlineto
          endchar
        </CharString>
        <CharString name="Tcaron">
          1299 1246 68 callsubr
          -172 62 callsubr
          239 -385 rmoveto
          -1161 hlineto
          50 callsubr
          112 callsubr
          135 callsubr
          102 callsubr
          endchar
        </CharString>
        <CharString name="Tcedilla">
          1299 579 -15 callsubr
          -80 66 -118 -4 -4 0 -1 -4 hvcurveto
          90 102 rlineto
          3 260 vlineto
          9 43 -130 18 -17 21 19 102 callsubr
          61 371 -1161 0 50 callsubr
          112 callsubr
          284 0 -145 -166 -8 -60 callgsubr
          -38 -30 -60 -50 -47 104 callgsubr
        </CharString>
        <CharString name="Tcircumflexbelow">
          -30 callsubr
          -1131 -1522 rmoveto
          254 128 callsubr
          -144 0 -258 -330 rlineto
          endchar
        </CharString>
        <CharString name="Tcommaaccent">
          -30 callsubr
          -912 -1525 -26 callgsubr
          -71 -61 107 callgsubr
          42 -25 -47 -48 -42 -27 -64 -49 -40 20 22 -26 12 callsubr
        </CharString>
        <CharString name="Tdotaccent">
          1299 1002 1558 rmoveto
          67 53 53 64 63 -48 49 -64 -67 -54 -53 -66 -61 48 -49 65 hvcurveto
          534 -114 rmoveto
          -1161 hlineto
          50 callsubr
          112 callsubr
          135 callsubr
          102 callsubr
          endchar
        </CharString>
        <CharString name="Tdotbelow">
          -30 callsubr
          -882 -1245 -75 callsubr
          -51 callsubr
        </CharString>
        <CharString name="Tecyrillic">
          -30 callsubr
          endchar
        </CharString>
        <CharString name="Thetagreek">
          1643 886 -22 rmoveto
          457 343 356 444 15 hvcurveto
          16 392 -243 298 -416 -2 -457 -1 -340 -359 -15 -444 rrcurveto
          -389 -16 241 -295 415 hhcurveto
          4 55 rmoveto
          -237 -119 232 357 21 hvcurveto
          407 22 150 382 327 hhcurveto
          242 117 -230 -363 -21 hvcurveto
          -406 -22 -155 -379 -325 hhcurveto
          -246 454 rmoveto
          35 hlineto
          145 50 51 61 108 hhcurveto
          149 hlineto
          107 25 -61 -145 -12 hvcurveto
          35 hlineto
          100 469 rlineto
          -35 hlineto
          -145 -52 -51 -57 -105 hhcurveto
          -149 hlineto
          -105 -25 57 145 9 hvcurveto
          -35 hlineto
          endchar
        </CharString>
        <CharString name="Thorn">
          1305 225 172 rmoveto
          -20 -93 -24 -19 -116 -17 rrcurveto
          -9 -43 554 0 9 43 rlineto
          -107 16 -18 19 20 94 34 164 rcurveline
          153 hlineto
          364 308 157 280 218 -181 148 -342 hvcurveto
          -131 hlineto
          29 132 19 94 25 19 115 16 rlinecurve
          10 44 -555 0 -9 -44 108 -16 17 -19 -20 -94 rlinecurve
          615 -468 rmoveto
          1 -214 -136 -187 -285 -12 rrcurveto
          -94 -3 150 701 89 -2 rlineto
          179 -8 96 -119 -156 vvcurveto
          endchar
        </CharString>
        <CharString name="Tlinebelow">
          -30 callsubr
          -1157 -1425 -84 callsubr
        </CharString>
        <CharString name="Tsecyrillic">
          1560 166 callsubr
          1109 hlineto
          227 32 -61 -269 17 hvcurveto
          46 hlineto
          69 387 -190 0 257 1214 20 -39 callgsubr
          105 -16 18 -20 -20 -94 rlinecurve
          -258 -1214 -586 0 258 1214 19 95 24 29 callgsubr
        </CharString>
        <CharString name="Tshecyrillic">
          1776 1541 1444 rmoveto
          -1167 hlineto
          220 callsubr
          23 70 74 16 93 hhcurveto
          201 76 -122 -223 -48 hvcurveto
          -86 -405 423 0 9 43 rlineto
          -109 16 -16 19 19 94 43 200 rcurveline
          305 63 -168 149 -318 hhcurveto
          -130 -96 -23 -34 -87 hvcurveto
          133 625 69 -4 229 -16 60 -64 6 -237 rlinecurve
          39 hlineto
          endchar
        </CharString>
        <CharString name="U">
          1464 772 -22 -91 callsubr
        </CharString>
        <CharString name="Uacute">
          1464 1213 -86 callsubr
          -52 callsubr
          -707 -1835 -91 callsubr
        </CharString>
        <CharString name="Ubreve">
          1464 1145 -66 callgsubr
          -106 -74 -37 callgsubr
          105 callgsubr
          -373 -1595 -91 callsubr
        </CharString>
        <CharString name="Ubrevecyrillic">
          1411 1119 -61 callgsubr
          8 callgsubr
          56 50 48 61 67 -50 49 -63 -69 -48 -53 -69 -102 83 -85 143 hvcurveto
          -887 -1464 188 callsubr
        </CharString>
        <CharString name="Ucaron">
          1464 1378 7 callsubr
          129 callsubr
          -657 -1851 -91 callsubr
        </CharString>
        <CharString name="Ucircumflex">
          1464 903 -20 callsubr
          47 0 -128 -41 callgsubr
          -82 -1554 -91 callsubr
        </CharString>
        <CharString name="Ucircumflexbelow">
          86 callsubr
          -296 -427 rmoveto
          254 128 callsubr
          -144 0 -258 -330 rlineto
          endchar
        </CharString>
        <CharString name="Ucyrillic">
          1412 232 125 188 callsubr
        </CharString>
        <CharString name="Udblgrave">
          1464 940 1810 rmoveto
          -210 -5 hlineto
          249 -275 rlineto
          42 hlineto
          228 280 rmoveto
          -202 -5 hlineto
          187 -275 rlineto
          39 hlineto
          -501 -1552 -91 callsubr
        </CharString>
        <CharString name="Udieresis">
          1464 978 1566 rmoveto
          61 26 callsubr
          17 callsubr
          311 hmoveto
          -13 callsubr
          -59 hhcurveto
          -61 -50 -49 -61 -57 44 -46 59 hvcurveto
          -517 -1588 -91 callsubr
        </CharString>
        <CharString name="Udieresisacute">
          25 callgsubr
          81 -208 -82 callgsubr
          -5 callsubr
          27 callsubr
          -11 35 -20 callgsubr
          -486 -1582 -91 callsubr
        </CharString>
        <CharString name="Udieresisbelow">
          86 callsubr
          -242 -376 rmoveto
          17 callgsubr
          2 callgsubr
        </CharString>
        <CharString name="Udieresiscaron">
          1464 1483 1979 rmoveto
          -298 -81 -262 81 -9 -37 227 -170 36 0 299 170 rlineto
          -518 -382 -82 callgsubr
          -5 callsubr
          27 callsubr
          -11 35 -20 callgsubr
          -486 -1582 -91 callsubr
        </CharString>
        <CharString name="Udieresisgrave">
          1464 894 1849 rmoveto
          544 -81 8 38 -524 177 rlineto
          36 -423 -82 callgsubr
          -5 callsubr
          27 callsubr
          -11 35 -20 callgsubr
          -486 -1582 -91 callsubr
        </CharString>
        <CharString name="Udieresismacron">
          1464 890 40 callgsubr
          49 34 48 10 hvcurveto
          47 -5 callsubr
          27 callsubr
          -11 35 -20 callgsubr
          -486 -1582 -91 callsubr
        </CharString>
        <CharString name="Udotbelow">
          86 callsubr
          -47 -150 -75 callsubr
          -51 callsubr
        </CharString>
        <CharString name="Ugrave">
          1464 1105 19 callsubr
          -6 callsubr
          -418 -1552 -91 callsubr
        </CharString>
        <CharString name="Uhookabove">
          1464 1170 -11 callsubr
          -25 callgsubr
          -398 -1871 -91 callsubr
        </CharString>
        <CharString name="Uhorn">
          1573 304 617 31 callsubr
        </CharString>
        <CharString name="Uhornacute">
          1573 1226 -86 callsubr
          -52 callsubr
          -1188 -1196 31 callsubr
        </CharString>
        <CharString name="Uhorndotbelow">
          1573 304 617 rmoveto
          -460 -99 258 -179 310 hhcurveto
          339 204 223 343 76 hvcurveto
          193 872 rlineto
          -4 20 24 -2 25 hhcurveto
          147 1 103 71 121 vvcurveto
          87 -55 74 -76 32 vhcurveto
          -41 hlineto
          9 -16 4 -28 -29 vvcurveto
          -157 -112 -122 -203 vhcurveto
          -66 hlineto
          -9 -43 rlineto
          126 -22 10 -37 -33 -163 -128 -626 rcurveline
          -299 -61 -173 -170 123 callsubr
          -5 callgsubr
          250 -1437 -75 callsubr
          -51 callsubr
        </CharString>
        <CharString name="Uhorngrave">
          1573 1118 19 callsubr
          -6 callsubr
          -899 -913 31 callsubr
        </CharString>
        <CharString name="Uhornhookabove">
          1573 1183 -11 callsubr
          -25 callgsubr
          -879 -1232 31 callsubr
        </CharString>
        <CharString name="Uhorntilde">
          1573 1246 1577 rmoveto
          80 130 callsubr
          -30 -38 hhcurveto
          -27 -22 11 22 227 callsubr
          -942 -960 31 callsubr
        </CharString>
        <CharString name="Uhungarumlaut">
          1464 1041 1811 rmoveto
          -116 71 callgsubr
          -172 -280 48 0 353 277 rlineto
          4 vlineto
          -823 -1834 -91 callsubr
        </CharString>
        <CharString name="Uinvertedbreve">
          1464 1150 1876 rmoveto
          -176 -99 -125 -178 -6 hvcurveto
          43 hlineto
          94 18 78 57 137 hhcurveto
          107 74 -52 -74 -9 -1 -9 -2 -7 hvcurveto
          43 hlineto
          11 28 7 32 31 vvcurveto
          118 -1 -92 94 -141 hhcurveto
          -378 -1898 -91 callsubr
        </CharString>
        <CharString name="Umacron">
          1464 874 -62 callsubr
          27 130 rlineto
          -500 hlineto
          -129 -1760 -91 callsubr
        </CharString>
        <CharString name="Umacrondieresis">
          1464 1008 1793 rmoveto
          53 50 -76 callgsubr
          162 callsubr
          86 callgsubr
          -110 -1716 -91 callsubr
        </CharString>
        <CharString name="Uogonek">
          1464 735 -476 rmoveto
          84 66 42 64 31 hvcurveto
          9 43 rlineto
          -17 -18 -25 -12 -28 hhcurveto
          -64 -44 69 98 58 20 60 41 50 hvcurveto
          319 14 190 219 75 332 rrcurveto
          141 620 41 179 24 38 123 20 rlinecurve
          9 43 -372 0 -9 -43 rlineto
          127 -22 10 -37 -34 -178 -122 -610 rcurveline
          -299 -60 -173 -171 123 callsubr
          144 679 21 96 25 21 117 19 rlinecurve
          9 43 -549 0 -8 -43 100 -18 16 -22 -20 -96 rlinecurve
          -138 -648 -95 -450 245 -181 300 -8 rlinecurve
          -135 -87 -74 -102 -100 vvcurveto
          -96 81 -69 111 vhcurveto
          endchar
        </CharString>
        <CharString name="Upsilondieresisgreek">
          1299 919 1566 9 callgsubr
          26 callsubr
          17 callsubr
          -766 -371 -77 callsubr
        </CharString>
        <CharString name="Upsilongreek">
          1299 464 1195 -77 callsubr
        </CharString>
        <CharString name="Upsilontonosgreek">
          1700 865 1195 rmoveto
          181 -531 -105 -493 -19 -89 -24 -35 callgsubr
          9 43 -129 18 -16 21 18 89 rlinecurve
          106 497 386 502 139 182 39 32 100 17 rlinecurve
          9 43 -372 0 -9 -43 124 -17 8 -41 -121 -170 rlinecurve
          -318 -448 -146 476 -44 140 20 103 callgsubr
          28 -27 56 -164 rlinecurve
          -509 249 -63 callgsubr
          endchar
        </CharString>
        <CharString name="Uring">
          1464 916 1712 rmoveto
          -100 99 -59 113 151 101 76 103 101 -99 59 -114 -152 -99 -77 -103 vhcurveto
          150 -30 rmoveto
          88 44 79 55 41 23 -30 -56 -87 -44 -79 -55 -41 -23 29 56 vhcurveto
          -294 -1704 -91 callsubr
        </CharString>
        <CharString name="Utilde">
          1464 1233 1577 rmoveto
          80 130 callsubr
          -30 -38 hhcurveto
          -27 -22 11 22 227 callsubr
          -461 -1599 -91 callsubr
        </CharString>
        <CharString name="Utildeacute">
          25 callgsubr
          356 -202 95 callsubr
          28 30 -7 -12 38 hvcurveto
          31 -10 rlineto
          -13 43 42 -10 48 hhcurveto
          -461 -1588 -91 callsubr
        </CharString>
        <CharString name="Utildebelow">
          86 callsubr
          53 -386 rmoveto
          88 68 61 200 24 hvcurveto
          -44 hlineto
          -91 -19 -27 -34 -43 hhcurveto
          -31 -23 13 25 -35 hvcurveto
          -30 23 rlineto
          30 -42 -41 20 -51 hhcurveto
          -88 -68 -83 callgsubr
          17 28 173 callsubr
        </CharString>
        <CharString name="V">
          83 callgsubr
          endchar
        </CharString>
        <CharString name="Vdotbelow">
          83 callgsubr
          201 -1365 -88 callsubr
          48 -49 64 -104 callgsubr
        </CharString>
        <CharString name="Vecyrillic">
          1334 1344 446 82 callsubr
        </CharString>
        <CharString name="Vtilde">
          1351 1195 5 callsubr
          131 callsubr
          -28 callsubr
          -36 callsubr
          31 hvcurveto
          26 -20 rlineto
          -26 38 37 -18 47 hhcurveto
          -761 -384 rmoveto
          200 callsubr
          endchar
        </CharString>
        <CharString name="W">
          2089 423 1193 -4 callsubr
        </CharString>
        <CharString name="Wacute">
          2089 1575 -86 callsubr
          -52 callsubr
          -1418 -620 -4 callsubr
        </CharString>
        <CharString name="Wcircumflex">
          2089 1265 1532 rmoveto
          244 -48 callsubr
          -128 -41 callgsubr
          -793 -339 -4 callsubr
        </CharString>
        <CharString name="Wdieresis">
          2089 1340 1566 rmoveto
          61 26 callsubr
          -61 -50 -49 -61 -1 hvcurveto
          -57 45 -46 58 vhcurveto
          311 hmoveto
          -13 callsubr
          -58 hhcurveto
          17 callsubr
          -1228 -373 -4 callsubr
        </CharString>
        <CharString name="Wdotaccent">
          2089 1496 -80 callsubr
          -63 -68 74 callsubr
          -1073 -365 -4 callsubr
        </CharString>
        <CharString name="Wdotbelow">
          2089 423 1193 rmoveto
          118 -1200 158 0 587 1160 98 -1160 163 0 601 1167 102 197 43 28 100 16 rlinecurve
          9 43 -380 0 -9 -43 125 -17 12 -40 -86 -180 rlinecurve
          -422 -880 -61 905 -12 165 18 29 118 18 rlinecurve
          9 43 -548 0 -9 -43 120 -20 12 -51 -75 -158 rlinecurve
          -423 -887 -67 906 -11 148 24 45 125 17 rlinecurve
          9 43 -573 0 -10 -43 84 -14 35 -29 16 -165 rlinecurve
          568 -1365 -88 callsubr
          54 callsubr
        </CharString>
        <CharString name="Wgrave">
          2089 1467 19 callsubr
          -6 callsubr
          -1129 -337 -4 callsubr
        </CharString>
        <CharString name="X">
          1301 317 279 29 callsubr
        </CharString>
        <CharString name="Xdieresis">
          1301 935 1566 rmoveto
          61 49 49 -77 callgsubr
          113 callsubr
          hvcurveto
          -57 -1 45 -46 58 hhcurveto
          -928 -1287 29 callsubr
        </CharString>
        <CharString name="Xdotaccent">
          1301 1091 101 callsubr
          -774 -1279 29 callsubr
        </CharString>
        <CharString name="Xigreek">
          1309 1540 1444 rmoveto
          -1142 hlineto
          -103 -399 rlineto
          41 hlineto
          173 87 86 35 262 hhcurveto
          314 hlineto
          263 71 -35 -173 13 hvcurveto
          41 hlineto
          -774 -343 rmoveto
          225 82 callgsubr
          -38 hlineto
          -142 -53 -54 -55 -146 hhcurveto
          -225 hlineto
          -147 -31 55 142 9 hvcurveto
          -39 hlineto
          -97 -457 rlineto
          39 hlineto
          145 52 55 58 147 hhcurveto
          554 -702 rmoveto
          112 446 rlineto
          -41 hlineto
          -210 -97 -85 -37 -291 hhcurveto
          -294 hlineto
          -291 -68 37 210 -8 hvcurveto
          -41 hlineto
          -77 -446 rlineto
          endchar
        </CharString>
        <CharString name="Xigreek.1">
          1329 55 hmoveto
          1203 hlineto
          113 446 rlineto
          -42 hlineto
          -210 -97 -85 -37 -290 hhcurveto
          -134 hlineto
          106 503 rlineto
          101 82 callgsubr
          -39 hlineto
          -142 -52 -55 -55 -146 hhcurveto
          -100 hlineto
          105 494 rlineto
          144 hlineto
          263 71 -35 -173 13 hvcurveto
          42 hlineto
          67 399 -1165 0 -103 -399 rlineto
          41 hlineto
          173 87 86 35 263 hhcurveto
          144 hlineto
          -105 -494 rlineto
          -101 hlineto
          -146 -31 55 142 8 hvcurveto
          -38 hlineto
          -97 -457 rlineto
          38 hlineto
          145 53 54 58 148 hhcurveto
          100 hlineto
          -106 -503 rlineto
          -137 hlineto
          -290 -68 37 210 -8 hvcurveto
          -42 hlineto
          endchar
        </CharString>
        <CharString name="Y">
          1299 464 1195 -77 callsubr
        </CharString>
        <CharString name="Yacute">
          1299 1154 -86 callsubr
          -53 callsubr
          -956 -618 -77 callsubr
        </CharString>
        <CharString name="Ycircumflex">
          1299 845 1532 rmoveto
          243 -48 callsubr
          -56 callgsubr
          -331 -337 -77 callsubr
        </CharString>
        <CharString name="Ydieresis">
          1299 919 1566 9 callgsubr
          26 callsubr
          17 callsubr
          -766 -371 -77 callsubr
        </CharString>
        <CharString name="Ydotaccent">
          1299 1075 -80 callsubr
          -63 -91 callgsubr
          -611 -363 -77 callsubr
        </CharString>
        <CharString name="Ydotbelow">
          1299 464 1195 rmoveto
          181 -531 -104 -493 -19 -89 -25 -35 callgsubr
          10 43 -129 18 -17 21 19 89 rlinecurve
          213 callsubr
          139 -1367 -88 callsubr
          54 callsubr
        </CharString>
        <CharString name="Yericyrillic">
          1887 208 callsubr
          405 -308 rmoveto
          234 1098 19 93 24 20 118 17 rlinecurve
          9 43 -556 0 -9 -43 111 -15 14 -22 -19 -93 rlinecurve
          -234 -1098 -20 -93 -23 -20 -82 callsubr
          556 0 9 43 -111 17 -15 20 20 93 rlinecurve
          -708 334 -13 callgsubr
        </CharString>
        <CharString name="Ygrave">
          1299 1046 -57 callgsubr
          -668 -335 -77 callsubr
        </CharString>
        <CharString name="Yhookabove">
          1299 1112 -11 callsubr
          -34 callgsubr
          -44 -49 -46 -50 -91 -47 hvcurveto
          47 hlineto
          158 45 80 65 81 vvcurveto
          73 -64 51 -91 vhcurveto
          -648 -654 -77 callsubr
        </CharString>
        <CharString name="Yicyrillic">
          659 528 1567 rmoveto
          -13 callsubr
          -59 94 callsubr
          -327 -1394 -90 callsubr
          -89 callsubr
        </CharString>
        <CharString name="Ymacron">
          1299 815 -62 callsubr
          -61 callsubr
          -379 -543 -77 callsubr
        </CharString>
        <CharString name="Ytilde">
          1299 1175 5 callsubr
          131 callsubr
          -28 callsubr
          -36 callsubr
          31 hvcurveto
          26 -20 rlineto
          -26 38 37 -18 47 hhcurveto
          -711 -382 -77 callsubr
        </CharString>
        <CharString name="Z">
          1214 1132 hmoveto
          -60 callsubr
          36 callsubr
          endchar
        </CharString>
        <CharString name="Zacute">
          1214 1050 -86 callsubr
          -52 callsubr
          -184 -1813 rmoveto
          -60 callsubr
          36 callsubr
          endchar
        </CharString>
        <CharString name="Zcaron">
          1214 1215 7 callsubr
          -55 callgsubr
          -134 -1829 rmoveto
          -60 callsubr
          36 callsubr
          endchar
        </CharString>
        <CharString name="Zcircumflex">
          1214 740 1532 rmoveto
          244 -48 callsubr
          -128 -41 callgsubr
          441 -1532 rmoveto
          -60 callsubr
          36 callsubr
          endchar
        </CharString>
        <CharString name="Zdotaccent">
          1214 971 -80 callsubr
          -63 -68 74 callsubr
          161 -1558 rmoveto
          -60 callsubr
          36 callsubr
          endchar
        </CharString>
        <CharString name="Zdotbelow">
          1214 1132 hmoveto
          -60 callsubr
          36 callsubr
          500 -172 -75 callsubr
          -51 callsubr
        </CharString>
        <CharString name="Zecyrillic">
          1272 582 -22 rmoveto
          406 293 180 296 198 -178 91 -238 15 hvcurveto
          281 30 217 125 233 vvcurveto
          211 -185 110 -308 -166 -153 -42 -63 -101 vhcurveto
          -82 -342 rlineto
          39 hlineto
          274 105 163 112 175 hhcurveto
          141 75 -108 -143 -213 -132 -166 -244 hvcurveto
          -137 hlineto
          -12 -57 rlineto
          136 hlineto
          197 97 -102 -172 -205 -131 -201 -263 -1 hvcurveto
          -207 -1 -98 172 -9 205 rrcurveto
          -40 hlineto
          -45 -321 rlineto
          -65 85 140 -50 179 hhcurveto
          endchar
        </CharString>
        <CharString name="Zetagreek">
          1214 1132 hmoveto
          -60 callsubr
          36 callsubr
          endchar
        </CharString>
        <CharString name="Zhecyrillic">
          2083 371 hmoveto
          589 712 99 1 -115 -540 -19 -94 -25 -18 -122 -18 rlinecurve
          -9 -43 567 0 9 43 -113 17 -19 18 20 95 rlinecurve
          115 540 100 -1 283 -712 356 0 9 41 -56 25 -35 38 -86 211 rlinecurve
          -239 608 297 265 159 143 78 50 117 20 rlinecurve
          10 43 -418 0 -9 -43 128 -19 -5 -49 -116 -113 rlinecurve
          -459 -449 -102 -1 107 501 20 94 26 19 121 17 rlinecurve
          9 43 -568 0 -9 -43 115 -16 17 -19 -21 -95 rlinecurve
          -106 -501 -99 0 -276 451 -73 119 24 44 128 17 rlinecurve
          9 43 -423 0 -9 -43 113 -22 59 -44 103 -145 rlinecurve
          179 -253 -501 -616 rlineto
          -176 -212 -51 -44 -66 -24 -9 -41 rcurveline
          endchar
        </CharString>
        <CharString name="Zlinebelow">
          1214 1132 hmoveto
          -60 callsubr
          36 callsubr
          225 -352 -84 callsubr
        </CharString>
        <CharString name="a">
          1129 15 callsubr
          -107 callsubr
          -106 callsubr
          -101 callsubr
        </CharString>
        <CharString name="a.dnum">
          685 110 181 69 callgsubr
          -4 -27 -6 vvcurveto
          -69 -8 34 -32 64 hhcurveto
          66 62 29 41 30 hvcurveto
          7 31 rlineto
          -11 -14 -21 -5 -18 hhcurveto
          -25 -13 16 38 9 hvcurveto
          81 382 -105 0 -69 -59 rlineto
          36 -13 -44 33 -74 hhcurveto
          -167 -112 -155 -187 1 hvcurveto
          179 -16 rmoveto
          121 -2 48 179 103 hhcurveto
          33 24 -15 -20 7 hvcurveto
          -53 -249 rlineto
          -72 -18 -40 -41 -41 hhcurveto
          -37 -23 26 71 -1 hvcurveto
          endchar
        </CharString>
        <CharString name="a.numr">
          685 260 887 69 callgsubr
          -5 -27 -6 vvcurveto
          -69 -7 33 -32 64 hhcurveto
          67 62 29 40 29 hvcurveto
          7 32 rlineto
          -11 -14 -20 -6 -18 hhcurveto
          -26 -12 16 39 9 hvcurveto
          81 381 -106 0 -68 -58 rlineto
          35 -13 -44 34 -74 hhcurveto
          -167 -112 -155 -187 1 hvcurveto
          178 -16 rmoveto
          121 -1 47 179 104 hhcurveto
          33 24 -15 -20 7 hvcurveto
          -54 -249 rlineto
          -72 -17 -40 -41 -41 hhcurveto
          -37 -23 26 71 -2 hvcurveto
          endchar
        </CharString>
        <CharString name="a.sups">
          685 300 1071 rmoveto
          -120 64 -72 92 81 67 50 92 30 vhcurveto
          -2 -6 -4 -26 -7 vvcurveto
          -68 -8 34 -33 64 hhcurveto
          67 61 30 40 30 hvcurveto
          7 31 rlineto
          -10 -14 -21 -6 -18 hhcurveto
          -25 -13 16 38 9 hvcurveto
          81 382 -105 0 -68 -58 rlineto
          35 -14 -44 33 -74 hhcurveto
          -167 -112 -154 -187 2 hvcurveto
          178 -17 rmoveto
          121 -2 48 180 103 hhcurveto
          33 24 -16 -20 7 hvcurveto
          -53 -248 rlineto
          -73 -18 -40 -40 -41 hhcurveto
          -37 -23 25 71 -1 hvcurveto
          endchar
        </CharString>
        <CharString name="aacute">
          1129 914 -55 callsubr
          -8 callsubr
          -1031 -1121 -104 callsubr
          -107 callsubr
          -106 callsubr
          -101 callsubr
        </CharString>
        <CharString name="abreve">
          1129 826 46 callsubr
          -652 -788 -104 callsubr
          -107 callsubr
          -106 callsubr
          -101 callsubr
        </CharString>
        <CharString name="abreveacute">
          1129 1135 -47 callsubr
          -46 callsubr
          215 -279 rmoveto
          166 134 93 148 25 hvcurveto
          -49 55 callsubr
          7 hvcurveto
          -48 hlineto
          -148 -39 95 -93 167 hhcurveto
          -609 -743 -104 callsubr
          -107 callsubr
          -106 callsubr
          -101 callsubr
        </CharString>
        <CharString name="abrevecyrillic">
          1129 789 133 callsubr
          56 -98 callgsubr
          158 callsubr
          -615 -801 -104 callsubr
          -107 callsubr
          -106 callsubr
          -101 callsubr
        </CharString>
        <CharString name="abrevedotbelow">
          1129 826 46 callsubr
          -652 -788 -104 callsubr
          -107 callsubr
          -106 callsubr
          107 107 21 callsubr
          -12 callsubr
          34 callsubr
          137 -721 1 callsubr
        </CharString>
        <CharString name="abrevegrave">
          1129 588 -65 callgsubr
          161 -531 rmoveto
          166 134 93 148 25 hvcurveto
          -49 55 callsubr
          7 hvcurveto
          -48 hlineto
          -148 -39 95 -93 167 hhcurveto
          -609 -743 -104 callsubr
          -107 callsubr
          -106 callsubr
          -101 callsubr
        </CharString>
        <CharString name="abrevehookabove">
          1129 872 58 callsubr
          -7 -36 rlineto
          16 24 43 13 43 hhcurveto
          63 174 callsubr
          18 82 rlinecurve
          81 17 -67 49 -94 hhcurveto
          -89 -506 rmoveto
          166 134 93 148 25 hvcurveto
          -49 55 callsubr
          7 hvcurveto
          -48 hlineto
          -148 -39 95 -93 167 hhcurveto
          -609 -743 -104 callsubr
          -107 callsubr
          -106 callsubr
          -101 callsubr
        </CharString>
        <CharString name="abrevetilde">
          1129 963 1391 rmoveto
          97 76 101 callgsubr
          -56 callsubr
          97 callsubr
          48 hhcurveto
          -180 -305 rmoveto
          166 134 93 148 25 hvcurveto
          -49 55 callsubr
          7 hvcurveto
          -48 hlineto
          -148 -39 95 -93 167 hhcurveto
          -609 -743 -104 callsubr
          -107 callsubr
          -106 callsubr
          -101 callsubr
        </CharString>
        <CharString name="acaron">
          1129 1094 -78 callsubr
          -65 callsubr
          -64 callsubr
          -975 -1142 -104 callsubr
          -107 callsubr
          -106 callsubr
          -101 callsubr
        </CharString>
        <CharString name="acircumflex">
          1129 557 -85 callsubr
          -79 callsubr
          -74 callsubr
          -328 -755 -104 callsubr
          -107 callsubr
          -106 callsubr
          -101 callsubr
        </CharString>
        <CharString name="acircumflexacute">
          1129 1135 -47 callsubr
          -46 callsubr
          -61 -286 -25 callsubr
          -343 -781 -104 callsubr
          -107 callsubr
          -106 callsubr
          -101 callsubr
        </CharString>
        <CharString name="acircumflexdotbelow">
          1129 557 -85 callsubr
          -79 callsubr
          -74 callsubr
          -328 -755 -104 callsubr
          -107 callsubr
          -106 callsubr
          107 107 21 callsubr
          -12 callsubr
          34 callsubr
          137 -721 1 callsubr
        </CharString>
        <CharString name="acircumflexgrave">
          1129 588 -65 callgsubr
          -115 -538 -25 callsubr
          -343 -781 -104 callsubr
          -107 callsubr
          -106 callsubr
          -101 callsubr
        </CharString>
        <CharString name="acircumflexhookabove">
          1129 1091 1592 rmoveto
          -82 -67 -40 -46 -41 hvcurveto
          -8 176 callsubr
          -10 callgsubr
          -343 -781 -104 callsubr
          -107 callsubr
          -106 callsubr
          -101 callsubr
        </CharString>
        <CharString name="acircumflextilde">
          1129 963 1391 rmoveto
          97 76 101 callgsubr
          -56 callsubr
          97 callsubr
          48 hhcurveto
          -456 -312 -25 callsubr
          -343 -781 -104 callsubr
          -107 callsubr
          -106 callsubr
          -101 callsubr
        </CharString>
        <CharString name="acute">
          1024 874 69 callsubr
          16 callsubr
          endchar
        </CharString>
        <CharString name="acutecmb">
          0 362 69 callsubr
          16 callsubr
          endchar
        </CharString>
        <CharString name="acutecmb.short">
          0 334 1353 rmoveto
          -193 -53 callsubr
          endchar
        </CharString>
        <CharString name="acutedotaccentcmb">
          6 callgsubr
          216 -162 rmoveto
          35 158 -592 -209 -9 -45 rlineto
          endchar
        </CharString>
        <CharString name="acutedotaccentcmb.short">
          0 395 1763 rmoveto
          56 42 36 49 -1 hvcurveto
          50 -46 37 -56 -55 -42 -37 -50 vhcurveto
          80 callgsubr
          endchar
        </CharString>
        <CharString name="acyrillic">
          1129 15 callsubr
          -107 callsubr
          -106 callsubr
          -101 callsubr
        </CharString>
        <CharString name="adblgrave">
          1129 585 1462 rmoveto
          -245 51 callsubr
          8 callsubr
          -803 -752 -104 callsubr
          -107 callsubr
          -106 callsubr
          -101 callsubr
        </CharString>
        <CharString name="adieresis">
          1129 618 1160 rmoveto
          74 60 58 72 69 -53 53 -71 -75 -60 -63 callsubr
          75 -73 callsubr
          -61 28 callsubr
          -848 -817 -104 callsubr
          -107 callsubr
          -106 callsubr
          -101 callsubr
        </CharString>
        <CharString name="adieresismacron">
          1129 577 116 callsubr
          -21 callgsubr
          -11 34 -100 callgsubr
          -88 callgsubr
          119 callsubr
          -765 -763 -104 callsubr
          -107 callsubr
          -106 callsubr
          -101 callsubr
        </CharString>
        <CharString name="adotaccent">
          1129 819 -48 callgsubr
          -75 -79 75 callsubr
          -645 -809 -104 callsubr
          -107 callsubr
          -106 callsubr
          -101 callsubr
        </CharString>
        <CharString name="adotbelow">
          1129 15 callsubr
          -107 callsubr
          -106 callsubr
          107 107 21 callsubr
          -12 callsubr
          34 callsubr
          137 -721 1 callsubr
        </CharString>
        <CharString name="adotmacron">
          1129 575 -7 callgsubr
          -58 -46 -44 -58 -58 45 -44 59 hvcurveto
          -634 -762 -104 callsubr
          -107 callsubr
          -106 callsubr
          -101 callsubr
        </CharString>
        <CharString name="ae">
          1478 254 781 143 callsubr
        </CharString>
        <CharString name="aeacute">
          1478 1103 -55 callsubr
          -8 callsubr
          -1140 -683 143 callsubr
        </CharString>
        <CharString name="aemacron">
          1478 718 -57 callsubr
          -496 -567 143 callsubr
        </CharString>
        <CharString name="agrave">
          1129 793 111 callsubr
          -705 -752 -104 callsubr
          -107 callsubr
          -106 callsubr
          -101 callsubr
        </CharString>
        <CharString name="ahookabove">
          1129 864 20 callsubr
          92 callsubr
          -104 vhcurveto
          -690 -1130 -104 callsubr
          -107 callsubr
          -106 callsubr
          -101 callsubr
        </CharString>
        <CharString name="ainvertedbreve">
          1129 830 104 callsubr
          22 85 -103 callgsubr
          0 -10 -3 -8 hvcurveto
          -69 callgsubr
          -656 -1111 -104 callsubr
          -107 callsubr
          -106 callsubr
          -101 callsubr
        </CharString>
        <CharString name="alphagreek">
          1216 467 -19 181 callsubr
        </CharString>
        <CharString name="alphatonosgreek">
          1216 888 1500 121 callsubr
          -678 -1519 181 callsubr
        </CharString>
        <CharString name="amacron">
          1129 529 -57 callsubr
          -387 -1005 -104 callsubr
          -107 callsubr
          -106 callsubr
          -101 callsubr
        </CharString>
        <CharString name="ampersand">
          1481 127 332 rmoveto
          -198 154 -156 245 168 139 86 160 149 vhcurveto
          182 -224 374 0 8 34 -82 42 -78 75 -95 119 rlinecurve
          -131 163 160 205 132 167 49 37 106 15 rlinecurve
          9 44 -392 0 -8 -44 129 -14 22 -44 -101 -143 rlinecurve
          -134 -188 -278 346 -10 12 -8 11 -9 11 rlinecurve
          257 84 125 113 140 vvcurveto
          159 -131 122 -246 -261 -156 -162 -200 -2 vhcurveto
          -2 -102 40 -99 89 -127 rrcurveto
          -255 -80 -158 -150 -214 vvcurveto
          527 878 rmoveto
          126 74 70 106 109 57 -94 -121 -128 -73 -110 -126 -71 vhcurveto
          -109 146 -38 92 90 vvcurveto
          -279 -761 rmoveto
          150 101 88 92 51 vhcurveto
          18 -24 19 -26 22 -26 329 -405 rcurveline
          -82 -86 -84 -43 -101 hhcurveto
          -173 -137 132 185 hvcurveto
          endchar
        </CharString>
        <CharString name="anoteleiagreek">
          488 422 709 rmoveto
          85 70 75 callgsubr
          endchar
        </CharString>
        <CharString name="aogonek">
          1129 15 callsubr
          -107 callsubr
          -106 callsubr
          26 25 4 6 23 hvcurveto
          -203 -130 -74 -98 -96 vvcurveto
          -89 70 -57 102 88 71 44 62 36 vhcurveto
          9 43 rlineto
          -18 -21 -28 -10 -30 hhcurveto
          -46 -35 30 63 102 86 114 162 143 hvcurveto
          1 1 0 0 1 1 8 44 rcurveline
          -22 -29 -41 -13 -32 hhcurveto
          -46 -23 30 68 15 hvcurveto
          166 778 -149 0 -120 -104 rlineto
          61 -22 -74 61 -133 hhcurveto
          -307 -203 -312 -347 hvcurveto
          273 -28 rmoveto
          255 1 101 351 206 hhcurveto
          70 47 -36 -44 13 hvcurveto
          66 callsubr
          -85 hhcurveto
          -78 -45 61 157 hvcurveto
          endchar
        </CharString>
        <CharString name="approxequal">
          1200 1001 747 rmoveto
          -164 -96 220 -194 hhcurveto
          -140 -122 -94 -222 -41 hvcurveto
          76 -2 rlineto
          163 35 91 64 98 166 96 -221 192 hhcurveto
          138 122 94 221 41 hvcurveto
          -75 hlineto
          -158 -35 -92 -65 -96 hhcurveto
          -104 -494 rmoveto
          -165 -96 220 -194 hhcurveto
          -140 -122 -94 -223 -40 hvcurveto
          74 hlineto
          162 36 91 64 99 165 96 -220 193 hhcurveto
          136 124 94 221 40 hvcurveto
          -74 hlineto
          -159 -35 -93 -65 -95 hhcurveto
          endchar
        </CharString>
        <CharString name="aring">
          1129 568 1280 rmoveto
          -111 111 -65 126 168 111 84 115 111 -111 65 -125 -169 -111 140 callsubr
          61 46 25 -34 -63 -98 -50 -88 -61 -45 -26 33 63 vhcurveto
          -561 -903 -104 callsubr
          -107 callsubr
          -106 callsubr
          -101 callsubr
        </CharString>
        <CharString name="aringacute">
          1129 1136 1462 rmoveto
          33 158 -591 -208 -10 -45 rlineto
          240 -284 rmoveto
          139 101 49 76 17 hvcurveto
          75 15 -80 49 -139 hhcurveto
          -53 hlineto
          -137 -103 -49 -75 -17 hvcurveto
          -76 -15 82 -49 138 hhcurveto
          51 45 rmoveto
          -31 hlineto
          -46 -20 33 47 10 hvcurveto
          46 11 33 34 46 hhcurveto
          30 hlineto
          47 19 -34 -46 -10 hvcurveto
          -47 -10 -33 -33 -46 hhcurveto
          -633 -785 -104 callsubr
          -107 callsubr
          -106 callsubr
          -101 callsubr
        </CharString>
        <CharString name="aringbelow">
          1129 15 callsubr
          -107 callsubr
          -106 callsubr
          107 107 21 callsubr
          -12 callsubr
          34 callsubr
          -118 -611 rmoveto
          -100 1 113 -59 126 hhcurveto
          167 218 callsubr
        </CharString>
        <CharString name="asciicircum">
          1208 873 1444 rmoveto
          -534 -581 53 -48 508 536 278 -535 63 47 -286 581 rlineto
          endchar
        </CharString>
        <CharString name="asciitilde">
          1200 951 508 rmoveto
          -164 -96 221 -195 hhcurveto
          -139 -122 -94 -223 -41 hvcurveto
          75 -1 rlineto
          163 35 91 64 99 166 95 -221 193 hhcurveto
          137 123 94 221 40 hvcurveto
          -74 hlineto
          -158 -35 -93 -66 -95 hhcurveto
          endchar
        </CharString>
        <CharString name="asterisk">
          794 687 1473 rmoveto
          -56 -35 -39 -66 -18 0 -19 3 -28 hvcurveto
          26 -183 14 0 103 186 rlineto
          20 37 6 26 22 vvcurveto
          47 -33 35 -48 vhcurveto
          -288 -126 rmoveto
          -51 -32 -40 -44 -40 25 -36 76 -25 hvcurveto
          188 -61 7 12 -91 148 rlineto
          67 -41 -44 19 -37 hhcurveto
          516 -55 rmoveto
          -39 -31 -14 -48 -56 hvcurveto
          -139 -118 5 -13 188 15 rlineto
          111 6 44 40 54 vvcurveto
          45 -34 33 -49 vhcurveto
          -571 -399 rmoveto
          38 29 15 47 58 hvcurveto
          139 120 -5 13 -187 -17 rlineto
          -111 -7 -44 -39 -54 vvcurveto
          -45 34 -33 49 vhcurveto
          599 28 rmoveto
          40 -25 38 -77 23 vhcurveto
          -187 63 -8 -12 91 -149 rlineto
          -68 41 44 -18 37 hhcurveto
          51 33 40 43 hvcurveto
          -371 -210 rmoveto
          55 35 40 66 18 0 19 -3 28 hvcurveto
          -26 183 -14 0 -102 -186 rlineto
          -22 -38 -4 -25 -22 vvcurveto
          -47 33 -36 48 vhcurveto
          endchar
        </CharString>
        <CharString name="at">
          2031 1474 -308 rmoveto
          -1 45 rlineto
          -84 -131 -150 -21 -154 hhcurveto
          -414 -1 -341 302 474 vvcurveto
          603 464 347 470 438 328 -265 -425 -378 -250 -206 -182 -74 -47 46 115 24 vhcurveto
          155 721 -100 0 -159 -134 rlineto
          94 -29 -71 58 -110 hhcurveto
          -271 -185 -309 -305 -199 85 -130 154 124 121 94 172 69 hvcurveto
          -5 -26 -5 -31 -14 vvcurveto
          -142 -14 94 -86 172 hhcurveto
          313 259 279 387 449 -359 295 -477 -508 -492 -373 -642 -501 371 -330 439 1 hvcurveto
          161 176 34 86 112 hvcurveto
          -541 663 rmoveto
          228 106 322 169 69 44 -49 -81 8 vhcurveto
          -78 -368 rlineto
          -128 -27 -91 -126 -97 hhcurveto
          -80 -23 86 116 hvcurveto
          endchar
        </CharString>
        <CharString name="atilde">
          1129 935 -27 callsubr
          120 callsubr
          -101 callgsubr
          -94 callgsubr
          -761 -807 -104 callsubr
          -107 callsubr
          -106 callsubr
          -101 callsubr
        </CharString>
        <CharString name="austral">
          1309 84 395 rmoveto
          233 hlineto
          -75 -139 -90 -167 -40 -31 -102 -15 rlinecurve
          -10 -43 364 0 10 43 -118 17 -21 34 82 159 rlinecurve
          74 142 496 0 16 -165 12 -129 -23 -42 -128 -15 rlinecurve
          -9 -44 548 0 10 44 -87 12 -28 31 -17 143 rlinecurve
          -19 165 231 0 9 41 -244 0 -28 239 323 0 9 40 -336 0 -84 734 -159 0 -395 -734 -336 0 -9 -40 324 0 -129 -239 rlineto
          -245 hlineto
          465 279 rmoveto
          250 482 47 -482 rlineto
          -443 -279 rmoveto
          124 239 323 0 24 -239 rlineto
          endchar
        </CharString>
        <CharString name="austral.tnum">
          1227 97 435 rmoveto
          -9 -41 216 0 -70 -138 -85 -169 -42 -30 -93 -14 rlinecurve
          -9 -43 345 0 10 43 -114 16 -16 31 80 163 rlinecurve
          68 141 442 0 11 -164 9 -130 -22 -41 -121 -15 rlinecurve
          -9 -44 535 0 9 44 -79 11 -28 31 -13 144 rlinecurve
          -14 164 209 0 9 41 -222 0 -20 237 292 0 9 42 -305 0 -64 735 -167 0 -373 -735 -310 0 -8 -42 297 0 -120 -237 rlineto
          210 279 rmoveto
          233 476 31 -476 rlineto
          -401 -279 rmoveto
          117 237 287 0 16 -237 rlineto
          endchar
        </CharString>
        <CharString name="b">
          178 callsubr
          endchar
        </CharString>
        <CharString name="backslash">
          706 499 -291 rmoveto
          88 hlineto
          -104 1882 rlineto
          -88 hlineto
          endchar
        </CharString>
        <CharString name="baht">
          1302 1310 453 rmoveto
          171 -141 138 -267 18 vhcurveto
          229 14 248 90 2 227 rrcurveto
          159 -133 111 -265 27 vhcurveto
          47 223 -40 0 -47 -220 rlineto
          2 -29 -29 1 -31 hhcurveto
          -483 hlineto
          -9 -43 rlineto
          111 -16 15 -22 -20 -90 -221 -1042 rcurveline
          -19 -89 -23 -23 -117 -16 -10 -43 rcurveline
          500 hlineto
          24 24 0 1 23 hvcurveto
          -47 -220 41 0 47 222 rlineto
          388 25 232 158 237 vvcurveto
          -548 912 rmoveto
          78 -3 33 -2 30 -4 26 -7 rlinecurve
          -118 -555 -15 -2 -15 0 -16 -1 rlinecurve
          -125 hlineto
          468 317 rmoveto
          -151 -89 -124 -166 -33 vhcurveto
          114 536 rlineto
          94 -38 47 -80 -110 vvcurveto
          -478 -367 rmoveto
          122 -1 rlineto
          17 -1 15 -1 15 -2 -138 -647 rcurveline
          -28 -4 -29 -3 -31 -1 -85 -2 rcurveline
          536 375 rmoveto
          -167 -96 -145 -225 -46 vhcurveto
          135 631 rlineto
          120 -34 66 -104 -135 vvcurveto
          endchar
        </CharString>
        <CharString name="baht.tnum">
          -12 callgsubr
          155 -125 108 -249 26 vhcurveto
          48 223 -41 0 -47 -220 rlineto
          2 -27 -28 1 -30 hhcurveto
          -461 hlineto
          -9 -43 rlineto
          106 -14 14 -24 -19 -90 -221 -1042 rcurveline
          -19 -89 -22 -24 -113 -15 -9 -43 rcurveline
          486 hlineto
          20 19 0 1 19 hvcurveto
          -47 -220 41 0 47 222 rlineto
          373 23 223 158 239 vvcurveto
          -514 912 rmoveto
          73 -3 31 -1 29 -4 25 -7 rlinecurve
          -118 -556 -14 -2 -14 0 -15 -1 rlinecurve
          -119 hlineto
          445 327 rmoveto
          -154 -84 -129 -157 -34 vhcurveto
          114 535 rlineto
          84 -38 43 -76 -104 vvcurveto
          -455 -377 rmoveto
          115 -1 rlineto
          15 -1 15 -1 14 -3 -138 -647 rcurveline
          -4 -24 -25 -2 -26 hhcurveto
          -88 -3 rlineto
          513 387 rmoveto
          -170 -96 -154 -211 -47 vhcurveto
          134 631 rlineto
          112 -35 61 -101 -124 vvcurveto
          endchar
        </CharString>
        <CharString name="bar">
          706 247 -291 rmoveto
          88 hlineto
          400 1882 rlineto
          -88 hlineto
          endchar
        </CharString>
        <CharString name="bdotaccent">
          1129 657 1612 rmoveto
          79 63 61 77 73 -56 57 -76 -78 75 callsubr
          508 -972 67 callsubr
          192 callsubr
          endchar
        </CharString>
        <CharString name="bdotbelow">
          178 callsubr
          -359 -1075 43 callsubr
        </CharString>
        <CharString name="becyrillic">
          1143 1165 548 rmoveto
          236 -148 202 -253 -216 -171 -135 -205 -81 vhcurveto
          -1 4 1 6 6 vvcurveto
          6 321 113 177 393 28 16 2 87 6 18 1 271 16 94 89 46 211 rrcurveto
          -43 hlineto
          -24 -54 -64 -19 -178 -8 rrcurveto
          -552 -22 -282 -410 -524 vvcurveto
          -325 161 -171 259 339 209 268 300 vhcurveto
          -270 110 rmoveto
          -262 -98 -359 -177 -103 -51 95 177 263 97 359 180 100 52 -96 -177 vhcurveto
          endchar
        </CharString>
        <CharString name="betagreek">
          1185 51 -460 rmoveto
          282 hlineto
          103 573 rlineto
          -76 47 111 -56 125 hhcurveto
          282 193 194 253 15 hvcurveto
          15 222 -120 185 -254 20 257 40 122 136 8 167 rrcurveto
          189 11 -141 116 -231 hhcurveto
          -278 -160 -158 -350 -76 hvcurveto
          289 133 rmoveto
          217 47 51 97 119 hhcurveto
          86 56 -70 -161 -9 hvcurveto
          -9 -184 -86 -137 -197 -6 rrcurveto
          -39 -185 187 -8 92 -104 -6 -201 rlinecurve
          -203 -6 -131 -118 -157 hhcurveto
          -85 -74 38 63 -44 hvcurveto
          35 173 161 746 9 43 rrcurveto
          endchar
        </CharString>
        <CharString name="bitcoin">
          1302 1310 453 rmoveto
          171 -140 138 -268 18 vhcurveto
          229 14 248 90 2 227 rrcurveto
          133 -93 100 -186 44 vhcurveto
          52 243 -41 0 -50 -234 rlineto
          11 -61 -70 6 -78 hhcurveto
          -14 hlineto
          46 217 -40 0 -47 -217 -428 0 -9 -43 111 -16 15 -22 -20 -90 rlinecurve
          -221 -1042 -19 -89 -23 -23 -117 -16 rlinecurve
          -10 -43 428 0 -47 -219 41 0 47 219 rlineto
          31 hlineto
          70 66 4 7 61 hvcurveto
          -49 -230 41 0 50 236 rlineto
          311 48 182 148 210 vvcurveto
          -202 655 rmoveto
          -176 -121 -139 -222 -2 vhcurveto
          -125 hlineto
          122 574 78 -3 rlineto
          178 -7 90 -96 -151 vvcurveto
          -84 -654 rmoveto
          -196 -132 -167 -319 -10 vhcurveto
          -85 -2 142 662 122 -1 rlineto
          174 -4 98 -118 -164 vvcurveto
          endchar
        </CharString>
        <CharString name="bitcoin.tnum">
          -12 callgsubr
          130 -88 97 -175 43 vhcurveto
          51 242 -41 0 -50 -234 rlineto
          11 -57 -65 6 -74 hhcurveto
          -27 hlineto
          46 217 -40 0 -47 -217 -393 0 -9 -43 106 -14 14 -24 -19 -90 rlinecurve
          -221 -1042 -19 -89 -22 -24 -113 -15 rlinecurve
          -9 -43 392 0 -47 -219 40 0 48 219 rlineto
          53 hlineto
          62 58 3 7 55 hvcurveto
          -49 -229 41 0 50 235 rlineto
          301 46 177 148 213 vvcurveto
          -191 665 rmoveto
          -180 -115 -145 -211 -2 vhcurveto
          -119 hlineto
          122 574 73 -3 rlineto
          166 -9 84 -89 -146 vvcurveto
          -84 -652 rmoveto
          -199 -131 -175 -294 -10 vhcurveto
          -88 -3 142 662 115 -1 rlineto
          165 -5 91 -117 -152 vvcurveto
          endchar
        </CharString>
        <CharString name="blinebelow">
          178 callsubr
          -627 -1021 -84 callsubr
        </CharString>
</ttFont>
